<svg width="80" height="80" viewBox="0 0 80 80" fill="none" xmlns="http://www.w3.org/2000/svg">
<g id="bug 1">
<g id="Group">
<path id="Vector" opacity="0.3" fill-rule="evenodd" clip-rule="evenodd" d="M48.0924 53.584C60.0324 53.584 69.7708 43.8457 69.7708 31.9057C68.6618 3.18952 27.5186 3.19748 26.4141 31.906C26.4142 43.8457 36.1524 53.584 48.0924 53.584Z" fill="#C76378"/>
<g id="Group_2">
<path id="Vector (Stroke)" fill-rule="evenodd" clip-rule="evenodd" d="M4.83622 66.2643C4.84205 66.2609 8.39133 62.8797 12.4384 59.0243C17.7987 53.918 24.0322 47.9797 24.0625 47.9558C24.0625 47.9558 24.0626 47.9558 24.0625 47.9558C23.7801 47.5446 23.5107 47.1296 23.2541 46.7112C11.8276 28.0882 25.7139 2.78638 48.0907 3.00137C64.0288 3.00137 76.9952 15.9679 76.9951 31.9055C77.2159 54.78 50.7656 68.7905 32.041 55.9341C32.0237 55.941 28.2127 59.9493 24.0725 64.3039C19.1467 69.4848 13.7549 75.1558 13.7323 75.1605C12.5059 76.3868 10.895 76.9999 9.28432 76.9999C3.75851 77.0374 0.877025 70.206 4.83622 66.2643ZM9.28882 78.4999C2.42539 78.5418 -1.13265 70.0901 3.77791 65.2013L3.91352 65.0663L3.92964 65.0568L4.63144 64.3891C5.15762 63.8881 5.90868 63.1728 6.80972 62.3146C8.10544 61.0804 9.7111 59.5508 11.4039 57.9382L13.4151 56.0222C15.8168 53.7344 18.2185 51.4466 20.0206 49.7305C20.8779 48.9141 21.5996 48.227 22.1212 47.7308C9.81949 28.0943 24.4433 1.27958 48.0979 1.50137C64.8587 1.50527 78.4912 15.1379 78.4951 31.8982C78.718 55.5498 51.9044 70.1816 32.2611 57.8724C31.764 58.3937 31.0754 59.117 30.2568 59.9773C28.8381 61.4685 27.0302 63.37 25.1548 65.3426L23.9751 66.5833C21.6915 68.985 19.4075 71.387 17.6916 73.1892C16.8338 74.0901 16.1174 74.8418 15.6139 75.3687C15.3624 75.632 15.1629 75.8403 15.0252 75.9834C14.9567 76.0546 14.9013 76.1119 14.8618 76.1524C14.8427 76.1719 14.8232 76.1918 14.8063 76.2086C14.7995 76.2154 14.7859 76.229 14.7699 76.2441C13.254 77.7475 11.2682 78.4987 9.28882 78.4999ZM10.629 72.0534L22.0906 60.0168L19.9798 57.9059L7.943 69.3678C6.27074 71.2465 8.7546 73.7204 10.629 72.0534ZM6.86863 68.3195C3.8328 71.621 8.37239 76.1651 11.677 73.128L24.1863 59.9912L20.0054 55.8103L6.86863 68.3195ZM26.1803 57.8973L29.7065 54.1942C29.3205 53.8753 28.9429 53.5465 28.5741 53.2083C27.9534 52.6391 27.3576 52.0433 26.7885 51.4227C26.4502 51.0538 26.1215 50.6762 25.8025 50.2902L22.0994 53.8164L26.1803 57.8973ZM26.154 55.7497L27.5395 54.2947C26.9013 53.7085 26.2882 53.0954 25.702 52.4572L24.247 53.8427L26.154 55.7497ZM23.5767 31.9342C23.5921 45.4369 34.5845 56.4199 48.0907 56.4199C61.5972 56.4199 72.5894 45.437 72.6048 31.9344C71.3493 -0.559433 24.8372 -0.566015 23.5767 31.9342ZM22.0767 31.9058C22.0767 46.25 33.7466 57.9199 48.0907 57.9199C62.435 57.9199 74.1048 46.2501 74.1048 31.9061C72.8022 -2.54858 23.3845 -2.55798 22.0767 31.9058Z" fill="#294563"/>
<path id="Vector (Stroke)_2" fill-rule="evenodd" clip-rule="evenodd" d="M59.2567 36.09L59.2656 36.0935C62.2771 37.2754 61.4572 41.6349 58.3537 41.7832C58.293 41.79 58.2472 41.7915 58.222 41.7923C58.097 41.7962 57.9924 41.785 57.9302 41.7768C57.8025 41.76 57.683 41.7319 57.5973 41.7099C57.4167 41.6634 57.2063 41.5965 56.9985 41.5263C56.5746 41.3829 56.0422 41.1844 55.5269 40.9875C55.2749 40.8913 55.0217 40.7933 54.7818 40.7002C52.2417 46.3472 43.9392 46.3511 41.3979 40.7001C41.1584 40.7931 40.9055 40.8908 40.6538 40.9869C40.1367 41.1844 39.6023 41.3835 39.1779 41.5271C38.97 41.5974 38.7594 41.6644 38.5792 41.7108C38.494 41.7327 38.3735 41.7611 38.2444 41.7778C38.182 41.7859 38.0737 41.7973 37.9439 41.7922C37.9207 41.7913 37.8773 41.7896 37.8196 41.7829C34.72 41.6286 33.9066 37.2744 36.9141 36.0933L36.9231 36.0897L40.2011 34.8509H37.9733C36.3466 34.8509 35.028 33.5323 35.028 31.9057C35.028 30.2791 36.3466 28.9605 37.9733 28.9605H40.201L36.9322 27.7252C35.4107 27.1501 34.6434 25.4506 35.2182 23.9291C35.7934 22.4077 37.4929 21.6402 39.0144 22.215L41.3963 23.1151C43.9349 17.463 52.2437 17.459 54.7836 23.1151L57.1654 22.2151C57.1653 22.2151 57.1654 22.2151 57.1654 22.2151C58.6865 21.6402 60.3865 22.407 60.9617 23.9288C61.5365 25.4504 60.7694 27.15 59.248 27.7252L55.9784 28.9608H58.2067C59.8333 28.9608 61.1519 30.2794 61.1519 31.906C61.1519 33.5326 59.8333 34.8512 58.2067 34.8512H55.9788L59.2567 36.09ZM53.9613 28.1195L58.7176 26.3221C59.4642 26.0398 59.8407 25.2059 59.5585 24.4592C59.2763 23.7124 58.4421 23.3361 57.6957 23.6182L53.8493 25.0717C53.7389 24.5544 53.5773 24.0799 53.373 23.6482C51.3068 19.2821 44.872 19.2846 42.8069 23.6481C42.6025 24.0799 42.4409 24.5544 42.3306 25.0717L38.4843 23.6182C37.7376 23.3361 36.9037 23.7126 36.6214 24.4592C36.3393 25.2059 36.7158 26.0398 37.4624 26.3221L42.2186 28.1194V30.4605H37.9733C37.1751 30.4605 36.528 31.1075 36.528 31.9057C36.528 32.7039 37.1751 33.3509 37.9733 33.3509H42.2186V35.692L37.4624 37.4895C35.9643 38.0778 36.3873 40.274 37.9736 40.287C38.0978 40.3631 39.6875 39.7553 40.9148 39.2786C41.0331 39.2327 41.148 39.1879 41.2579 39.1452C41.8143 38.9286 42.2425 38.7619 42.3305 38.7397C42.367 38.9108 42.4091 39.0773 42.4566 39.239C44.0915 44.8154 52.0192 44.8343 53.7031 39.3064C53.7587 39.1236 53.8076 38.9347 53.8492 38.7397C53.9428 38.7639 54.3753 38.9323 54.9343 39.1499C55.0404 39.1913 55.1511 39.2344 55.2649 39.2786C56.4892 39.7545 58.0731 40.3606 58.2061 40.287C59.7924 40.2743 60.2158 38.0778 58.7176 37.4898L53.9613 35.6923V33.3512H58.2067C59.0049 33.3512 59.6519 32.7042 59.6519 31.906C59.6519 31.1078 59.0049 30.4608 58.2067 30.4608H53.9613V28.1195ZM49.5638 26.0702C49.4904 25.3225 48.8564 24.7345 48.0901 24.7345C47.3239 24.7345 46.6898 25.3226 46.6164 26.0702H49.5638ZM51.0674 26.0702C50.9915 24.4936 49.6851 23.2345 48.0901 23.2345C46.4951 23.2345 45.1888 24.4938 45.1128 26.0702C45.1105 26.1183 45.1093 26.1666 45.1093 26.2153V27.5702H51.0709V26.2153C51.0709 26.1666 51.0697 26.1183 51.0674 26.0702ZM46.6093 37.5964C46.6093 38.4116 47.2749 39.0772 48.0901 39.0772C48.9053 39.0772 49.5709 38.4116 49.5709 37.5964V31.9606H46.6093V37.5964ZM45.1093 37.5964C45.1093 39.2401 46.4465 40.5772 48.0901 40.5772C49.7338 40.5772 51.0709 39.2401 51.0709 37.5964V30.4606H45.1093V37.5964Z" fill="#294563"/>
</g>
</g>
</g>
</svg>
