<?xml version="1.0" encoding="utf-8"?>
<!-- Generator: Adobe Illustrator 24.2.3, SVG Export Plug-In . SVG Version: 6.00 Build 0)  -->
<svg version="1.1" id="Layer_1" xmlns="http://www.w3.org/2000/svg" xmlns:xlink="http://www.w3.org/1999/xlink" x="0px" y="0px"
	 width="32px" height="32px" viewBox="0 0 32 32" enable-background="new 0 0 32 32" xml:space="preserve">
<g>
	<circle id="a_1_" fill-rule="evenodd" clip-rule="evenodd" fill="#294563" cx="16" cy="16" r="15"/>
</g>
<defs>
	<filter id="Adobe_OpacityMaskFilter" filterUnits="userSpaceOnUse" x="8" y="11.2" width="16.6" height="10.5">
		<feColorMatrix  type="matrix" values="1 0 0 0 0  0 1 0 0 0  0 0 1 0 0  0 0 0 1 0"/>
	</filter>
</defs>
<mask maskUnits="userSpaceOnUse" x="8" y="11.2" width="16.6" height="10.5" id="b_1_">
	<g filter="url(#Adobe_OpacityMaskFilter)">
		<circle id="a_2_" fill-rule="evenodd" clip-rule="evenodd" fill="#FFFFFF" cx="16" cy="16" r="15"/>
	</g>
</mask>
<g mask="url(#b_1_)">
	<path fill-rule="evenodd" clip-rule="evenodd" fill="#FFFFFF" d="M24.3,11.5c-0.3-0.3-0.9-0.3-1.2,0l-8.6,8.3l-5.1-4.9
		c-0.3-0.3-0.9-0.3-1.2,0c-0.3,0.3-0.3,0.8,0,1.1c0,0,0,0,0,0l5.7,5.5c0.3,0.3,0.9,0.3,1.2,0l9.2-8.8C24.7,12.4,24.7,11.8,24.3,11.5
		C24.4,11.5,24.4,11.5,24.3,11.5z"/>
</g>
</svg>
