<svg width="40" height="40" viewBox="0 0 40 40" fill="none" xmlns="http://www.w3.org/2000/svg">
<g id="idea 1">
<g id="g2711">
<path id="path2721" opacity="0.3" d="M27.0604 16.4699C27.0604 20.3689 23.8995 23.5298 20.0004 23.5298C16.1013 23.5298 12.9404 20.3689 12.9404 16.4699C12.9404 12.5707 16.1013 9.40994 20.0004 9.40994C23.8995 9.40994 27.0604 12.5707 27.0604 16.4699Z" fill="#F9A95A"/>
<path id="path2725" d="M20 0.781191V2.3501" stroke="#294563" stroke-miterlimit="10" stroke-linecap="round" stroke-linejoin="round"/>
<path id="path2729" d="M8.90625 5.37646L10.0156 6.48584" stroke="#294563" stroke-miterlimit="10" stroke-linecap="round" stroke-linejoin="round"/>
<path id="path2733" d="M4.31152 16.4702H5.88043" stroke="#294563" stroke-miterlimit="10" stroke-linecap="round" stroke-linejoin="round"/>
<path id="path2737" d="M35.689 16.4702H34.1201" stroke="#294563" stroke-miterlimit="10" stroke-linecap="round" stroke-linejoin="round"/>
<path id="path2741" d="M31.0937 5.37646L29.9844 6.48584" stroke="#294563" stroke-miterlimit="10" stroke-linecap="round" stroke-linejoin="round"/>
<path id="path2745" d="M30.9829 16.4702C30.9829 10.3784 26.023 5.44516 19.9214 5.48828C14.0388 5.52985 9.19483 10.2617 9.02334 16.142C8.92873 19.3878 10.2431 22.3277 12.4 24.3962C14.0145 25.9446 14.9019 28.1022 14.9019 30.3392V32.9434H25.0996V30.3393C25.0996 28.0685 26.0463 25.9148 27.6713 24.3286C29.7144 22.3345 30.9829 19.5506 30.9829 16.4702Z" stroke="#294563" stroke-miterlimit="10" stroke-linecap="round" stroke-linejoin="round"/>
<path id="path2747" d="M25.0991 32.9434H14.9014V29.8056H25.0991V32.9434Z" stroke="#294563" stroke-miterlimit="10" stroke-linecap="round" stroke-linejoin="round"/>
<path id="path2749" d="M25.0991 36.0811H14.9014V32.9433H25.0991V36.0811Z" stroke="#294563" stroke-miterlimit="10" stroke-linecap="round" stroke-linejoin="round"/>
<path id="path2753" d="M20.0116 39.2188H19.9893C18.4791 39.2188 17.2549 37.9945 17.2549 36.4844V36.081H22.746V36.4844C22.746 37.9945 21.5218 39.2188 20.0116 39.2188Z" stroke="#294563" stroke-miterlimit="10" stroke-linecap="round" stroke-linejoin="round"/>
<path id="path2757" d="M20 12.5478V17.2544" stroke="#294563" stroke-miterlimit="10" stroke-linecap="round" stroke-linejoin="round"/>
<path id="path2757_2" d="M20 19.5981V19.6567" stroke="#294563" stroke-miterlimit="10" stroke-linecap="round" stroke-linejoin="round"/>
</g>
</g>
</svg>
