<svg width="50" height="50" viewBox="0 0 50 50" fill="none" xmlns="http://www.w3.org/2000/svg">
<g id="computer 1">
<g id="Group">
<path id="Vector" opacity="0.3" d="M38.977 10.5791H31.125V32.3874H38.977V10.5791Z" fill="#37854D"/>
<g id="Group_2">
<path id="Vector (Stroke)" fill-rule="evenodd" clip-rule="evenodd" d="M4.0626 7.11523C2.89754 7.11523 1.95312 8.05965 1.95312 9.22471V39.4565C1.95312 40.6214 2.8975 41.5659 4.0626 41.566C4.06258 41.566 4.06262 41.566 4.0626 41.566H45.9374C47.1025 41.566 48.0469 40.6216 48.0469 39.4565V9.22471C48.0469 8.05965 47.1025 7.11523 45.9374 7.11523H31.2645C30.7252 7.11523 30.288 6.67801 30.288 6.13867C30.288 5.59933 30.7252 5.16211 31.2645 5.16211H45.9374C48.1811 5.16211 50 6.98097 50 9.22471V39.4565C50 41.7003 48.1811 43.5191 45.9374 43.5191H4.0626C1.81894 43.519 0 41.7002 0 39.4565V9.22471C0 6.98097 1.81886 5.16211 4.0626 5.16211H18.7229C19.2623 5.16211 19.6995 5.59933 19.6995 6.13867C19.6995 6.67801 19.2623 7.11523 18.7229 7.11523H4.0626Z" fill="#294563"/>
<path id="Vector (Stroke)_2" fill-rule="evenodd" clip-rule="evenodd" d="M4.41504 10.5693C4.41504 10.03 4.85226 9.59277 5.3916 9.59277H18.7481C19.2875 9.59277 19.7247 10.03 19.7247 10.5693C19.7247 11.1087 19.2875 11.5459 18.7481 11.5459H6.36816V37.1351H43.6322V11.5459H31.2398C30.7005 11.5459 30.2633 11.1087 30.2633 10.5693C30.2633 10.03 30.7005 9.59277 31.2398 9.59277H44.6088C45.1481 9.59277 45.5854 10.03 45.5854 10.5693V38.1116C45.5854 38.651 45.1481 39.0882 44.6088 39.0882H5.3916C4.85226 39.0882 4.41504 38.651 4.41504 38.1116V10.5693Z" fill="#294563"/>
<path id="Vector (Stroke)_3" fill-rule="evenodd" clip-rule="evenodd" d="M13.5166 42.5425C13.5166 42.0031 13.9538 41.5659 14.4932 41.5659H35.5074C36.0468 41.5659 36.484 42.0031 36.484 42.5425V47.5128C36.484 48.0521 36.0468 48.4894 35.5074 48.4894H14.4932C13.9538 48.4894 13.5166 48.0521 13.5166 47.5128V42.5425ZM15.4697 43.519V46.5362H34.5309V43.519H15.4697Z" fill="#294563"/>
<path id="Vector (Stroke)_4" fill-rule="evenodd" clip-rule="evenodd" d="M9.04785 47.5127C9.04785 46.9734 9.48507 46.5361 10.0244 46.5361H39.9758C40.5151 46.5361 40.9523 46.9734 40.9523 47.5127C40.9523 48.052 40.5151 48.4893 39.9758 48.4893H10.0244C9.48507 48.4893 9.04785 48.052 9.04785 47.5127Z" fill="#294563"/>
</g>
<path id="Vector_2" opacity="0.3" d="M18.8753 32.3877H11.0234V17.4695L18.8753 13.8154V32.3877Z" fill="#37854D"/>
<path id="Vector_3" opacity="0.3" d="M27.0882 25.4395H22.9121V32.3874H27.0882V25.4395Z" fill="#37854D"/>
<path id="Vector (Stroke)_5" fill-rule="evenodd" clip-rule="evenodd" d="M17.8984 2.4873C17.8984 1.94796 18.3357 1.51074 18.875 1.51074H31.1241C31.6635 1.51074 32.1007 1.94796 32.1007 2.4873V32.3876C32.1007 32.9269 31.6635 33.3642 31.1241 33.3642H18.875C18.3357 33.3642 17.8984 32.9269 17.8984 32.3876V2.4873ZM19.8516 3.46387V31.411H30.1476V3.46387H19.8516Z" fill="#294563"/>
<path id="Vector (Stroke)_6" fill-rule="evenodd" clip-rule="evenodd" d="M22.0186 16.3408C22.0186 15.8015 22.4558 15.3643 22.9951 15.3643H27.0877C27.627 15.3643 28.0643 15.8015 28.0643 16.3408C28.0643 16.8802 27.627 17.3174 27.0877 17.3174H22.9951C22.4558 17.3174 22.0186 16.8802 22.0186 16.3408Z" fill="#294563"/>
<path id="Vector (Stroke)_7" fill-rule="evenodd" clip-rule="evenodd" d="M22.0186 11.6865C22.0186 11.1472 22.4558 10.71 22.9951 10.71H27.0877C27.627 10.71 28.0643 11.1472 28.0643 11.6865C28.0643 12.2259 27.627 12.6631 27.0877 12.6631H22.9951C22.4558 12.6631 22.0186 12.2259 22.0186 11.6865Z" fill="#294563"/>
<path id="Vector (Stroke)_8" fill-rule="evenodd" clip-rule="evenodd" d="M22.0186 7.03223C22.0186 6.49289 22.4558 6.05566 22.9951 6.05566H27.0877C27.627 6.05566 28.0643 6.49289 28.0643 7.03223C28.0643 7.57157 27.627 8.00879 27.0877 8.00879H22.9951C22.4558 8.00879 22.0186 7.57157 22.0186 7.03223Z" fill="#294563"/>
<path id="Vector (Stroke)_9" fill-rule="evenodd" clip-rule="evenodd" d="M8.86426 32.3877C8.86426 31.8484 9.30148 31.4111 9.84082 31.4111H40.16C40.6993 31.4111 41.1365 31.8484 41.1365 32.3877C41.1365 32.927 40.6993 33.3643 40.16 33.3643H9.84082C9.30148 33.3643 8.86426 32.927 8.86426 32.3877Z" fill="#294563"/>
<path id="Vector (Stroke)_10" fill-rule="evenodd" clip-rule="evenodd" d="M22.0186 20.9951C22.0186 20.4558 22.4558 20.0186 22.9951 20.0186H27.0877C27.627 20.0186 28.0643 20.4558 28.0643 20.9951C28.0643 21.5345 27.627 21.9717 27.0877 21.9717H22.9951C22.4558 21.9717 22.0186 21.5345 22.0186 20.9951Z" fill="#294563"/>
</g>
</g>
</svg>
