<svg width="50" height="50" viewBox="0 0 50 50" fill="none" xmlns="http://www.w3.org/2000/svg">
<g id="settings 1" clip-path="url(#clip0_198_8966)">
<g id="Group">
<g id="Group_2">
<path id="Vector" d="M42.6757 7.51914H47.0703C48.1445 7.51914 49.0234 8.39824 49.0234 9.47226V38.7691C49.0234 39.8433 48.1445 40.7222 47.0703 40.7222H2.92968C1.85547 40.7222 0.976562 39.8434 0.976562 38.7691V9.47216C0.976562 8.39795 1.85547 7.51904 2.92968 7.51904H27.0509" stroke="#294563" stroke-width="1.8" stroke-miterlimit="22.9256" stroke-linecap="round" stroke-linejoin="round"/>
<path id="Vector_2" d="M17.1875 48.5347H32.8125" stroke="#294563" stroke-width="1.8" stroke-miterlimit="22.9256" stroke-linecap="round" stroke-linejoin="round"/>
<path id="Vector_3" d="M19.1484 48.5069L20.2502 40.7505" stroke="#294563" stroke-width="1.8" stroke-miterlimit="22.9256" stroke-linecap="round" stroke-linejoin="round"/>
<path id="Vector_4" d="M30.8518 48.5069L29.75 40.7505" stroke="#294563" stroke-width="1.8" stroke-miterlimit="22.9256" stroke-linecap="round" stroke-linejoin="round"/>
<path id="Vector_5" d="M1.46484 36.3276H48.5351" stroke="#294563" stroke-width="1.8" stroke-miterlimit="22.9256" stroke-linecap="round" stroke-linejoin="round"/>
<path id="Vector_6" fill-rule="evenodd" clip-rule="evenodd" d="M8.27637 31.5264H18.286C19.4945 31.5264 20.4833 30.5376 20.4833 29.3291C20.4833 28.1206 19.4945 27.1318 18.286 27.1318H8.27637C7.06787 27.1318 6.0791 28.1206 6.0791 29.3291C6.0791 30.5376 7.06787 31.5264 8.27637 31.5264Z" stroke="#294563" stroke-width="1.8" stroke-miterlimit="22.9256" stroke-linecap="round" stroke-linejoin="round"/>
<path id="Vector_7" d="M8.31445 31.5258C9.51289 31.5049 10.4734 30.5273 10.4734 29.3288C10.4734 28.1303 9.51289 27.1527 8.31445 27.1318" stroke="#294563" stroke-width="1.8" stroke-miterlimit="22.9256" stroke-linecap="round" stroke-linejoin="round"/>
<path id="Vector_8" d="M6.0791 22.7368H13.2813" stroke="#294563" stroke-width="1.8" stroke-miterlimit="22.9256" stroke-linecap="round" stroke-linejoin="round"/>
<path id="Vector_9" d="M6.0791 17.8203H20.4834" stroke="#294563" stroke-width="1.8" stroke-miterlimit="22.9256" stroke-linecap="round" stroke-linejoin="round"/>
<path id="Vector_10" d="M6.0791 12.9033H20.4834" stroke="#294563" stroke-width="1.8" stroke-miterlimit="22.9256" stroke-linecap="round" stroke-linejoin="round"/>
</g>
<path id="Vector_11" opacity="0.3" d="M44.1406 0.488281H25.5859V31.5263H44.1406V0.488281Z" fill="#33B2C7"/>
<g id="Group_3">
<path id="Vector_12" d="M29.9805 6.6958H39.7461" stroke="#294563" stroke-width="1.8" stroke-miterlimit="22.9256" stroke-linecap="round" stroke-linejoin="round"/>
<path id="Vector_13" d="M29.9805 12.9033H39.7461" stroke="#294563" stroke-width="1.8" stroke-miterlimit="22.9256" stroke-linecap="round" stroke-linejoin="round"/>
<path id="Vector_14" d="M29.9805 19.1108H39.7461" stroke="#294563" stroke-width="1.8" stroke-miterlimit="22.9256" stroke-linecap="round" stroke-linejoin="round"/>
<path id="Vector_15" d="M29.9805 25.3184H39.7461" stroke="#294563" stroke-width="1.8" stroke-miterlimit="22.9256" stroke-linecap="round" stroke-linejoin="round"/>
<path id="Vector_16" d="M32.9102 5.71924V7.67236" stroke="#294563" stroke-width="1.8" stroke-miterlimit="22.9256" stroke-linecap="round" stroke-linejoin="round"/>
<path id="Vector_17" d="M38.7695 11.9268V13.8799" stroke="#294563" stroke-width="1.8" stroke-miterlimit="22.9256" stroke-linecap="round" stroke-linejoin="round"/>
<path id="Vector_18" d="M34.8633 18.1343V20.0874" stroke="#294563" stroke-width="1.8" stroke-miterlimit="22.9256" stroke-linecap="round" stroke-linejoin="round"/>
<path id="Vector_19" d="M30.957 24.3418V26.2949" stroke="#294563" stroke-width="1.8" stroke-miterlimit="22.9256" stroke-linecap="round" stroke-linejoin="round"/>
</g>
</g>
</g>
<defs>
<clipPath id="clip0_198_8966">
<rect width="50" height="50" fill="white"/>
</clipPath>
</defs>
</svg>
