<svg width="15" height="15" viewBox="0 0 15 15" fill="none" xmlns="http://www.w3.org/2000/svg">
<path opacity="0.6" fill-rule="evenodd" clip-rule="evenodd" d="M2.21235 5.14203C3.31408 4.0403 5.03933 2.92969 7.5 2.92969C9.96067 2.92969 11.6859 4.0403 12.7877 5.14203C13.3375 5.69189 13.7341 6.24113 13.9938 6.6535C14.1238 6.85996 14.2199 7.03292 14.2842 7.1556C14.3163 7.21696 14.3406 7.26583 14.3571 7.30011C14.3653 7.31725 14.3716 7.33075 14.3761 7.34036L14.3813 7.35181L14.3829 7.35528L14.3834 7.35644L14.3836 7.35688C14.3837 7.35706 14.3838 7.35722 14.0625 7.5C14.3838 7.64278 14.3837 7.64294 14.3836 7.64312L14.3834 7.64356L14.3829 7.64472L14.3813 7.64819L14.3761 7.65964C14.3716 7.66925 14.3653 7.68275 14.3571 7.69989C14.3406 7.73417 14.3163 7.78304 14.2842 7.8444C14.2199 7.96708 14.1238 8.14004 13.9938 8.3465C13.7341 8.75887 13.3375 9.30811 12.7877 9.85797C11.6859 10.9597 9.96067 12.0703 7.5 12.0703C5.03933 12.0703 3.31408 10.9597 2.21235 9.85797C1.66249 9.30811 1.26585 8.75887 1.00621 8.3465C0.876213 8.14004 0.780059 7.96708 0.715797 7.8444C0.683652 7.78304 0.659448 7.73417 0.642943 7.69989C0.63469 7.68275 0.628358 7.66925 0.623918 7.65964L0.618672 7.64819L0.617105 7.64472L0.616584 7.64356L0.616389 7.64312C0.61631 7.64294 0.616238 7.64278 0.9375 7.5C0.616238 7.35722 0.61631 7.35706 0.616389 7.35688L0.616584 7.35644L0.617105 7.35528L0.618672 7.35181L0.623918 7.34036C0.628358 7.33075 0.63469 7.31725 0.642943 7.30011C0.659448 7.26583 0.683652 7.21696 0.715797 7.1556C0.780059 7.03292 0.876213 6.85996 1.00621 6.6535C1.26585 6.24113 1.66249 5.69189 2.21235 5.14203ZM0.9375 7.5L0.616238 7.35722C0.575837 7.44812 0.575837 7.55188 0.616238 7.64278L0.9375 7.5ZM1.32919 7.5C1.33224 7.50588 1.33539 7.51194 1.33865 7.51815C1.39523 7.62618 1.48219 7.78282 1.60121 7.97186C1.83962 8.3505 2.20469 8.85595 2.70953 9.36078C3.71717 10.3684 5.27317 11.3672 7.5 11.3672C9.72683 11.3672 11.2828 10.3684 12.2905 9.36078C12.7953 8.85595 13.1604 8.3505 13.3988 7.97186C13.5178 7.78282 13.6048 7.62618 13.6614 7.51815C13.6646 7.51194 13.6678 7.50588 13.6708 7.5C13.6678 7.49411 13.6646 7.48806 13.6614 7.48185C13.6048 7.37382 13.5178 7.21719 13.3988 7.02814C13.1604 6.6495 12.7953 6.14405 12.2905 5.63922C11.2828 4.63158 9.72683 3.63281 7.5 3.63281C5.27317 3.63281 3.71717 4.63158 2.70953 5.63922C2.20469 6.14405 1.83962 6.6495 1.60121 7.02814C1.48219 7.21719 1.39523 7.37382 1.33865 7.48185C1.33539 7.48806 1.33224 7.49411 1.32919 7.5ZM14.0625 7.5L14.3838 7.64278C14.4242 7.55188 14.4242 7.44812 14.3838 7.35722L14.0625 7.5ZM13.7414 7.64319C13.7414 7.64324 13.7414 7.64324 13.7414 7.64317L13.7414 7.64319Z" fill="#284664"/>
<path fill-rule="evenodd" clip-rule="evenodd" d="M7.5 5.50781C6.39975 5.50781 5.50781 6.39975 5.50781 7.5C5.50781 8.60025 6.39975 9.49219 7.5 9.49219C8.60025 9.49219 9.49219 8.60025 9.49219 7.5C9.49219 6.39975 8.60025 5.50781 7.5 5.50781ZM4.80469 7.5C4.80469 6.01142 6.01142 4.80469 7.5 4.80469C8.98858 4.80469 10.1953 6.01142 10.1953 7.5C10.1953 8.98858 8.98858 10.1953 7.5 10.1953C6.01142 10.1953 4.80469 8.98858 4.80469 7.5Z" fill="#284664"/>
</svg>
