<?xml version="1.0" encoding="utf-8"?>
<!-- Generator: Adobe Illustrator 24.1.0, SVG Export Plug-In . SVG Version: 6.00 Build 0)  -->
<svg version="1.1" id="Layer_1" xmlns="http://www.w3.org/2000/svg" xmlns:xlink="http://www.w3.org/1999/xlink" x="0px" y="0px"
	 viewBox="0 0 16 16" style="enable-background:new 0 0 16 16;" xml:space="preserve">
<style type="text/css">
	.st0{filter:url(#Adobe_OpacityMaskFilter);}
	.st1{fill-rule:evenodd;clip-rule:evenodd;fill:#FFFFFF;}
	.st2{mask:url(#mask-2_1_);}
	.st3{fill-rule:evenodd;clip-rule:evenodd;fill:#327846;}
</style>
<desc>Created with Sketch.</desc>
<g id="画板">
	<g id="Icn_x2F_How-to-Answer" transform="translate(-1.000000, -1.000000)">
		<defs>
			<filter id="Adobe_OpacityMaskFilter" filterUnits="userSpaceOnUse" x="-3.9" y="-3.2" width="25.7" height="25.7">
				<feColorMatrix  type="matrix" values="1 0 0 0 0  0 1 0 0 0  0 0 1 0 0  0 0 0 1 0"/>
			</filter>
		</defs>
		<mask maskUnits="userSpaceOnUse" x="-3.9" y="-3.2" width="25.7" height="25.7" id="mask-2_1_">
			<g class="st0">
				<path id="path-1_2_" class="st1" d="M15.7,5.6c0.2,0,0.4,0.2,0.4,0.4l0,0v9.7c0,0.2-0.2,0.4-0.4,0.4l0,0H6
					c-0.2,0-0.4-0.2-0.4-0.4l0,0V6c0-0.2,0.2-0.4,0.4-0.4l0,0H15.7z M10.5,7.2l-2.8,7.3c0,0.1,0,0.2,0.1,0.3c0.1,0,0.2,0,0.3-0.1
					l1-2.6h3.2l1,2.6c0,0.1,0.2,0.2,0.3,0.1c0.1,0,0.2-0.2,0.1-0.3l-1.1-2.8l0,0c0,0,0-0.1-0.1-0.1l-1.7-4.4C10.9,7,10.6,7,10.5,7.2
					z M12,1.9c0.2,0,0.4,0.2,0.4,0.4l0,0v1.8c0,0.2-0.2,0.4-0.4,0.4c-0.2,0-0.4-0.2-0.4-0.4l0,0V2.6H2.6v9.1h1.5
					c0.2,0,0.4,0.2,0.4,0.4c0,0.2-0.2,0.4-0.4,0.4l0,0H2.3c-0.2,0-0.4-0.2-0.4-0.4l0,0V2.3c0-0.2,0.2-0.4,0.4-0.4l0,0H12z M10.7,7.8
					l1.4,3.6H9.3L10.7,7.8z"/>
			</g>
		</mask>
		<g id="Color_x2F_-Listening_x2F_-Main" class="st2">
			<g id="Rectangle-3" transform="translate(-3.857143, -3.214286)">
				<rect x="0" y="0" class="st3" width="25.7" height="25.7"/>
			</g>
		</g>
	</g>
</g>
</svg>
