<?xml version="1.0" encoding="UTF-8"?>
<svg width="17px" height="17px" viewBox="0 0 17 17" version="1.1" xmlns="http://www.w3.org/2000/svg" xmlns:xlink="http://www.w3.org/1999/xlink">
    <!-- Generator: Sketch 52.2 (67145) - http://www.bohemiancoding.com/sketch -->
    <title>verification@2x</title>
    <desc>Created with Sketch.</desc>
    <g id="1200px-SOT-1.0" stroke="none" stroke-width="1" fill="none" fill-rule="evenodd">
        <g id="2.0---Product-Variation" transform="translate(-1317.000000, -608.000000)" fill="#FAAA5A">
            <g id="Product" transform="translate(389.000000, 495.000000)">
                <g id="Product-1">
                    <g id="verification" transform="translate(928.000000, 113.000000)">
                        <path d="M9.83581208,7.1202047 C8.9542651,6.23820134 8.46639933,5.06788255 8.45904027,3.82214765 L4.5540604,3.82214765 L3.94183221,1.19011409 L0.625063758,0.051057047 L0.0135771812,1.83149329 L2.34440268,2.63197651 L4.00207383,9.7589698 L4.56929195,12.2651007 L14.4384195,12.2651007 L15.4216812,7.92120134 C14.7508087,8.28949664 13.9811879,8.49948658 13.1631913,8.49948658 C11.9061611,8.49908725 10.7244329,8.00928188 9.83581208,7.1202047 Z" id="Path"></path>
                        <circle id="Oval" cx="6.45184228" cy="15.1174497" r="1.85402685"></circle>
                        <circle id="Oval" cx="12.5558691" cy="15.1174497" r="1.85402685"></circle>
                        <path d="M13.1634765,7.58724832 C13.1638758,7.58724832 13.1642181,7.58724832 13.1646174,7.58724832 C15.2592114,7.58724832 16.9573289,5.88924497 16.9579564,3.79465101 C16.9584698,1.69965772 15.2605805,0 13.1655302,0 C13.1655302,0 13.1648456,0 13.1644463,0 C11.0698523,0 9.37167785,1.69800336 9.37110738,3.79259732 C9.37042282,5.8875906 11.0683691,7.58724832 13.1634765,7.58724832 Z M11.9222483,3.47062416 L12.6428087,4.19124161 L14.4068154,2.4272349 L15.052245,3.07266443 L12.6428087,5.48198658 L11.2767617,4.1159396 L11.9222483,3.47062416 Z" id="Shape" fill-rule="nonzero"></path>
                    </g>
                </g>
            </g>
        </g>
    </g>
</svg>