<?xml version="1.0" encoding="UTF-8"?>
<svg width="15px" height="15px" viewBox="0 0 15 15" version="1.1" xmlns="http://www.w3.org/2000/svg" xmlns:xlink="http://www.w3.org/1999/xlink">
    <!-- Generator: Sketch 53 (72520) - https://sketchapp.com -->
    <title>Icn_Select</title>
    <desc>Created with Sketch.</desc>
    <g id="Icn_Select" stroke="none" stroke-width="1" fill="none" fill-rule="evenodd">
        <path d="M12.142868,9.99999523 C12.142868,10.1517811 12.080368,10.2946384 11.973225,10.4017814 L7.97322021,14.4017862 C7.86607723,14.5089292 7.72321992,14.5714293 7.57143402,14.5714293 C7.41964813,14.5714293 7.27679081,14.5089292 7.16964783,14.4017862 L3.16964306,10.4017814 C3.06250007,10.2946384 3,10.1517811 3,9.99999523 C3,9.68749486 3.25892888,9.42856598 3.57142925,9.42856598 L11.5714388,9.42856598 C11.8839392,9.42856598 12.142868,9.68749486 12.142868,9.99999523 Z M12.142868,6.57141972 C12.142868,6.88392009 11.8839392,7.14284897 11.5714388,7.14284897 L3.57142925,7.14284897 C3.25892888,7.14284897 3,6.88392009 3,6.57141972 C3,6.41963382 3.06250007,6.27677651 3.16964306,6.16963352 L7.16964783,2.16962875 C7.27679081,2.06248577 7.41964813,1.99998569 7.57143402,1.99998569 C7.72321992,1.99998569 7.86607723,2.06248577 7.97322021,2.16962875 L11.973225,6.16963352 C12.080368,6.27677651 12.142868,6.41963382 12.142868,6.57141972 Z" id="" fill="#888888" fill-rule="nonzero"></path>
    </g>
</svg>