<?xml version="1.0" standalone="no"?>
<!DOCTYPE svg PUBLIC "-//W3C//DTD SVG 1.1//EN" "http://www.w3.org/Graphics/SVG/1.1/DTD/svg11.dtd" >
<svg xmlns="http://www.w3.org/2000/svg">
<metadata>Generated by IcoMoon</metadata>
<defs>
<font id="iot-fonts" horiz-adv-x="1024">
<font-face units-per-em="1024" ascent="960" descent="-64" />
<missing-glyph horiz-adv-x="1024" />
<glyph unicode="&#x20;" horiz-adv-x="512" d="" />
<glyph unicode="&#xe900;" glyph-name="activity" d="M384 874.667c18.365 0 34.67-11.752 40.477-29.174l215.523-646.568 87.522 262.566c5.807 17.425 22.114 29.175 40.478 29.175h170.667c23.565 0 42.667-19.102 42.667-42.667s-19.102-42.667-42.667-42.667h-139.913l-118.276-354.825c-5.807-17.425-22.114-29.175-40.478-29.175s-34.671 11.75-40.478 29.175l-215.522 646.567-87.523-262.567c-5.807-17.425-22.112-29.175-40.477-29.175h-170.667c-23.564 0-42.667 19.102-42.667 42.667s19.103 42.667 42.667 42.667h139.914l118.275 354.826c5.807 17.423 22.112 29.174 40.477 29.174z" />
<glyph unicode="&#xe901;" glyph-name="airplay" d="M170.667 789.333c-11.316 0-22.168-4.495-30.17-12.497s-12.497-18.854-12.497-30.17v-426.667c0-11.315 4.495-22.17 12.497-30.17s18.854-12.497 30.17-12.497h42.667c23.564 0 42.667-19.102 42.667-42.667s-19.103-42.667-42.667-42.667h-42.667c-33.948 0-66.505 13.487-90.51 37.491s-37.49 56.563-37.49 90.509v426.667c0 33.948 13.486 66.505 37.49 90.51s56.562 37.49 90.51 37.49h682.667c33.95 0 66.505-13.486 90.509-37.49s37.491-56.562 37.491-90.51v-426.667c0-33.95-13.487-66.505-37.491-90.509s-56.559-37.491-90.509-37.491h-42.667c-23.565 0-42.667 19.102-42.667 42.667s19.102 42.667 42.667 42.667h42.667c11.315 0 22.17 4.497 30.17 12.497s12.497 18.854 12.497 30.17v426.667c0 11.316-4.497 22.168-12.497 30.17s-18.854 12.497-30.17 12.497h-682.667zM512 362.667c12.663 0 24.67-5.623 32.777-15.351l213.333-256c10.598-12.719 12.885-30.421 5.862-45.414-7.023-14.989-22.084-24.567-38.639-24.567h-426.666c-16.556 0-31.616 9.579-38.639 24.567-7.022 14.993-4.737 32.695 5.861 45.414l213.334 256c8.107 9.728 20.113 15.351 32.777 15.351zM389.762 106.667h244.478l-122.24 146.688-122.238-146.688z" />
<glyph unicode="&#xe902;" glyph-name="alert-circle" d="M512-21.333c-260.267 0-469.333 209.067-469.333 469.333s209.067 469.333 469.333 469.333c260.267 0 469.333-209.067 469.333-469.333s-209.067-469.333-469.333-469.333zM512 832c-213.333 0-384-170.667-384-384s170.667-384 384-384c213.333 0 384 170.667 384 384s-170.667 384-384 384zM512 405.333c-25.6 0-42.667 17.067-42.667 42.667v170.667c0 25.6 17.067 42.667 42.667 42.667s42.667-17.067 42.667-42.667v-170.667c0-25.6-17.067-42.667-42.667-42.667zM512 234.667c-12.8 0-21.333 4.267-29.867 12.8s-12.8 17.067-12.8 29.867c0 4.267 0 12.8 4.267 17.067s4.267 8.533 8.533 12.8c12.8 12.8 29.867 17.067 46.933 8.533 4.267 0 4.267 0 8.533-4.267 0 0 4.267-4.267 8.533-4.267 4.267-4.267 8.533-8.533 8.533-12.8s0-12.8 0-17.067c0-4.267 0-12.8-4.267-17.067s-4.267-8.533-8.533-12.8c-8.533-8.533-17.067-12.8-29.867-12.8z" />
<glyph unicode="&#xe903;" glyph-name="chevron-right" d="M367.030 720.971c9.373 9.372 24.566 9.372 33.939 0l256-256.001c9.373-9.373 9.373-24.566 0-33.939l-256-256c-9.373-9.373-24.566-9.373-33.939 0s-9.373 24.566 0 33.939l239.027 239.030-239.027 239.029c-9.373 9.372-9.373 24.569 0 33.941z" />
<glyph unicode="&#xe904;" glyph-name="alert-triangle" d="M565.181 808.729c-23.578 40.987-82.739 41.011-106.365-0.014l-343.158-596.801c-23.495-40.886 6.021-91.914 53.175-91.914h686.335c47.12 0 76.662 51.030 53.181 91.907zM908.349 211.907l-343.168 596.822c-0.003 0.001 0-0.001 0 0zM417.219 832.67c42.080 73.065 147.526 73.090 189.571-0.012l343.168-596.825c41.875-72.87-10.752-163.834-94.79-163.834h-686.335c-84.089 0-136.663 90.966-94.793 163.83l343.179 596.84zM512 632c13.258 0 24-10.746 24-24v-170.669c0-13.254-10.742-24-24-24-13.254 0-24 10.746-24 24v170.669c0 13.254 10.746 24 24 24zM528.573 284.467c9.805-8.915 10.528-24.096 1.613-33.904l-0.429-0.467c-8.915-9.808-24.093-10.531-33.901-1.616-9.808 8.918-10.531 24.096-1.613 33.904l0.426 0.47c8.915 9.808 24.096 10.528 33.904 1.613z" />
<glyph unicode="&#xe905;" glyph-name="listening" horiz-adv-x="1067" d="M371.2 823.467c51.2 21.333 102.4 29.867 157.867 29.867s106.667-8.533 157.867-29.867 93.867-51.2 132.267-89.6c38.4-38.4 68.267-81.067 89.6-132.267 17.067-46.933 29.867-98.133 29.867-153.6v-213.333h-46.933v213.333c0 46.933-8.533 93.867-25.6 136.533s-42.667 85.333-76.8 115.2c-34.133 34.133-72.533 59.733-115.2 76.8s-89.6 25.6-136.533 25.6-93.867-8.533-136.533-25.6c-42.667-17.067-85.333-42.667-115.2-76.8-46.933-29.867-72.533-68.267-89.6-115.2-17.067-42.667-25.6-89.6-25.6-136.533v-213.333h-51.2v213.333c0 55.467 8.533 106.667 29.867 157.867s51.2 93.867 89.6 132.267 85.333 68.267 132.267 85.333zM102.4 324.267c12.8 0 25.6-12.8 25.6-25.6v-85.333c0-12.8-12.8-25.6-25.6-25.6s-25.6 12.8-25.6 25.6v85.333c0 12.8 12.8 25.6 25.6 25.6zM955.733 324.267c12.8 0 25.6-12.8 25.6-25.6v-85.333c0-12.8-12.8-25.6-25.6-25.6s-25.6 12.8-25.6 25.6v85.333c0 12.8 12.8 25.6 25.6 25.6zM315.733 473.6c12.8 0 21.333 0 34.133-8.533v0c8.533-4.267 17.067-12.8 21.333-21.333 8.533-8.533 8.533-21.333 8.533-34.133s0-25.6 0-38.4v-221.867c0-17.067 0-34.133 0-46.933s-4.267-25.6-12.8-38.4c-4.267-8.533-12.8-12.8-21.333-17.067v0c-12.8-8.533-25.6-8.533-38.4-8.533s-25.6 4.267-42.667 8.533v0 0c-25.6 4.267-46.933 8.533-64 12.8s-29.867 12.8-42.667 21.333c-8.533 8.533-17.067 17.067-21.333 25.6v0c-8.533 12.8-12.8 29.867-12.8 46.933s0 38.4 0 64v68.267c0 25.6 0 46.933 0 64s4.267 34.133 12.8 46.933c8.533 12.8 17.067 25.6 29.867 34.133v0c12.8 8.533 29.867 17.067 46.933 17.067 17.067 4.267 38.4 4.267 64 8.533v0c12.8 12.8 25.6 17.067 38.4 17.067zM315.733 422.4c-8.533 0-17.067 0-34.133-4.267-25.6-4.267-46.933-4.267-59.733-8.533s-21.333-4.267-25.6-8.533c-8.533-4.267-12.8-12.8-17.067-21.333-4.267 0-8.533-8.533-8.533-25.6s0-34.133 0-64v-68.267c0-25.6 0-46.933 0-59.733s4.267-21.333 8.533-29.867c4.267-4.267 8.533-12.8 12.8-17.067 4.267 0 8.533-4.267 21.333-8.533s29.867-8.533 59.733-12.8c17.067-4.267 29.867-4.267 38.4-8.533 8.533 0 12.8 0 12.8 0 4.267 0 4.267 4.267 4.267 4.267s4.267 4.267 4.267 12.8c0 8.533 0 21.333 0 42.667v221.867c0 17.067 0 25.6 0 34.133s0 8.533-4.267 12.8v0c0 4.267-4.267 4.267-8.533 4.267 4.267 4.267 0 4.267-4.267 4.267zM780.8 469.333v0c25.6-4.267 46.933-4.267 64-8.533s34.133-8.533 46.933-17.067v0c12.8-8.533 21.333-21.333 29.867-34.133s12.8-29.867 12.8-46.933c0-17.067 0-38.4 0-64v-68.267c0-25.6 0-46.933 0-64s-4.267-34.133-12.8-46.933v0c-4.267-8.533-12.8-17.067-21.333-25.6-12.8-12.8-25.6-17.067-42.667-21.333s-38.4-8.533-64-12.8v0 0c-17.067-4.267-29.867-4.267-42.667-8.533-12.8 0-25.6 0-38.4 8.533v0c-8.533 4.267-12.8 8.533-21.333 17.067-8.533 12.8-12.8 25.6-12.8 38.4s0 29.867 0 46.933v221.867c0 17.067 0 29.867 0 38.4 0 12.8 4.267 21.333 8.533 34.133 4.267 8.533 12.8 17.067 21.333 21.333v0c12.8 4.267 21.333 8.533 34.133 8.533 12.8-12.8 25.6-17.067 38.4-17.067zM733.867 422.4c-4.267 0-4.267-4.267-8.533-4.267v0c0 0 0-4.267-4.267-12.8 0-8.533 0-17.067 0-34.133v-221.867c0-21.333 0-34.133 0-42.667s4.267-12.8 4.267-12.8c0 0 4.267-4.267 4.267-4.267s4.267 0 12.8 0c8.533 0 21.333 4.267 38.4 8.533 25.6 4.267 42.667 8.533 59.733 12.8 12.8 4.267 21.333 8.533 25.6 12.8s8.533 8.533 12.8 17.067c4.267 4.267 4.267 12.8 8.533 29.867 0 12.8 0 34.133 0 59.733v68.267c0 29.867 0 46.933 0 64 0 12.8-4.267 21.333-8.533 29.867s-8.533 12.8-17.067 21.333c-4.267 4.267-12.8 8.533-25.6 8.533-12.8 4.267-34.133 4.267-59.733 8.533-17.067 0-25.6 4.267-34.133 4.267-4.267-12.8-8.533-12.8-8.533-12.8z" />
<glyph unicode="&#xe906;" glyph-name="video-screen" d="M727.040 38.4h-430.080c-15.36 0-25.6 10.24-25.6 25.6s15.36 25.6 25.6 25.6h424.96c15.36 0 25.6-10.24 25.6-25.6s-10.24-25.6-20.48-25.6zM911.36 207.36h-798.72c-15.36 0-25.6 5.12-35.84 15.36s-15.36 20.48-15.36 35.84v547.84c0 15.36 5.12 25.6 15.36 35.84s20.48 15.36 35.84 15.36h803.84c15.36 0 25.6-5.12 35.84-15.36s15.36-20.48 15.36-35.84v-547.84c0-15.36-5.12-25.6-15.36-35.84s-25.6-15.36-40.96-15.36zM112.64 806.4v-547.84h803.84v547.84h-803.84zM435.2 381.44c-10.24 0-15.36 0-25.6 5.12-5.12 5.12-10.24 10.24-15.36 15.36s-5.12 15.36-5.12 20.48v256c0 10.24 0 15.36 5.12 20.48 5.12 10.24 10.24 15.36 15.36 20.48 15.36 10.24 30.72 10.24 46.080 0 0 0 0 0 0 0l220.16-128c5.12-5.12 15.36-10.24 15.36-15.36 5.12-5.12 5.12-15.36 5.12-25.6s0-15.36-5.12-25.6c-5.12-5.12-10.24-15.36-15.36-15.36l-220.16-128c-5.12 0-10.24 0-20.48 0zM435.2 683.52v0l-5.12-256c0 0 5.12-5.12 5.12-5.12l225.28 128v5.12l5.12 20.48-10.24-15.36-220.16 122.88c0 0 0 0 0 0z" />
<glyph unicode="&#xe907;" glyph-name="reading" horiz-adv-x="1067" d="M149.333 255.846c0-22.515 7.856-44.57 22.519-61.21 14.74-16.73 35.355-26.743 57.519-26.743h34.219v42.752h-34.219c-8.952 0-18.179 4.015-25.441 12.254-7.339 8.333-11.844 20.147-11.844 32.947v388.357c0 12.8 4.505 24.615 11.844 32.945 7.262 8.242 16.489 12.255 25.441 12.255h34.219v42.753h-34.219c-22.163 0-42.778-10.016-57.519-26.744-14.663-16.642-22.519-38.694-22.519-61.209v-388.357zM947.874 255.846c0-22.515-7.855-44.57-22.519-61.21-14.737-16.73-35.354-26.743-57.519-26.743h-34.219v42.752h34.219c8.956 0 18.18 4.015 25.442 12.254 7.339 8.333 11.844 20.147 11.844 32.947v388.357c0 12.8-4.506 24.615-11.844 32.945-7.262 8.242-16.486 12.255-25.442 12.255h-34.219v42.753h34.219c22.165 0 42.782-10.016 57.519-26.744 14.665-16.642 22.519-38.694 22.519-61.209v-388.357zM421.5 532.646c0 11.804 9.57 21.374 21.376 21.374h228.015c11.806 0 21.376-9.571 21.376-21.374 0-11.806-9.57-21.38-21.376-21.38h-228.015c-11.806 0-21.376 9.574-21.376 21.38zM421.5 418.633c0 11.806 9.57 21.376 21.376 21.376h228.015c11.806 0 21.376-9.57 21.376-21.376s-9.57-21.376-21.376-21.376h-228.015c-11.806 0-21.376 9.57-21.376 21.376zM421.5 304.627c0 11.806 9.57 21.376 21.376 21.376h228.015c11.806 0 21.376-9.57 21.376-21.376s-9.57-21.376-21.376-21.376h-228.015c-11.806 0-21.376 9.57-21.376 21.376zM243.375 422.135v327.678c0 31.934 10.448 63.194 29.942 86.786 19.591 23.708 47.134 38.068 76.94 38.068h399.029c29.807 0 57.348-14.359 76.941-38.068 19.494-23.591 29.939-54.852 29.939-86.786v-603.629c0-31.932-10.445-63.194-29.939-86.784-19.593-23.71-47.134-38.067-76.941-38.067h-399.029c-29.806 0-57.35 14.357-76.94 38.067-19.494 23.59-29.942 54.852-29.942 86.784v275.951zM813.414 422.135v327.678c0 22.954-7.569 44.333-20.147 59.552-12.48 15.103-28.433 22.548-43.981 22.548h-399.029c-15.549 0-31.503-7.445-43.983-22.548-12.576-15.22-20.146-36.599-20.146-59.552v-603.629c0-22.95 7.57-44.331 20.146-59.55 12.48-15.104 28.434-22.549 43.983-22.549h399.029c15.548 0 31.501 7.445 43.981 22.549 12.578 15.219 20.147 36.599 20.147 59.55v275.951z" />
<glyph unicode="&#xe908;" glyph-name="people-gr-active" d="M280.964 413.872c0.105-2.096-0.218-4.192-0.948-6.157-0.73-1.968-1.853-3.766-3.3-5.286-1.447-1.517-3.188-2.726-5.117-3.552s-4.006-1.251-6.104-1.248h-170.619c-6.983-0.010-13.764 2.342-19.24 6.675-5.476 4.33-9.326 10.387-10.924 17.187-0.995 4.65-0.948 9.466 0.134 14.099s3.176 8.97 6.131 12.698c27.295 36.198 63.51 64.698 105.109 82.72-18.264 16.65-32.271 37.437-40.85 60.614-8.579 23.181-11.478 48.077-8.456 72.606s11.878 47.978 25.826 68.382c13.948 20.403 32.582 37.167 54.341 48.888s46.010 18.058 70.722 18.479c24.712 0.421 49.165-5.085 71.309-16.057 22.147-10.972 41.341-27.092 55.978-47.008 14.634-19.916 24.285-43.049 28.141-67.461 0.499-3.283-0.090-6.638-1.674-9.556s-4.080-5.238-7.104-6.608c-42.912-19.837-79.251-51.536-104.734-91.354s-39.045-86.093-39.085-133.366c0-4.95 0-9.824 0.464-14.694zM984.784 448.326c-27.229 36.157-63.363 64.64-104.877 82.682 18.266 16.65 32.272 37.437 40.851 60.614 8.579 23.181 11.478 48.077 8.454 72.606-3.021 24.53-11.875 47.978-25.824 68.382s-32.582 37.167-54.342 48.888c-21.757 11.721-46.010 18.058-70.72 18.479-24.714 0.421-49.165-5.085-71.312-16.057-22.144-10.972-41.341-27.092-55.974-47.008-14.637-19.916-24.285-43.049-28.141-67.461-0.499-3.283 0.090-6.638 1.674-9.556s4.080-5.238 7.104-6.608c42.909-19.837 79.251-51.536 104.733-91.354 25.485-39.818 39.046-86.093 39.085-133.366 0-4.95 0-9.824-0.464-14.694-0.102-2.096 0.218-4.192 0.95-6.157 0.73-1.968 1.853-3.766 3.299-5.286 1.446-1.517 3.187-2.726 5.117-3.552s4.006-1.251 6.102-1.248h170.621c6.982-0.010 13.763 2.342 19.238 6.675 5.475 4.33 9.328 10.387 10.925 17.187 0.998 4.659 0.954 9.485-0.138 14.125-1.088 4.643-3.197 8.982-6.166 12.71h-0.195zM640.608 281.344c30.806 23.59 53.443 56.24 64.73 93.363 11.29 37.12 10.662 76.845-1.792 113.59-12.454 36.749-36.109 68.669-67.642 91.274-31.533 22.608-69.357 34.765-108.157 34.765s-76.624-12.157-108.157-34.765c-31.533-22.605-55.19-54.525-67.645-91.274-12.454-36.746-13.082-76.47-1.792-113.59 11.29-37.123 33.926-69.773 64.73-93.363-54.659-23.683-100.303-64.243-130.245-115.744-2.716-4.704-4.145-10.038-4.145-15.469 0-5.434 1.43-10.768 4.147-15.472 2.716-4.701 6.622-8.608 11.326-11.322 4.704-2.717 10.040-4.144 15.471-4.144h433.119c5.434 0 10.768 1.427 15.472 4.144 4.704 2.714 8.611 6.621 11.328 11.322 2.714 4.704 4.144 10.038 4.144 15.472 0.003 5.43-1.427 10.765-4.144 15.469-30.006 51.533-75.734 92.096-130.477 115.744h-0.272z" />
<glyph unicode="&#xe909;" glyph-name="analytics" d="M907.981 859.149c6.148-0.275 11.836-3.337 15.45-8.318 4.591-4.233 6.81-10.452 5.939-16.637l-15.45-200.839c-1.225-12.19-11.516-21.452-23.765-21.391h-1.19c-12.847 1.228-22.639 12.049-22.579 24.955l11.891 147.616-304.235-236.742c-8.683-6.951-21.026-6.951-29.709 0l-212.722 167.563-205.593-197.272c-4.388-4.48-10.368-7.044-16.637-7.134-6.94-0.286-13.587 2.816-17.827 8.32-8.737 9.562-8.209 24.361 1.187 33.275l221.040 211.532c8.601 7.957 21.714 8.462 30.899 1.187l215.097-168.753 281.425 220.155-153.079 10.395c-13.124 0.985-22.967 12.424-21.982 25.551 0.986 13.125 12.425 22.97 25.549 21.985l216.29-15.45zM739.183 563.24h158.059c13.129 0 23.77-10.643 23.77-23.768v-494.373c0-13.124-10.641-23.765-23.77-23.765h-158.059c-13.124 0-23.765 10.641-23.765 23.765v494.373c0 13.127 10.641 23.768 23.765 23.768zM762.953 68.868h110.519v446.835h-110.519v-446.835zM429.018 376.666h156.868c13.129 0 23.765-10.641 23.765-23.765v-307.793c0-13.129-10.637-23.77-23.765-23.77h-156.868c-13.127 0-23.767 10.641-23.767 23.77v307.793c0 13.124 10.641 23.765 23.767 23.765zM452.787 68.873h109.329v260.258h-109.329v-260.258zM275.741 261.385h-158.057c-13.127 0-23.768-10.641-23.768-23.765v-192.521c0-13.129 10.641-23.77 23.768-23.77h158.057c13.127 0 23.768 10.641 23.768 23.77v192.521c0 13.124-10.641 23.765-23.768 23.765zM251.974 68.864h-110.521v144.986h110.521v-144.986z" />
<glyph unicode="&#xe90a;" glyph-name="chevron-left" d="M656.97 720.971c9.373-9.372 9.373-24.569 0-33.941l-239.027-239.029 239.027-239.030c9.373-9.373 9.373-24.566 0-33.939s-24.566-9.373-33.939 0l-256 256c-9.373 9.373-9.373 24.566 0 33.939l256 256.001c9.373 9.372 24.566 9.372 33.939 0z" />
<glyph unicode="&#xe90b;" glyph-name="announcement-speaker" d="M712.567 764.701c-24.533-49.065-40.939-119.834-40.939-200.332 0-80.5 16.405-151.267 40.939-200.333 25.809-51.618 53.568-67.298 71.543-67.298s45.739 15.68 71.548 67.298c24.529 49.067 40.934 119.834 40.934 200.333s-16.405 151.267-40.934 200.332c-25.809 51.617-53.572 67.299-71.548 67.299s-45.734-15.681-71.543-67.299zM176.477 640.080l-0.791-0.244c-14.932-4.443-27.839-13.973-36.481-26.936s-12.474-28.542-10.833-44.035c0.317-2.989 0.317-6.002 0-8.991-1.641-15.493 2.191-31.072 10.833-44.034 8.642-12.966 21.549-22.494 36.481-26.94l451.723-144.013c-26.172 60.681-41.114 137.434-41.114 219.482s14.942 158.802 41.114 219.483l-450.932-143.772zM150.918 721.497l589.826 188.056c13.521 5.004 27.981 7.78 43.366 7.78 67.712 0 117.525-53.781 147.87-114.47 31.62-63.241 49.946-147.621 49.946-238.494s-18.325-175.254-49.946-238.494c-30.345-60.689-80.158-114.47-147.87-114.47-15.386 0-29.845 2.778-43.366 7.782l-231.138 73.694 37.662-113.813c11.319-29.214 10.79-61.717-1.506-90.573-12.493-29.308-36.1-52.463-65.651-64.38l-0.060-0.026c-29.564-11.87-62.633-11.52-91.943 0.969-29.309 12.493-52.464 36.1-64.379 65.651-0.214 0.529-0.418 1.067-0.611 1.604l-104.799 293.44-67.401 21.487c-33.851 10.185-63.102 31.842-82.715 61.265-18.86 28.288-27.67 62.046-25.099 95.864-2.571 33.817 6.238 67.574 25.099 95.865 19.613 29.42 48.864 51.081 82.715 61.263zM409.122 324.919l-88.547 28.228 82.559-231.164c3.531-8.282 10.13-14.886 18.428-18.423 8.5-3.622 18.092-3.725 26.672-0.29 8.559 3.465 15.403 10.18 19.025 18.679 3.627 8.508 3.729 18.112 0.282 26.697-0.329 0.819-0.636 1.651-0.913 2.492l-57.506 173.781zM807.834 641.561c-19.017 21.22-45.18 34.697-73.498 37.861-8.981-37.687-13.436-76.311-13.265-115.053-0.171-38.741 4.284-77.367 13.265-115.055 28.318 3.166 54.481 16.644 73.498 37.862s29.555 48.698 29.606 77.192c-0.051 28.494-10.59 55.972-29.606 77.192z" />
<glyph unicode="&#xe90c;" glyph-name="book-open" d="M85.333 793.6c0 21.208 17.366 38.4 38.788 38.4h232.727c51.436 0 100.764-20.229 137.137-56.236 36.369-36.007 56.802-84.843 56.802-135.764v-537.6c0-21.21-17.365-38.4-38.788-38.4s-38.788 17.19-38.788 38.4c0 20.369-8.171 39.902-22.72 54.306s-34.281 22.494-54.855 22.494h-271.515c-21.422 0-38.788 17.19-38.788 38.4v576zM473.212 235.422v404.578c0 30.553-12.258 59.855-34.082 81.459-21.822 21.604-51.42 33.741-82.281 33.741h-193.94v-499.2h232.727c27.471 0 54.19-7.211 77.575-20.578zM530.014 775.764c36.373 36.007 85.7 56.236 137.139 56.236h232.725c21.423 0 38.788-17.192 38.788-38.4v-576c0-21.21-17.365-38.4-38.788-38.4h-271.514c-20.574 0-40.307-8.090-54.857-22.494s-22.72-33.937-22.72-54.306c0-21.21-17.365-38.4-38.788-38.4s-38.788 17.19-38.788 38.4v537.6c0 50.921 20.433 99.758 56.802 135.764zM550.788 235.422c23.386 13.367 50.103 20.578 77.577 20.578h232.725v499.2h-193.937c-30.865 0-60.459-12.137-82.283-33.741s-34.082-50.906-34.082-81.459v-404.578z" />
<glyph unicode="&#xe90d;" glyph-name="home" d="M485.807 908.346c15.407 11.984 36.979 11.984 52.386 0l384-298.667c10.394-8.083 16.474-20.512 16.474-33.679v-469.333c0-33.95-13.487-66.505-37.491-90.509s-56.559-37.491-90.509-37.491h-597.333c-33.948 0-66.505 13.487-90.51 37.491s-37.49 56.559-37.49 90.509v469.333c0 13.167 6.079 25.596 16.472 33.679l384.002 298.667zM170.667 555.133v-448.466c0-11.315 4.495-22.17 12.497-30.17s18.854-12.497 30.17-12.497h597.333c11.315 0 22.17 4.497 30.17 12.497s12.497 18.854 12.497 30.17v448.466l-341.333 265.481-341.333-265.481zM341.333 448c0 23.565 19.103 42.667 42.667 42.667h256c23.565 0 42.667-19.102 42.667-42.667v-426.667c0-23.565-19.102-42.667-42.667-42.667s-42.667 19.102-42.667 42.667v384h-170.667v-384c0-23.565-19.103-42.667-42.667-42.667s-42.667 19.102-42.667 42.667v426.667z" />
<glyph unicode="&#xe90e;" glyph-name="arrow-down" d="M512 789.333c23.565 0 42.667-19.103 42.667-42.667v-597.333c0-23.565-19.102-42.667-42.667-42.667s-42.667 19.102-42.667 42.667v597.333c0 23.564 19.102 42.667 42.667 42.667zM183.163 478.17c16.663 16.661 43.677 16.661 60.34 0l268.497-268.497 268.497 268.497c16.661 16.661 43.678 16.661 60.339 0s16.661-43.678 0-60.339l-298.667-298.667c-16.661-16.661-43.678-16.661-60.339 0l-298.667 298.667c-16.662 16.661-16.662 43.678 0 60.339z" />
<glyph unicode="&#xe90f;" glyph-name="arrow-down-circle" d="M512 832c-212.077 0-384-171.923-384-384 0-212.079 171.923-384 384-384 212.079 0 384 171.921 384 384 0 212.077-171.921 384-384 384zM42.667 448c0 259.206 210.128 469.333 469.333 469.333 259.204 0 469.333-210.128 469.333-469.333 0-259.204-210.129-469.333-469.333-469.333-259.206 0-469.333 210.129-469.333 469.333zM311.163 478.17c16.663 16.661 43.677 16.661 60.34 0l140.497-140.497 140.497 140.497c16.661 16.661 43.678 16.661 60.339 0s16.661-43.678 0-60.339l-170.667-170.667c-16.661-16.661-43.678-16.661-60.339 0l-170.667 170.667c-16.662 16.661-16.662 43.678 0 60.339zM512 661.333c23.565 0 42.667-19.103 42.667-42.667v-341.333c0-23.565-19.102-42.667-42.667-42.667s-42.667 19.102-42.667 42.667v341.333c0 23.564 19.102 42.667 42.667 42.667z" />
<glyph unicode="&#xe910;" glyph-name="arrow-down-left" d="M755.503 691.503c16.661-16.663 16.661-43.677 0-60.34l-426.666-426.666c-16.663-16.661-43.677-16.661-60.34 0s-16.662 43.678 0 60.339l426.667 426.667c16.661 16.662 43.678 16.662 60.339 0zM298.667 704c23.564 0 42.667-19.103 42.667-42.667v-384h384c23.565 0 42.667-19.102 42.667-42.667s-19.102-42.667-42.667-42.667h-426.667c-23.564 0-42.667 19.102-42.667 42.667v426.667c0 23.564 19.103 42.667 42.667 42.667z" />
<glyph unicode="&#xe911;" glyph-name="arrow-down-right" d="M328.837 691.503c-16.663 16.662-43.677 16.662-60.34 0s-16.662-43.677 0-60.34l353.831-353.83h-323.661c-23.564 0-42.667-19.102-42.667-42.667s19.103-42.667 42.667-42.667h426.667c0.043 0 0.085 0 0.128 0 5.739 0.017 11.209 1.165 16.205 3.238 4.915 2.035 9.532 5.026 13.555 8.981 0.188 0.183 0.375 0.371 0.559 0.559 7.531 7.667 12.186 18.172 12.22 29.76 0 0.043 0 0.085 0 0.128v426.667c0 23.564-19.102 42.667-42.667 42.667s-42.667-19.103-42.667-42.667v-323.661l-353.83 353.831z" />
<glyph unicode="&#xe912;" glyph-name="arrow-left" d="M542.17 716.497c16.661 16.663 16.661 43.677 0 60.34s-43.678 16.662-60.339 0l-298.667-298.667c-16.662-16.661-16.662-43.678 0-60.339l298.667-298.667c16.661-16.661 43.678-16.661 60.339 0s16.661 43.678 0 60.339l-225.83 225.83h494.327c23.565 0 42.667 19.102 42.667 42.667s-19.102 42.667-42.667 42.667h-494.327l225.83 225.83z" />
<glyph unicode="&#xe913;" glyph-name="arrow-left-circle" d="M512 832c-212.077 0-384-171.923-384-384 0-212.079 171.923-384 384-384 212.079 0 384 171.921 384 384 0 212.077-171.921 384-384 384zM42.667 448c0 259.206 210.128 469.333 469.333 469.333 259.204 0 469.333-210.128 469.333-469.333 0-259.204-210.129-469.333-469.333-469.333-259.206 0-469.333 210.129-469.333 469.333zM542.17 588.497c16.661 16.663 16.661 43.677 0 60.34s-43.678 16.662-60.339 0l-170.667-170.667c-16.662-16.661-16.662-43.678 0-60.339l170.667-170.667c16.661-16.661 43.678-16.661 60.339 0s16.661 43.678 0 60.339l-97.83 97.83h238.327c23.565 0 42.667 19.102 42.667 42.667s-19.102 42.667-42.667 42.667h-238.327l97.83 97.83z" />
<glyph unicode="&#xe914;" glyph-name="arrow-right" d="M542.17 776.837c-16.661 16.662-43.678 16.662-60.339 0s-16.661-43.677 0-60.34l225.83-225.83h-494.327c-23.564 0-42.667-19.102-42.667-42.667s19.103-42.667 42.667-42.667h494.327l-225.83-225.83c-16.661-16.661-16.661-43.678 0-60.339s43.678-16.661 60.339 0l298.667 298.667c16.661 16.661 16.661 43.678 0 60.339l-298.667 298.667z" />
<glyph unicode="&#xe915;" glyph-name="arrow-right-circle" d="M512 832c-212.077 0-384-171.923-384-384 0-212.079 171.923-384 384-384 212.079 0 384 171.921 384 384 0 212.077-171.921 384-384 384zM42.667 448c0 259.206 210.128 469.333 469.333 469.333 259.204 0 469.333-210.128 469.333-469.333 0-259.204-210.129-469.333-469.333-469.333-259.206 0-469.333 210.129-469.333 469.333zM542.17 648.837c-16.661 16.662-43.678 16.662-60.339 0s-16.661-43.677 0-60.34l97.83-97.83h-238.327c-23.564 0-42.667-19.102-42.667-42.667s19.103-42.667 42.667-42.667h238.327l-97.83-97.83c-16.661-16.661-16.661-43.678 0-60.339s43.678-16.661 60.339 0l170.667 170.667c16.661 16.661 16.661 43.678 0 60.339l-170.667 170.667z" />
<glyph unicode="&#xe916;" glyph-name="arrow-up" d="M542.17 776.837c-16.661 16.662-43.678 16.662-60.339 0l-298.667-298.667c-16.662-16.661-16.662-43.678 0-60.339s43.677-16.661 60.34 0l225.83 225.83v-494.327c0-23.565 19.102-42.667 42.667-42.667s42.667 19.102 42.667 42.667v494.327l225.83-225.83c16.661-16.661 43.678-16.661 60.339 0s16.661 43.678 0 60.339l-298.667 298.667z" />
<glyph unicode="&#xe917;" glyph-name="arrow-up-circle" d="M512 832c-212.077 0-384-171.923-384-384 0-212.079 171.923-384 384-384 212.079 0 384 171.921 384 384 0 212.077-171.921 384-384 384zM42.667 448c0 259.206 210.128 469.333 469.333 469.333 259.204 0 469.333-210.128 469.333-469.333 0-259.204-210.129-469.333-469.333-469.333-259.206 0-469.333 210.129-469.333 469.333zM542.17 648.837c-16.661 16.662-43.678 16.662-60.339 0l-170.667-170.667c-16.662-16.661-16.662-43.678 0-60.339s43.677-16.661 60.34 0l97.83 97.83v-238.327c0-23.565 19.102-42.667 42.667-42.667s42.667 19.102 42.667 42.667v238.327l97.83-97.83c16.661-16.661 43.678-16.661 60.339 0s16.661 43.678 0 60.339l-170.667 170.667z" />
<glyph unicode="&#xe918;" glyph-name="arrow-up-left" d="M298.667 704c-23.564 0-42.667-19.103-42.667-42.667v-426.667c0-23.565 19.103-42.667 42.667-42.667s42.667 19.102 42.667 42.667v326.788l353.83-356.957c16.661-16.661 43.678-16.661 60.339 0s16.661 43.678 0 60.339l-350.73 353.83h320.56c23.565 0 42.667 19.103 42.667 42.667s-19.102 42.667-42.667 42.667h-426.667z" />
<glyph unicode="&#xe919;" glyph-name="arrow-up-right" d="M298.667 704c-23.564 0-42.667-19.103-42.667-42.667s19.103-42.667 42.667-42.667h320.559l-350.729-353.83c-16.662-16.661-16.662-43.678 0-60.339s43.677-16.661 60.34 0l353.83 356.957v-326.787c0-23.565 19.102-42.667 42.667-42.667s42.667 19.102 42.667 42.667v426.667c0 23.564-19.102 42.667-42.667 42.667h-426.667z" />
<glyph unicode="&#xe91a;" glyph-name="quote" horiz-adv-x="1300" d="M995.147 356.104c14.186 0 27.802 2.229 41.35 4.265-4.387-15.23-8.905-30.72-16.16-44.635-7.251-20.22-18.574-37.746-29.834-55.402-9.417-19.102-26.021-32.032-38.235-48.376-12.788-15.888-30.22-26.455-44.024-39.648-13.552-13.785-31.299-20.677-45.422-30.393-14.761-8.728-27.609-18.377-41.35-22.973l-34.292-14.572-30.153-12.93 30.854-127.212 37.979 9.452c12.15 3.151 26.975 6.825 43.831 11.225 17.243 3.281 35.627 12.272 56.111 20.48 20.232 9.318 43.642 15.62 65.398 30.586 21.886 14.312 47.143 26.258 69.408 45.426 21.567 19.755 47.584 36.888 66.8 62.031 20.992 23.497 41.732 48.179 57.828 76.272 18.637 26.782 31.299 56.19 44.658 85.268 12.087 29.082 21.819 58.817 29.771 87.698 15.080 57.895 21.823 112.904 24.43 159.968 2.162 47.129 0.89 86.317-1.78 114.674-0.953 13.391-2.737 26.388-4.009 35.38l-1.591 11.028-1.654-0.394c-11.315 54.537-37.36 104.654-75.13 144.553-37.766 39.9-85.709 67.952-138.283 80.912-52.571 12.96-107.626 10.297-158.795-7.679s-96.358-50.533-130.343-93.903c-33.985-43.37-55.375-95.781-61.696-151.17s2.682-111.494 25.974-161.825c23.292-50.326 59.916-92.826 105.633-122.573 45.722-29.751 98.67-45.536 152.726-45.533zM295.355 356.104c14.187 0 27.801 2.229 41.351 4.265-4.389-15.23-8.906-30.72-16.159-44.635-7.252-20.22-18.576-37.746-29.837-55.402-9.415-19.102-26.019-32.032-38.234-48.376-12.787-15.888-30.219-26.455-44.023-39.648-13.551-13.785-31.3-20.677-45.423-30.393-14.759-8.728-27.61-18.377-41.351-22.973l-34.29-14.572-30.155-12.93 30.855-127.212 37.979 9.452c12.151 3.151 26.974 6.825 43.832 11.225 17.241 3.281 35.626 12.272 56.111 20.48 20.166 9.385 43.641 15.62 65.399 30.653 21.884 14.308 47.141 26.258 69.407 45.422 21.566 19.759 47.586 36.892 66.797 61.968 20.996 23.497 41.732 48.179 57.828 76.272 18.641 26.782 31.299 56.19 44.658 85.268 12.087 29.082 21.823 58.817 29.775 87.698 15.076 57.895 21.819 112.904 24.43 159.968 2.162 47.129 0.89 86.317-1.784 114.674-0.953 13.391-2.733 26.388-4.005 35.38l-1.591 11.028-1.654-0.394c-11.315 54.537-37.364 104.654-75.13 144.553s-85.709 67.952-138.284 80.912c-52.573 12.96-107.628 10.297-158.796-7.679s-96.358-50.533-130.343-93.903c-33.985-43.37-55.375-95.781-61.697-151.17s2.684-111.494 25.974-161.825c23.291-50.326 59.915-92.826 105.636-122.573 45.721-29.751 98.67-45.536 152.723-45.533z" />
<glyph unicode="&#xe91b;" glyph-name="pen" d="M725.4 921.36c50 49.996 131.2 49.996 181.2 0l78.8-78.86c50-49.98 50-131.1 0-181.1l-96.8-96.8-260 259.96 96.8 96.8zM843.4 519.4l-466.4-466.2c-20.8-20.8-46.6-36.2-74.8-44.4l-240.66-70.8c-16.84-5-35.060-0.4-47.48 13.8-12.42 10.6-17.064 28.8-12.108 45.8l70.788 240.6c8.32 28.2 23.58 54 44.4 74.8l466.26 466.32 260-259.92z" />
<glyph unicode="&#xe91c;" glyph-name="bar-chart" d="M804.557 874.667c26.931 0 48.764-21.225 48.764-47.407v-758.519c0-26.18-21.833-47.407-48.764-47.407s-48.759 21.227-48.759 47.407v758.519c0 26.182 21.828 47.407 48.759 47.407zM512.013 590.229c26.931 0 48.764-21.225 48.764-47.408v-474.073c0-26.185-21.833-47.407-48.764-47.407-26.927 0-48.759 21.222-48.759 47.407v474.073c0 26.182 21.833 47.408 48.759 47.408zM268.19 258.372c0 26.18-21.831 47.407-48.762 47.407s-48.762-21.227-48.762-47.407v-189.632c0-26.18 21.831-47.407 48.762-47.407s48.762 21.227 48.762 47.407v189.632z" />
<glyph unicode="&#xe91d;" glyph-name="bar-chart-2" d="M512.013 874.667c26.931 0 48.764-21.225 48.764-47.407v-758.519c0-26.18-21.833-47.407-48.764-47.407-26.927 0-48.759 21.227-48.759 47.407v758.519c0 26.182 21.833 47.407 48.759 47.407zM804.557 590.229c26.931 0 48.764-21.225 48.764-47.408v-474.073c0-26.185-21.833-47.407-48.764-47.407s-48.759 21.222-48.759 47.407v474.073c0 26.182 21.828 47.408 48.759 47.408zM268.19 353.186c0 26.18-21.831 47.407-48.762 47.407s-48.762-21.227-48.762-47.407v-284.446c0-26.18 21.831-47.407 48.762-47.407s48.762 21.227 48.762 47.407v284.446z" />
<glyph unicode="&#xe91e;" glyph-name="folder" d="M912 83.2h-99.2c-12.8 0-22.4 9.6-22.4 22.4s9.6 22.4 22.4 22.4h99.2l3.2 3.2v336h-83.2c-12.8 0-22.4 9.6-22.4 22.4s9.6 22.4 22.4 22.4h83.2v121.6l6.4 22.4-6.4-16h-371.2c-12.8 0-22.4 3.2-32 12.8l-134.4 115.2h-265.6l-3.2-3.2v-252.8h403.2c12.8 0 22.4-9.6 22.4-22.4s-9.6-22.4-22.4-22.4h-403.2v-336l3.2-3.2h400c12.8 0 22.4-9.6 22.4-22.4s-9.6-22.4-22.4-22.4h-400c-12.8 0-25.6 6.4-35.2 12.8-9.6 12.8-12.8 22.4-12.8 35.2v633.6c0 12.8 6.4 25.6 12.8 35.2 9.6 9.6 22.4 12.8 35.2 12.8h262.4c12.8 0 22.4-3.2 32-12.8l134.4-115.2h371.2c6.4 0 12.8 0 19.2-3.2s9.6-6.4 16-9.6c3.2-3.2 6.4-9.6 9.6-16s3.2-12.8 3.2-19.2v-502.4c0-12.8-6.4-25.6-12.8-35.2-9.6-9.6-22.4-16-35.2-16zM672 153.6v0 0c0 0 0 0 0 0-3.2 0-6.4 0-9.6 0 0 0 0 0 0 0v0c0 0 0 0-3.2 0v0 0c-3.2 0-3.2 3.2-6.4 3.2v0c0 0 0 0 0 0s0 0 0 0 0 0 0 0v0c0 0 0 0 0 0l-96 99.2c-9.6 9.6-9.6 22.4 0 32s22.4 9.6 32 0l57.6-60.8v316.8c0 12.8 9.6 22.4 22.4 22.4s22.4-9.6 22.4-22.4v-313.6l57.6 60.8c9.6 9.6 22.4 9.6 32 0s9.6-22.4 0-32l-96-99.2c0 0 0 0 0 0v0c0 0 0 0 0 0s0 0 0 0 0 0 0 0v0c-3.2-3.2-3.2-3.2-6.4-3.2 0 0 0 0 0 0s0 0 0 0 0 0 0 0c0-3.2-3.2-3.2-6.4-3.2v0c0 0 0 0 0 0z" />
<glyph unicode="&#xe91f;" glyph-name="t-check" d="M891.264 922.080h-568.896c-52.16 0-94.816-42.656-94.816-94.816v-568.896c0-52.16 42.656-94.816 94.816-94.816h568.896c52.16 0 94.816 42.656 94.816 94.816v568.896c0 52.16-42.656 94.816-94.816 94.816zM500.64 387.328l-98.144 98.624c-18.016 18.496-18.016 47.872 0 66.368 4.384 4.384 9.6 7.872 15.328 10.272s11.872 3.616 18.080 3.616c6.208 0 12.352-1.216 18.080-3.616s10.944-5.856 15.328-10.272l64.48-64.96 209.536 211.424c4.384 4.384 9.6 7.872 15.328 10.272s11.872 3.616 18.080 3.616c6.208 0 12.352-1.216 18.112-3.616s10.944-5.856 15.328-10.272c18.016-18.496 18.016-47.872 0-66.368l-243.2-245.088c-17.536-18.976-47.872-18.976-66.368 0zM85.344 732.448c-26.080 0-47.392-21.344-47.392-47.392v-616.288c0-52.16 42.656-94.816 94.816-94.816h616.288c26.080 0 47.424 21.344 47.424 47.424s-21.344 47.392-47.424 47.392h-568.896c-26.080 0-47.424 21.344-47.424 47.392v568.896c0 26.080-21.344 47.392-47.392 47.392z" />
<glyph unicode="&#xe920;" glyph-name="library" d="M896 128c-12.8 0-22.4 9.6-22.4 22.4v521.6l-179.2 179.2h-396.8c-12.8 0-22.4 9.6-22.4 22.4s9.6 22.4 22.4 22.4h406.4c6.4 0 12.8-3.2 16-6.4l192-192c3.2-3.2 6.4-9.6 6.4-16v-534.4c0-9.6-9.6-19.2-22.4-19.2zM598.4 169.6h-300.8c-12.8 0-22.4 9.6-22.4 22.4s9.6 22.4 22.4 22.4h297.6c12.8 0 22.4-9.6 22.4-22.4s-6.4-22.4-19.2-22.4zM342.4 339.2h-44.8c-12.8 0-22.4 9.6-22.4 22.4s9.6 22.4 22.4 22.4h41.6c12.8 0 22.4-9.6 22.4-22.4s-6.4-22.4-19.2-22.4zM425.6 512h-128c-12.8 0-22.4 9.6-22.4 22.4s9.6 22.4 22.4 22.4h128c12.8 0 22.4-9.6 22.4-22.4s-9.6-22.4-22.4-22.4zM704 0h-512c-22.4 0-44.8 9.6-60.8 25.6s-25.6 38.4-25.6 60.8v595.2c0 22.4 9.6 44.8 25.6 60.8 16 19.2 38.4 25.6 60.8 25.6h416c12.8 0 25.6-6.4 35.2-12.8l134.4-134.4c3.2-3.2 9.6-9.6 9.6-16 3.2-6.4 3.2-12.8 3.2-19.2v-502.4c0-22.4-9.6-44.8-25.6-60.8s-38.4-22.4-60.8-22.4zM192 723.2c-9.6 0-22.4-3.2-28.8-12.8-9.6-6.4-12.8-16-12.8-28.8v-598.4c0-9.6 3.2-22.4 12.8-28.8 6.4-6.4 19.2-12.8 28.8-12.8h512c9.6 0 22.4 3.2 28.8 12.8 6.4 6.4 12.8 19.2 12.8 28.8v502.4l-134.4 137.6h-419.2zM768 553.6h-144c-12.8 0-25.6 6.4-35.2 12.8-9.6 9.6-12.8 22.4-12.8 35.2v144c0 12.8 9.6 22.4 22.4 22.4s22.4-9.6 22.4-22.4v-144l3.2-3.2h144c12.8 0 22.4-9.6 22.4-22.4s-9.6-22.4-22.4-22.4z" />
<glyph unicode="&#xe921;" glyph-name="trash1" horiz-adv-x="896" d="M270.4 924.62c10.8 21.684 33 35.38 57.2 35.38h240.8c24.2 0 46.4-13.696 57.2-35.38l14.4-28.62h192c35.4 0 64-28.66 64-64s-28.6-64-64-64h-768c-35.34 0-64 28.66-64 64s28.66 64 64 64h192l14.4 28.62zM789.6 27.8c-3.2-52.4-45-91.8-95.8-91.8h-491.6c-50.7 0-92.66 39.4-95.82 91.8l-44.18 676.2h769.8l-42.4-676.2z" />
<glyph unicode="&#xe922;" glyph-name="comment-regular" d="M512 896c-282.8 0-511.946-186.2-511.946-416 0-95.26 39.82-182.5 105.82-252.4-29.76-79-91.74-145.76-92.74-146.5-13.25-14-16.75-34.5-9.25-52 7.752-17.5 24.876-29.1 44.116-29.1 123 0 218.2 51.5 278.2 92.5 56-18.1 120.4-28.5 185.8-28.5 282.8 0 510.2 186.26 510.2 416s-227.4 416-510.2 416zM512.2 160c-53.5 0-106.24 8.25-156.76 24.24l-45.5 14.25-39-27.5c-28.5-20.24-67.76-42.76-115-58 14.75 24.24 28.74 51.5 39.76 80.5l21.24 56-41.24 43.74c-36.060 38.57-79.56 102.37-79.56 186.77 0 176.5 186.5 320 416 320s416-143.5 416-320-186.54-320-415.94-320z" />
<glyph unicode="&#xe923;" glyph-name="bookmark" d="M298.667 789.333c-11.316 0-22.168-4.495-30.17-12.497s-12.497-18.854-12.497-30.17v-599.757l231.202 165.141c14.835 10.598 34.761 10.598 49.596 0l231.202-165.141v599.757c0 11.316-4.497 22.168-12.497 30.17s-18.854 12.497-30.17 12.497h-426.667zM208.157 837.176c24.005 24.005 56.562 37.49 90.51 37.49h426.667c33.946 0 66.505-13.486 90.509-37.49s37.491-56.562 37.491-90.51v-682.667c0-15.983-8.93-30.626-23.142-37.939s-31.317-6.071-44.322 3.221l-273.869 195.618-273.867-195.618c-13.006-9.293-30.112-10.534-44.323-3.221s-23.143 21.956-23.143 37.939v682.667c0 33.948 13.486 66.505 37.49 90.51z" />
<glyph unicode="&#xe924;" glyph-name="comment-regular-dots" d="M288 544c-35.4 0-64-28.4-64-62.2 0-37.2 28.6-65.8 64-65.8s62.2 28.5 62.2 64-26.6 64-62.2 64zM512 545.8c-35.5 0-62.2-28.5-62.2-64s28.5-62.2 62.2-62.2 62.2 28.5 62.2 62.2-26.6 64-62.2 64zM736 544c-35.5 0-62.2-28.5-62.2-64s28.5-64 62.2-64c35.5 0 63.98 28.5 63.98 64 0.020 35.6-28.38 64-63.98 64zM512 897.8c-282.8 0-510.2-186.24-510.2-416 0-95.24 39.82-182.5 105.82-252.6-29.74-79-91.74-145.76-92.74-146.5-13.248-14-16.746-34.5-9.248-52 6.004-19.1 23.128-30.7 42.368-30.7 122.98 0 218.2 51.5 278.2 92.5 57.74-18 120.32-28.5 185.8-28.5 282.8 0 510.2 186.26 510.2 414.2s-227.4 419.6-510.2 419.6zM512 160c-53.5 0-106.24 8.25-156.72 24.24l-45.5 14.25-38.98-27.49c-28.5-20.24-67.74-42.76-114.98-58 14.748 24.24 28.74 51.5 39.74 80.5l21.24 56-41.24 43.74c-35.94 38.56-79.44 102.36-79.44 186.76 0 176.5 186.48 320 414.2 320s414.2-143.5 414.2-320-182.92-320-412.52-320z" />
<glyph unicode="&#xe925;" glyph-name="article-tag" d="M1024 960h-450.56l-573.44-568.889 450.56-450.56 573.44 568.889v450.56zM841.956 650.524c-36.409-36.409-95.573-36.409-131.982 0s-36.409 95.573 0 131.982c36.409 36.409 95.573 36.409 131.982 0s36.409-95.573 0-131.982z" />
<glyph unicode="&#xe926;" glyph-name="briefcase" d="M201.697 601.6c-21.422 0-38.788-17.192-38.788-38.4v-384c0-21.21 17.366-38.4 38.788-38.4h620.605c21.423 0 38.788 17.19 38.788 38.4v384c0 21.208-17.365 38.4-38.788 38.4h-620.605zM85.333 563.2c0 63.623 52.098 115.2 116.364 115.2h620.605c64.269 0 116.365-51.577 116.365-115.2v-384c0-63.625-52.096-115.2-116.365-115.2h-620.605c-64.266 0-116.364 51.575-116.364 115.2v384zM352.143 798.259c21.822 21.604 51.42 33.741 82.281 33.741h155.153c30.861 0 60.459-12.137 82.283-33.741 21.82-21.604 34.082-50.906 34.082-81.459v-614.4c0-21.21-17.37-38.4-38.788-38.4-21.423 0-38.788 17.19-38.788 38.4v614.4c0 10.184-4.087 19.951-11.362 27.153s-17.139 11.247-27.426 11.247h-155.153c-10.287 0-20.152-4.046-27.427-11.247s-11.36-16.969-11.36-27.153v-614.4c0-21.21-17.366-38.4-38.788-38.4s-38.788 17.19-38.788 38.4v614.4c0 30.553 12.259 59.855 34.082 81.459z" />
<glyph unicode="&#xe927;" glyph-name="calendar" d="M243.2 719.515c-21.208 0-38.4-17.366-38.4-38.788v-543.029c0-21.423 17.192-38.788 38.4-38.788h537.6c21.21 0 38.4 17.365 38.4 38.788v543.029c0 21.422-17.19 38.788-38.4 38.788h-537.6zM128 680.727c0 64.266 51.577 116.364 115.2 116.364h537.6c63.625 0 115.2-52.098 115.2-116.364v-543.029c0-64.269-51.575-116.365-115.2-116.365h-537.6c-63.623 0-115.2 52.096-115.2 116.365v543.029zM665.6 874.667c21.21 0 38.4-17.366 38.4-38.788v-155.151c0-21.422-17.19-38.788-38.4-38.788s-38.4 17.366-38.4 38.788v155.151c0 21.422 17.19 38.788 38.4 38.788zM358.4 874.667c21.208 0 38.4-17.366 38.4-38.788v-155.151c0-21.422-17.192-38.788-38.4-38.788s-38.4 17.366-38.4 38.788v155.151c0 21.422 17.192 38.788 38.4 38.788zM128 525.577c0 21.421 17.192 38.787 38.4 38.787h691.2c21.21 0 38.4-17.366 38.4-38.787 0-21.423-17.19-38.788-38.4-38.788h-691.2c-21.208 0-38.4 17.365-38.4 38.788z" />
<glyph unicode="&#xe928;" glyph-name="camera" d="M375.749 774.134c6.595 9.496 17.696 15.2 29.584 15.2h213.333c11.887 0 22.989-5.704 29.585-15.2l60.557-87.2h123.191c28.288 0 55.42-10.789 75.426-29.992 20.002-19.204 31.241-45.25 31.241-72.408v-375.467c0-27.157-11.238-53.205-31.241-72.41-20.006-19.2-47.138-29.99-75.426-29.99h-640c-28.29 0-55.421 10.79-75.425 29.99-20.004 19.204-31.242 45.252-31.242 72.41v375.467c0 27.158 11.238 53.204 31.242 72.408s47.135 29.992 75.425 29.992h123.194l60.556 87.2zM424.362 721.067l-60.556-87.2c-6.595-9.496-17.696-15.2-29.584-15.2h-142.222c-9.43 0-18.474-3.596-25.142-9.997s-10.414-15.084-10.414-24.136v-375.467c0-9.054 3.746-17.737 10.414-24.137s15.712-9.997 25.142-9.997h640c9.429 0 18.475 3.597 25.143 9.997 6.665 6.4 10.411 15.083 10.411 24.137v375.467c0 9.053-3.746 17.735-10.411 24.136-6.669 6.401-15.714 9.997-25.143 9.997h-142.221c-11.891 0-22.993 5.704-29.585 15.2l-60.557 87.2h-175.275zM512 516.267c-58.91 0-106.667-45.845-106.667-102.4s47.757-102.4 106.667-102.4c58.91 0 106.667 45.845 106.667 102.4s-47.757 102.4-106.667 102.4zM334.222 413.867c0 94.255 79.594 170.667 177.778 170.667s177.779-76.412 177.779-170.667c0-94.255-79.595-170.667-177.779-170.667s-177.778 76.412-177.778 170.667z" />
<glyph unicode="&#xe929;" glyph-name="camera-off" d="M95.747 864.253c13.885 13.885 36.398 13.885 50.283 0l782.221-782.222c13.888-13.884 13.888-36.399 0-50.283-13.884-13.888-36.399-13.888-50.283 0l-782.222 782.221c-13.885 13.885-13.885 36.398 0 50.283zM369.778 768c0-19.637 15.919-35.555 35.555-35.555h194.304l60.557-90.834c6.592-9.891 17.694-15.833 29.585-15.833h142.221c9.429 0 18.475-3.746 25.143-10.414 6.665-6.668 10.411-15.712 10.411-25.142v-332.089c0-19.635 15.919-35.554 35.558-35.554 19.635 0 35.554 15.919 35.554 35.554v332.089c0 28.29-11.238 55.421-31.241 75.425-20.006 20.004-47.138 31.242-75.426 31.242h-123.191l-60.557 90.834c-6.596 9.891-17.698 15.833-29.585 15.833h-213.333c-19.637 0-35.555-15.919-35.555-35.555zM192 625.778h91.939l95.163-95.162c-7.954-8.841-15.026-18.479-21.091-28.791-13.243-22.515-21.362-47.671-23.779-73.681s0.928-52.233 9.795-76.804c8.868-24.567 23.041-46.882 41.512-65.353s40.785-32.644 65.353-41.515c24.572-8.866 50.795-12.211 76.804-9.796 26.010 2.419 51.166 10.539 73.681 23.782 10.313 6.063 19.951 13.133 28.791 21.090l115.994-115.994h-554.163c-9.43 0-18.474 3.746-25.142 10.415s-10.414 15.714-10.414 25.143v391.11c0 9.43 3.746 18.474 10.414 25.142s15.712 10.414 25.142 10.414zM455.573 554.711l-131.765 131.764c-6.668 6.668-15.712 10.414-25.142 10.414h-106.667c-28.29 0-55.421-11.238-75.425-31.242s-31.242-47.135-31.242-75.425v-391.11c0-28.292 11.238-55.424 31.242-75.426s47.135-31.241 75.425-31.241h640c14.383 0 27.345 8.661 32.849 21.948s2.462 28.578-7.706 38.75l-202.876 202.871c-0.311 0.324-0.627 0.64-0.951 0.951l-196.796 196.795c-0.311 0.324-0.627 0.64-0.947 0.95zM429.5 480.213l150.272-150.268c-4.514-3.78-9.344-7.194-14.447-10.193-13.508-7.949-28.604-12.817-44.207-14.268-15.607-1.451-31.339 0.555-46.080 5.875-14.746 5.321-28.134 13.824-39.215 24.909-11.082 11.081-19.586 24.469-24.907 39.211s-7.327 30.477-5.877 46.084c1.45 15.603 6.321 30.699 14.267 44.207 3.002 5.103 6.414 9.933 10.193 14.443z" />
<glyph unicode="&#xe92a;" glyph-name="carret---down" d="M523.819 330.573l-163.259 181.397c-7.413 8.239-1.568 21.363 9.514 21.363h326.519c11.081 0 16.926-13.124 9.515-21.363l-163.26-181.397c-5.086-5.649-13.943-5.649-19.029 0z" />
<glyph unicode="&#xe92b;" glyph-name="carret---left" d="M394.572 436.181l181.399 163.259c8.239 7.413 21.363 1.568 21.363-9.514v-326.519c0-11.081-13.124-16.926-21.363-9.515l-181.399 163.26c-5.649 5.086-5.649 13.943 0 19.029z" />
<glyph unicode="&#xe92c;" glyph-name="carret---right" d="M629.427 436.181l-181.397 163.259c-8.239 7.413-21.363 1.568-21.363-9.514v-326.519c0-11.081 13.124-16.926 21.363-9.515l181.397 163.26c5.649 5.086 5.649 13.943 0 19.029z" />
<glyph unicode="&#xe92d;" glyph-name="carret---up" d="M542.848 565.429l163.26-181.399c7.411-8.239 1.566-21.363-9.515-21.363h-326.519c-11.082 0-16.928 13.124-9.514 21.363l163.259 181.399c5.086 5.649 13.943 5.649 19.029 0z" />
<glyph unicode="&#xe92e;" glyph-name="solid-comment-dots" d="M512 897.8c-282.8 0-510.2-186.24-510.2-416 0-99.24 42.7-189.96 113.94-261.4-25-100.74-108.54-190.54-109.54-191.54-4.5-4.5-5.75-11.468-3-17.468 2.498-6 8.042-9.532 14.542-9.532 132.5 0 230.2 63.52 281.2 102.78 65.26-24.5 138.040-38.78 214.8-38.78 282.8 0 510.2 186.26 510.2 414.2s-229.142 417.74-511.942 417.74zM254.2 417.8c-35.5 0-64 28.5-64 62.2s28.5 64 64 64 64-28.5 64-64-26.8-62.2-64-62.2zM512 417.8c-35.5 0-62.2 28.5-62.2 62.2s28.5 64 62.2 64 62.2-28.5 62.2-64-26.6-62.2-62.2-62.2zM766.2 417.8c-35.5 0-64 28.5-64 62.2s28.5 64 64 64 64-28.5 64-64-26.8-62.2-64-62.2z" />
<glyph unicode="&#xe92f;" glyph-name="check" d="M883.503 734.17c16.661-16.663 16.661-43.677 0-60.34l-469.333-469.333c-16.663-16.661-43.677-16.661-60.34 0l-213.333 213.333c-16.662 16.661-16.662 43.678 0 60.339s43.677 16.661 60.34 0l183.163-183.164 439.164 439.164c16.661 16.662 43.678 16.662 60.339 0z" />
<glyph unicode="&#xe930;" glyph-name="check-circle" d="M742.294 614.304c9.373-9.373 9.373-24.566 0-33.939l-298.669-298.669c-9.373-9.373-24.566-9.373-33.939 0l-128.001 128c-9.373 9.373-9.373 24.57 0 33.942s24.568 9.373 33.941 0l111.029-111.030 281.696 281.696c9.373 9.373 24.57 9.373 33.942 0zM61.328 448c0 248.903 201.764 450.667 450.666 450.667 248.906 0 450.669-201.764 450.669-450.667s-201.763-450.666-450.669-450.666c-248.902 0-450.666 201.763-450.666 450.666zM511.994 850.667c-222.392 0-402.666-180.273-402.666-402.667s180.274-402.666 402.666-402.666c222.394 0 402.669 180.272 402.669 402.666s-180.275 402.667-402.669 402.667z" />
<glyph unicode="&#xe931;" glyph-name="check-square" d="M968.836 819.503c16.661-16.663 16.661-43.677 0-60.34l-426.667-426.666c-16.661-16.661-43.678-16.661-60.339 0l-128 128c-16.662 16.661-16.662 43.678 0 60.339 16.663 16.663 43.677 16.663 60.34 0l97.83-97.83 396.497 396.497c16.661 16.662 43.678 16.662 60.339 0zM213.333 789.333c-11.316 0-22.168-4.495-30.17-12.497s-12.497-18.854-12.497-30.17v-597.333c0-11.315 4.495-22.17 12.497-30.17s18.854-12.497 30.17-12.497h597.333c11.315 0 22.17 4.497 30.17 12.497s12.497 18.854 12.497 30.17v298.667c0 23.565 19.102 42.667 42.667 42.667s42.667-19.102 42.667-42.667v-298.667c0-33.95-13.487-66.505-37.491-90.509s-56.559-37.491-90.509-37.491h-597.333c-33.948 0-66.505 13.487-90.51 37.491s-37.49 56.559-37.49 90.509v597.333c0 33.948 13.486 66.505 37.49 90.51s56.562 37.49 90.51 37.49h469.333c23.565 0 42.667-19.103 42.667-42.667s-19.102-42.667-42.667-42.667h-469.333z" />
<glyph unicode="&#xe932;" glyph-name="checked-cart" d="M592.469 531.099c-53.1 53.128-82.487 123.622-82.93 198.66h-235.218l-36.878 158.541-199.787 68.612-36.833-107.245 140.398-48.217 99.85-429.296 34.167-150.957h594.469l59.229 261.655c-40.412-22.185-86.769-34.833-136.041-34.833-75.716 0.024-146.902 29.528-200.426 83.081zM388.648-62.265c61.678 0 111.678 49.995 111.678 111.676 0 61.675-50 111.676-111.678 111.676s-111.678-50.001-111.678-111.676c0-61.681 50-111.676 111.678-111.676zM756.326-62.265c61.675 0 111.676 49.995 111.676 111.676 0 61.675-50.001 111.676-111.676 111.676-61.681 0-111.682-50.001-111.682-111.676 0-61.681 50.001-111.676 111.682-111.676zM792.907 502.98h0.066c126.169 0 228.454 102.28 228.491 228.448 0.036 126.192-102.237 228.572-228.436 228.572h-0.066c-126.169 0-228.457-102.28-228.491-228.448-0.041-126.192 102.238-228.572 228.437-228.572zM718.137 750.946l43.406-43.407 106.255 106.256 38.876-38.878-145.131-145.127-82.287 82.284 38.882 38.871z" />
<glyph unicode="&#xe933;" glyph-name="duo-comment-dots" d="M254.2 417.8c-35.5 0-64 28.5-64 62.2s28.5 64 64 64 64-28.5 64-64-26.8-62.2-64-62.2zM512 417.8c-35.5 0-62.2 28.5-62.2 62.2s28.5 64 62.2 64 62.2-28.5 62.2-64-26.6-62.2-62.2-62.2zM766.2 417.8c-35.5 0-64 28.5-64 62.2s28.5 64 64 64 64-28.5 64-64-26.8-62.2-64-62.2zM512 897.8c-282.8 0-510.2-186.24-510.2-416 0-99.24 42.7-189.96 113.94-261.4-25-100.74-108.54-190.54-109.54-191.54-4.5-4.5-5.75-11.468-3-17.468 2.498-6 8.042-9.532 14.542-9.532 132.5 0 230.2 63.52 281.2 102.78 65.26-24.5 138.040-38.78 214.8-38.78 282.8 0 510.2 186.26 510.2 414.2s-229.142 417.74-511.942 417.74zM254.2 417.8c-35.5 0-64 28.5-64 62.2s28.5 64 64 64 64-28.5 64-64-26.8-62.2-64-62.2zM512 417.8c-35.5 0-62.2 28.5-62.2 62.2s28.5 64 62.2 64 62.2-28.5 62.2-64-26.6-62.2-62.2-62.2zM766.2 417.8c-35.5 0-64 28.5-64 62.2s28.5 64 64 64 64-28.5 64-64-26.8-62.2-64-62.2z" />
<glyph unicode="&#xe934;" glyph-name="books-group" d="M1024 650.54c0 28.294-22.989 51.314-51.248 51.314h-16.531c-15.776 22.962-24.095 49.734-24.095 77.758s8.318 54.796 24.095 77.76h16.531c65.952 0 66.406 102.628 0 102.628h-588.841c-19.395 0-19.395-30 0-30h588.841c26.593 0 27.802-42.628 0-42.628h-792.67c-59.324 0-107.586-48.34-107.586-107.76 0-59.418 48.264-107.758 107.586-107.758h792.67c27.105 0 27.365-44.298 0-44.298h-792.67c-39.872 0-77.512 15.93-105.986 44.854-28.436 28.882-44.096 66.956-44.096 107.202 0 82.924 67.326 150.388 150.082 150.388h123.904c19.394 0 19.394 30 0 30h-123.904c-99.298 0-180.082-80.922-180.082-180.388 0-48.17 18.722-93.716 52.716-128.25 8.878-9.018 18.516-16.956 28.744-23.806h-30.212c-28.258-0.002-51.248-23.021-51.248-51.317s22.99-51.316 51.248-51.316h16.53c15.776-22.961 24.094-49.732 24.094-77.756 0-28.027-8.318-54.798-24.094-77.763h-16.53c-28.258 0-51.248-23.020-51.248-51.313s22.99-51.313 51.248-51.313h29.506c-48.628-32.335-80.754-87.671-80.754-150.391 0-99.465 80.784-180.388 180.082-180.388h792.67c65.952 0 66.406 102.629 0 102.629h-16.531c-15.776 22.965-24.095 49.736-24.095 77.759s8.318 54.794 24.095 77.759h16.531c65.952 0 66.406 102.629 0 102.629h-29.505c48.626 32.338 80.753 87.671 80.753 150.391 0 62.717-32.126 118.054-80.753 150.388h29.505c27.781 0 51.248 24.263 51.248 52.985zM102.496 779.612c0 42.876 34.806 77.76 77.586 77.76h741.156c-12.554-23.858-19.111-50.314-19.111-77.76 0-27.444 6.557-53.9 19.108-77.758h-741.153c-42.782 0-77.586 34.882-77.586 77.758zM102.762 524.923h741.157c42.779 0 77.585-34.881 77.585-77.756 0-42.878-34.806-77.763-77.585-77.763h-67.004v62.761h35.854c19.395 0 19.395 30 0 30h-516.597c-19.394 0-19.394-30 0-30h318.993v-62.761h-512.402c12.554 23.859 19.11 50.316 19.11 77.763 0 27.443-6.558 53.9-19.11 77.756zM645.164 432.166h101.751v-260.557l-39.294 37.96c-5.741 5.547-14.817 5.625-20.654 0.184l-41.8-38.987v261.4h-0.003zM51.248 296.779c-11.716 0-21.248 9.561-21.248 21.313s9.532 21.313 21.248 21.313h563.916v-42.626h-563.916zM921.238 38.629h-181.238c-19.395 0-19.395-30 0-30h232.752c26.593 0 27.802-42.629 0-42.629h-792.67c-82.756 0-150.082 67.465-150.082 150.388s67.326 150.388 150.082 150.388h435.083v-42.629h-435.083c-59.324 0-107.586-48.34-107.586-107.759s48.264-107.759 107.586-107.759h479.869c19.395 0 19.395 30 0 30h-479.869c-42.782 0-77.586 34.884-77.586 77.759s34.806 77.759 77.586 77.759h435.083v-57.887c0-12.861 15.831-19.743 25.235-10.967l56.617 52.808 54.477-52.627c9.564-9.247 25.423-2.038 25.423 10.79v57.883h144.323c-12.551-23.856-19.108-50.313-19.108-77.756 0-27.447 6.557-53.903 19.108-77.763zM972.752 266.779c26.597 0 27.802-42.633 0-42.633h-195.837v42.633h195.837zM994 447.167c0-82.924-67.325-150.388-150.081-150.388h-67.004v42.626h67.004c59.324 0 107.585 48.34 107.585 107.762 0 59.416-48.265 107.756-107.585 107.756h-792.671c-11.716 0-21.248 9.564-21.248 21.316s9.532 21.316 21.248 21.316h792.671c82.756 0 150.081-67.465 150.081-150.388z" />
<glyph unicode="&#xe935;" glyph-name="chevrons-down" d="M268.497 435.503c16.663 16.661 43.677 16.661 60.34 0l183.163-183.164 183.164 183.164c16.661 16.661 43.678 16.661 60.339 0s16.661-43.678 0-60.339l-213.333-213.333c-16.661-16.661-43.678-16.661-60.339 0l-213.334 213.333c-16.662 16.661-16.662 43.678 0 60.339zM268.497 734.17c16.663 16.662 43.677 16.662 60.34 0l183.163-183.164 183.164 183.164c16.661 16.662 43.678 16.662 60.339 0s16.661-43.677 0-60.34l-213.333-213.333c-16.661-16.661-43.678-16.661-60.339 0l-213.334 213.333c-16.662 16.663-16.662 43.677 0 60.34z" />
<glyph unicode="&#xe936;" glyph-name="chevrons-left" d="M499.503 691.503c16.661-16.663 16.661-43.677 0-60.34l-183.163-183.163 183.163-183.164c16.661-16.661 16.661-43.678 0-60.339s-43.678-16.661-60.339 0l-213.334 213.333c-16.662 16.661-16.662 43.678 0 60.339l213.334 213.334c16.661 16.662 43.678 16.662 60.339 0zM798.17 691.503c16.661-16.663 16.661-43.677 0-60.34l-183.164-183.163 183.164-183.164c16.661-16.661 16.661-43.678 0-60.339s-43.678-16.661-60.339 0l-213.333 213.333c-16.661 16.661-16.661 43.678 0 60.339l213.333 213.334c16.661 16.662 43.678 16.662 60.339 0z" />
<glyph unicode="&#xe937;" glyph-name="chevrons-right" d="M524.497 691.503c16.661 16.662 43.678 16.662 60.339 0l213.333-213.334c16.661-16.661 16.661-43.678 0-60.339l-213.333-213.333c-16.661-16.661-43.678-16.661-60.339 0s-16.661 43.678 0 60.339l183.164 183.164-183.164 183.163c-16.661 16.663-16.661 43.677 0 60.34zM225.83 691.503c16.663 16.662 43.677 16.662 60.34 0l213.333-213.334c16.661-16.661 16.661-43.678 0-60.339l-213.333-213.333c-16.663-16.661-43.677-16.661-60.34 0s-16.662 43.678 0 60.339l183.164 183.164-183.164 183.163c-16.662 16.663-16.662 43.677 0 60.34z" />
<glyph unicode="&#xe938;" glyph-name="chevrons-up" d="M481.83 734.17c16.661 16.662 43.678 16.662 60.339 0l213.333-213.334c16.661-16.661 16.661-43.678 0-60.339s-43.678-16.661-60.339 0l-183.164 183.163-183.163-183.163c-16.663-16.661-43.677-16.661-60.34 0s-16.662 43.678 0 60.339l213.334 213.334zM481.83 435.503c16.661 16.661 43.678 16.661 60.339 0l213.333-213.333c16.661-16.661 16.661-43.678 0-60.339s-43.678-16.661-60.339 0l-183.164 183.164-183.163-183.164c-16.663-16.661-43.677-16.661-60.34 0s-16.662 43.678 0 60.339l213.334 213.333z" />
<glyph unicode="&#xe939;" glyph-name="duo-comment-pen" d="M430.2 286.2c-3.914-3.914-8.89-6.57-14.312-7.656l-111.1-22.22c-9.796-1.961-18.43 6.68-16.468 16.468l22.22 111.080c1.086 5.422 3.75 10.406 7.664 14.312l195.22 195.22 112-112.020-195.224-195.184zM719.6 575.6l-48.96-48.96-112 112.020 48.96 48.96c21.88 21.86 57.32 21.86 79.2 0l32.82-32.82c21.78-22 21.78-57.4-0.020-79.2zM512 897.8c-282.8 0-510.2-186.18-510.2-416 0-99.18 42.76-188.2 113.94-261.4-25-100.78-108.62-190.6-109.62-191.6-4.374-4.594-5.562-11.406-3-17.406 2.624-6 8.25-9.594 14.624-9.594 132.62 0 232 63.6 281.2 102.82 65.44-24.62 138.020-38.82 214.8-38.82 282.8 0 510.2 186.18 510.2 414.2s-229.144 417.8-511.944 417.8zM430.2 286.2c-3.914-3.914-8.89-6.57-14.312-7.656l-111.1-22.22c-9.796-1.961-18.43 6.68-16.468 16.468l22.22 111.080c1.086 5.422 3.75 10.406 7.664 14.312l195.22 195.22 112-112.020-195.224-195.184zM719.6 575.6l-48.96-48.96-112 112.020 48.96 48.96c21.88 21.86 57.32 21.86 79.2 0l32.82-32.82c21.78-22 21.78-57.4-0.020-79.2z" />
<glyph unicode="&#xe93a;" glyph-name="people" horiz-adv-x="1097" d="M954.946 613.534c36.169 34.929 58.708 83.88 58.708 137.991 0 53.46-22.557 104.893-61.886 141.129-6.638 6.118-16.962 5.683-23.080-0.937-6.118-6.641-5.683-16.963 0.936-23.083 32.64-30.073 51.368-72.752 51.368-117.109 0-117.24-122.712-193.31-226.754-144.128-4.048 1.911-6.744 5.891-7.007 10.358-1.32 22.17-10.906 92.687-78.424 141.885-3.617 2.634-5.548 7.024-5.007 11.464 12.434 101.779 118.623 166.813 215.892 128.756 8.404-3.266 17.876 0.87 21.164 9.276s-0.87 17.878-9.275 21.144c-113.529 44.366-237.52-27.433-258.586-144.598-0.453-2.546-3.178-3.952-5.573-2.981-46.241 18.703-97.935 18.439-143.499-0.006-2.388-0.967-5.098 0.431-5.552 2.968-16.143 89.55-94.651 157.727-188.795 157.727 0 0 0 0-0.022 0-81.941 0-154.869-52.065-181.479-129.521-2.94-8.535 1.612-17.814 10.147-20.751 8.513-2.919 17.814 1.611 20.751 10.146 22.058 64.282 82.594 107.462 150.6 107.462 81.138 0 148.298-61.029 157.982-139.59 0.545-4.425-1.349-8.811-4.944-11.443-45.926-33.608-74.814-85.974-78.364-141.896-0.283-4.453-2.953-8.426-6.986-10.335-100.271-47.478-222 21.124-226.762 137.488-0.371 9.015-7.948 15.984-16.985 15.655-9.015-0.37-16.005-7.969-15.655-16.984 1.982-48.343 21.84-93.57 56.050-127.736-87.236-14.657-153.913-90.695-153.913-182.025v-270.106c0-35.632 28.888-64.519 64.522-64.519h201.598v-82.231c0-35.646 28.898-64.541 64.543-64.538l437.32 0.018c34.757 0.786 63.042 29.725 63.042 64.523v82.227h201.578c35.646 0 64.541 28.895 64.541 64.541v270.084c0 87.19-60.796 160.444-142.197 179.672zM481.306 745.493c99.646 52.903 223.389-13.301 232.978-127.060-0.062 0-0.11 0-0.15-0.022h0.15c1.028-11.751 0.614-23.775-0.563-32.643-0.154-0.022-0.325-0.022-0.501-0.022h0.501c-4.151-42.138-29.429-86.857-70.791-114.037h-0.088v-0.066c-33.861-22.232-73.26-29.744-110.098-24.386v0.088c-0.022-0.022-0.022-0.044-0.022-0.088-18.882 2.224-43.363 10.657-64.304 24.452-101.797 66.929-93.773 217.356 12.888 273.784zM766.826-14.87h-436.164c-17.605 0-31.879 14.27-31.879 31.879v270.084c0 34.103 11.040 66.33 31.922 93.177 5.531 7.12 4.247 17.379-2.873 22.93-7.121 5.533-17.377 4.25-22.931-2.871-25.369-32.644-38.781-71.797-38.781-113.232v-155.195h-201.598c-17.595 0-31.858 14.263-31.858 31.857v270.098c0 83.909 68.021 151.929 151.929 151.929h8.231c48.872-28.606 107.685-33.646 159.851-15.437 6.971 2.432 14.43-1.737 16.098-8.927 6.663-28.738 19.807-55.022 37.793-77.235 5.552-6.857 2.103-17.104-6.385-19.515-14.512-4.122-28.5-10.010-41.6-17.573-7.817-4.531-10.496-14.504-5.989-22.32 4.507-7.819 14.503-10.496 22.318-5.99 36.893 21.336 70.572 20.367 81.236 20.213 2.070-0.029 4.074-0.6 5.881-1.616 59.088-33.181 130.629-31.941 186.843-0.263 2.059 1.159 4.4 1.777 6.758 1.635 79.291-4.743 142.735-70.766 142.735-151.665 0-54.524 0-215.567 0-270.087 0-17.693-14.76-31.876-31.536-31.876zM1064.481 163.756c0-17.573-14.307-31.857-31.879-31.857h-201.578v155.195c0 87.212-60.774 160.486-142.215 179.69 31.386 30.281 50.414 68.93 56.507 108.815 54.543-23.877 119.179-21.208 172.811 10.083 81.178-2.94 146.355-69.925 146.355-151.823v-270.102z" />
<glyph unicode="&#xe93b;" glyph-name="duo-underline" horiz-adv-x="896" d="M896 0c0-35.38-28.62-64-64-64h-768c-35.38 0-64 28.62-64 64s28.62 64 64 64h768c35.4 0 64-28.6 64-64zM96 831.98h32v-320c0-176.44 143.56-318.2 320-318.2s320 143.56 320 318.2v320h32c35.38 0 64 28.64 64 64s-28.62 62.2-64 62.2l-192 0.010c-35.38 0-64-28.64-64-64s28.62-64 64-64h32v-320c0-105.88-86.12-190.2-192-190.2s-192 87.81-192 192.010v320h32c35.38 0 64 28.62 64 64s-28.62 64-64 64l-192-0.010c-35.38 0-64-28.62-64-62.2s28.62-65.81 64-65.81z" />
<glyph unicode="&#xe93c;" glyph-name="wallet-2" d="M938.667 21.333h-853.333c-46.933 0-85.333 38.4-85.333 85.333v682.667c0 46.933 38.4 85.333 85.333 85.333h853.333c46.933 0 85.333-38.4 85.333-85.333v-682.667c0-46.933-38.4-85.333-85.333-85.333zM132.267 98.133h759.467c34.133 0 59.733 29.867 59.733 64v571.733c0 34.133-25.6 64-59.733 64h-759.467c-34.133 0-59.733-29.867-59.733-64v-576c0-34.133 25.6-59.733 59.733-59.733zM652.8 448c0 46.933 38.4 85.333 85.333 85.333h213.333v-170.667h-213.333c-46.933 0-85.333 38.4-85.333 85.333z" />
<glyph unicode="&#xe93d;" glyph-name="student" horiz-adv-x="887" d="M854.924 52.224c8.369 0 15.148 6.779 15.148 15.148v13.435c0 79.087-53.217 149.108-129.42 170.274l-26.477 7.359-11.482 304.21c9.827 10.022 15.906 23.733 15.906 38.851v28.274c0 16.25-7.018 30.899-18.179 41.062v258.866h68.669v-147.695c-21.030-6.485-36.359-26.102-36.359-49.226s15.329-42.742 36.359-49.226v-37.617c0-8.367 6.782-15.148 15.148-15.148 8.359 0 15.142 6.781 15.142 15.148v37.617c21.030 6.484 36.359 26.101 36.359 49.226s-15.329 42.742-36.359 49.226v147.695h15.148c8.366 0 15.148 6.781 15.148 15.148s-6.772 15.148-15.142 15.148h-743.254c-8.367 0-15.148-6.781-15.148-15.148s6.781-15.148 15.148-15.148h114.109v-34.586c0-8.367 6.789-15.148 15.148-15.148 8.367 0 15.148 6.781 15.148 15.148v34.586h454.437v-177.734h-454.437v72.71c0 8.367-6.781 15.148-15.148 15.148-8.36 0-15.148-6.781-15.148-15.148v-153.843c-11.156-10.164-18.172-24.812-18.172-41.062v-28.274c0-15.118 6.070-28.829 15.898-38.851l-11.484-304.217-26.469-7.352c-76.203-21.173-129.429-91.187-129.429-170.281v-13.428c0-8.369 6.781-15.148 15.148-15.148s15.148 6.779 15.148 15.148v13.428c0 65.533 44.101 123.552 107.242 141.087l98.14 27.266 54.015-282.853h-105.898v47.462c0 8.366-6.781 15.148-15.148 15.148s-15.148-6.782-15.148-15.148v-47.462h-123.203v30.375c0 8.366-6.781 15.148-15.148 15.148-8.359 0-15.141-6.782-15.141-15.148v-45.524c0-8.366 6.781-15.148 15.141-15.148h292.78c0.024 0 0.039-0.007 0.062-0.007s0.047 0.007 0.062 0.007h238.242c0.014 0 0.038-0.007 0.061-0.007 0.017 0 0.038 0.007 0.061 0.007h292.772c8.369 0 15.148 6.782 15.148 15.148v45.524c0 8.366-6.779 15.148-15.148 15.148-8.366 0-15.148-6.782-15.148-15.148v-30.375h-123.194v47.462c0 8.366-6.789 15.148-15.148 15.148-8.366 0-15.148-6.782-15.148-15.148v-47.462h-105.899l54.016 282.853 98.14-27.266c63.14-17.534 107.244-75.554 107.244-141.087v-13.428c-0.010-8.369 6.772-15.148 15.138-15.148zM784.237 711.571c-11.694 0-21.21 9.515-21.21 21.211s9.516 21.211 21.21 21.211c11.697 0 21.204-9.516 21.204-21.211s-9.506-21.211-21.204-21.211zM568.146 299.001c-1.321 0.369-2.69 0.556-4.055 0.556h-33.328v106.646c55.962 26.658 98.014 77.94 112.063 139.759h20.224c3.393 0 6.704 0.321 9.923 0.898l10.564-279.914-115.391 32.055zM385.341 394.643c18.272-5.359 37.584-8.243 57.562-8.243 19.975 0 39.298 2.884 57.562 8.243v-105.015l-57.562-73.547-57.562 73.547v105.015zM688.302 629.775v-28.274c0-13.923-11.329-25.242-25.252-25.242h-15.138v78.765h15.138c13.923 0 25.252-11.328 25.252-25.25zM670.123 684.853c-2.321 0.297-4.673 0.469-7.072 0.469h-15.138v36.351h22.211v-36.82zM617.615 670.173v-78.772c0-96.338-78.377-174.705-174.711-174.705-96.328 0-174.703 78.367-174.703 174.705v130.272h349.414v-51.5zM215.686 721.673h22.218v-36.351h-15.148c-2.398 0-4.75-0.172-7.070-0.469v36.82zM237.904 591.401v-15.142h-15.148c-13.922 0-25.242 11.319-25.242 25.242v28.274c0 13.922 11.32 25.25 25.242 25.25h15.148v-63.624zM212.834 546.86c3.227-0.577 6.539-0.898 9.922-0.898h20.235c14.039-61.812 56.093-113.101 112.054-139.759v-106.646h-33.328c-1.367 0-2.727-0.188-4.047-0.556l-115.398-32.055 10.562 279.914zM549.536-33.7h-213.265l-55.57 290.99 43.086 11.971h39.030l68.157-87.095c2.874-3.669 7.274-5.813 11.93-5.813s9.056 2.144 11.93 5.813l68.154 87.095h39.031l43.087-11.971-55.569-290.99z" />
<glyph unicode="&#xe93e;" glyph-name="comment" horiz-adv-x="1192" d="M1191.958 531.979c0-75.852-27.090-146.286-81.27-211.302s-124.614-119.196-216.72-157.122-189.63-54.18-297.989-54.18c-32.508 0-65.016 0-97.524 5.418-86.688-75.852-189.63-130.032-303.407-162.54-21.672-5.418-48.762-10.836-75.852-16.254-5.418 0-16.254 0-21.672 5.418s-10.836 10.836-10.836 21.672v0c0 0 0 5.418 0 5.418 0 5.418 0 5.418 0 5.418s0 5.418 5.418 5.418l16.254 16.254c5.418 5.418 10.836 10.836 21.672 21.672s16.254 21.672 21.672 27.090 10.836 16.254 21.672 27.090 16.254 21.672 21.672 32.508c5.418 10.836 10.836 21.672 16.254 37.926 5.418 27.090 10.836 43.344 10.836 59.598-70.434 37.926-124.614 86.688-162.54 146.286s-59.598 119.196-59.598 184.212c0 59.598 16.254 113.778 48.762 167.958s70.434 97.524 124.614 135.45 119.196 70.434 189.63 92.106 151.704 32.508 232.974 32.508c108.36 0 205.884-16.254 297.989-54.18s162.54-92.106 216.72-157.122c54.18-65.016 81.27-135.45 81.27-216.72z" />
<glyph unicode="&#xe93f;" glyph-name="evaluated" horiz-adv-x="853" d="M28.444 937.244c0 11.378 11.378 22.756 22.756 22.756h551.822c11.378 0 28.444-5.689 39.822-17.067s11.378-22.756 0-34.133c-11.378-11.378-22.756-11.378-34.133 0 0 0 0 0 0 0h-557.511c-11.378 0-22.756 11.378-22.756 28.444zM580.267 937.244c0 11.378 11.378 22.756 22.756 22.756s28.444-5.689 39.822-17.067l147.911-147.911c5.689-5.689 11.378-11.378 11.378-17.067s5.689-11.378 5.689-22.756v-295.822c0-11.378-11.378-22.756-22.756-22.756s-28.444 11.378-28.444 22.756v295.822c0 0 0 0 0 0s0 0 0 0l-147.911 147.911c0 0 0 0 0 0-17.067 5.689-28.444 17.067-28.444 34.133zM17.067 942.933c11.378 11.378 22.756 17.067 34.133 17.067s22.756-11.378 22.756-22.756c0-11.378-11.378-22.756-22.756-22.756 0 0 0 0 0 0s0 0 0 0v-893.156c0 0 0 0 0 0s0 0 0 0h301.511c11.378 0 22.756-11.378 22.756-22.756s-11.378-22.756-22.756-22.756h-301.511c-11.378 0-28.444 5.689-39.822 17.067-5.689-5.689-11.378 5.689-11.378 22.756v893.156c0 11.378 5.689 22.756 17.067 34.133zM301.511 812.089c-17.067 17.067-39.822 28.444-68.267 28.444s-51.2-11.378-68.267-28.444c-17.067-17.067-28.444-45.511-28.444-68.267 0-28.444 11.378-51.2 28.444-68.267s45.511-28.444 68.267-28.444c28.444 0 51.2 11.378 68.267 28.444s28.444 45.511 28.444 68.267c5.689 22.756-5.689 51.2-28.444 68.267zM233.244 789.333c11.378 0 28.444 0 34.133-11.378 11.378-11.378 17.067-22.756 17.067-34.133s-5.689-22.756-17.067-34.133c-5.689-11.378-22.756-17.067-34.133-17.067s-28.444 5.689-34.133 17.067c-11.378 5.689-17.067 17.067-17.067 34.133 0 11.378 5.689 22.756 17.067 34.133s22.756 11.378 34.133 11.378zM642.844 743.822c0 11.378-11.378 22.756-22.756 22.756h-199.111c-11.378 0-22.756-11.378-22.756-22.756s11.378-22.756 22.756-22.756h199.111c11.378-5.689 22.756 5.689 22.756 22.756zM329.956 556.089c-11.378 11.378-22.756 11.378-34.133 0l-62.578-62.578-62.578 62.578c-11.378 11.378-22.756 11.378-34.133 0s-11.378-22.756 0-34.133l62.578-62.578-62.578-56.889c-11.378-11.378-11.378-22.756 0-34.133s22.756-11.378 34.133 0l62.578 62.578 62.578-62.578c11.378-11.378 22.756-11.378 34.133 0 11.378 5.689 11.378 22.756 0 34.133l-62.578 56.889 62.578 62.578c11.378 11.378 11.378 22.756 0 34.133zM642.844 459.378c0 11.378-11.378 22.756-22.756 22.756h-199.111c-11.378 0-22.756-11.378-22.756-22.756s11.378-22.756 22.756-22.756h199.111c11.378 0 22.756 11.378 22.756 22.756zM301.511 260.267c-17.067 17.067-39.822 28.444-68.267 28.444s-51.2-11.378-68.267-28.444c-17.067-17.067-28.444-45.511-28.444-68.267 0-28.444 11.378-51.2 28.444-68.267s45.511-28.444 68.267-28.444 51.2 11.378 68.267 28.444c17.067 17.067 28.444 45.511 28.444 68.267 5.689 28.444-5.689 51.2-28.444 68.267zM233.244 243.2c11.378 0 28.444-5.689 34.133-17.067 11.378-11.378 17.067-22.756 17.067-34.133s-5.689-28.444-17.067-34.133c-11.378-11.378-22.756-17.067-34.133-17.067s-28.444 5.689-34.133 17.067c-11.378 11.378-17.067 22.756-17.067 34.133s5.689 22.756 17.067 34.133c11.378 11.378 22.756 17.067 34.133 17.067zM625.778 345.6c22.756 0 45.511-5.689 68.267-11.378 22.756-11.378 39.822-22.756 56.889-39.822s28.444-34.133 39.822-56.889c11.378-22.756 11.378-45.511 11.378-68.267s-5.689-45.511-11.378-68.267c-5.689-11.378-11.378-28.444-22.756-39.822l79.644-79.644c11.378-11.378 11.378-22.756 0-34.133s-22.756-11.378-34.133 0l-79.644 79.644c-28.444-22.756-68.267-34.133-108.089-34.133-45.511 0-91.022 17.067-125.156 51.2s-51.2 79.644-51.2 125.156c0 45.511 17.067 91.022 51.2 125.156 17.067 17.067 34.133 28.444 56.889 39.822 22.756 5.689 45.511 11.378 68.267 11.378zM676.978 283.022c-17.067 5.689-34.133 11.378-51.2 11.378s-34.133-5.689-51.2-11.378c-17.067-5.689-28.444-17.067-39.822-28.444-22.756-22.756-34.133-56.889-34.133-91.022s11.378-68.267 39.822-91.022c22.756-22.756 56.889-39.822 91.022-39.822s68.267 11.378 91.022 34.133c11.378 11.378 22.756 28.444 28.444 39.822 5.689 17.067 11.378 34.133 11.378 51.2s-5.689 34.133-11.378 51.2c-5.689 17.067-17.067 28.444-28.444 39.822-17.067 17.067-28.444 28.444-45.511 34.133z" />
<glyph unicode="&#xe940;" glyph-name="clipboard" d="M256 746.667c-11.316 0-22.168-4.495-30.17-12.497s-12.497-18.854-12.497-30.17v-597.333c0-11.315 4.495-22.17 12.497-30.17s18.854-12.497 30.17-12.497h512c11.315 0 22.17 4.497 30.17 12.497s12.497 18.854 12.497 30.17v597.333c0 11.316-4.497 22.168-12.497 30.17s-18.854 12.497-30.17 12.497h-85.333c-23.565 0-42.667 19.103-42.667 42.667s19.102 42.667 42.667 42.667h85.333c33.946 0 66.505-13.486 90.509-37.49s37.491-56.562 37.491-90.51v-597.333c0-33.95-13.487-66.505-37.491-90.509s-56.559-37.491-90.509-37.491h-512c-33.948 0-66.505 13.487-90.51 37.491s-37.49 56.559-37.49 90.509v597.333c0 33.948 13.486 66.505 37.49 90.51s56.562 37.49 90.51 37.49h85.333c23.564 0 42.667-19.103 42.667-42.667s-19.103-42.667-42.667-42.667h-85.333zM298.667 832c0 47.128 38.205 85.333 85.333 85.333h256c47.13 0 85.333-38.205 85.333-85.333v-85.333c0-47.128-38.204-85.333-85.333-85.333h-256c-47.128 0-85.333 38.205-85.333 85.333v85.333zM640 832h-256v-85.333h256v85.333z" />
<glyph unicode="&#xe941;" glyph-name="clock" d="M512 797.091c-192.797 0-349.091-156.294-349.091-349.091s156.294-349.090 349.091-349.090c192.798 0 349.090 156.292 349.090 349.090s-156.292 349.091-349.090 349.091zM85.333 448c0 235.642 191.025 426.667 426.667 426.667 235.639 0 426.667-191.025 426.667-426.667 0-235.639-191.027-426.667-426.667-426.667-235.642 0-426.667 191.027-426.667 426.667zM512 719.515c21.423 0 38.788-17.366 38.788-38.788v-208.757l133.709-66.854c19.162-9.579 26.927-32.879 17.348-52.036-9.583-19.162-32.879-26.927-52.041-17.348l-155.153 77.577c-13.137 6.571-21.44 20.002-21.44 34.692v232.727c0 21.422 17.365 38.788 38.788 38.788z" />
<glyph unicode="&#xe942;" glyph-name="currency" d="M449.955 600.017h30.022v-120.041h-29.975c-16.581 0-30.022 13.441-30.022 30.022v0 60.044c0 16.524 13.498 29.975 30.022 29.975zM573.999 415.977c16.524 0 29.975-13.405 29.975-29.975v-60.044c0-16.524-13.498-29.975-29.975-29.975h-30.022v120.041h30.022zM513.955 779.962c181.993 0 330.007-152.017 330.007-333.964 0-181.993-148.015-330.007-330.007-330.007-181.9 0-333.964 148.015-333.964 330.007s152.064 334.010 334.010 334.010zM573.999 480.023h-30.022v119.948h30.022c16.524 0 29.975-13.498 29.975-30.022 0-16.581 13.441-30.022 30.022-30.022s30.022 13.441 30.022 30.022v0c-0.053 49.695-40.324 89.966-90.014 90.019h-30.027v29.975c0 0.014 0 0.030 0 0.047 0 16.555-13.42 29.975-29.975 29.975v0c-16.57 0-33.978-13.452-33.978-30.022v-29.975h-30.022c-49.695-0.053-89.966-40.324-90.019-90.014v-60.002c0-49.617 40.401-94.022 90.019-94.022h29.975v-119.994h-29.975c-16.581 0-30.022 13.441-30.022 30.022v0c0 16.568-13.431 29.999-29.999 29.999s-29.999-13.431-29.999-29.999v0c0-49.617 40.401-90.019 90.019-90.019h29.975v-29.975c0-16.57 17.455-30.022 33.978-30.022 0.014 0 0.030 0 0.047 0 16.555 0 29.975 13.42 29.975 29.975 0 0.016 0 0.033 0 0.049v-0.003 29.975h30.022c49.675 0.079 89.919 40.341 89.972 90.014v60.002c0 49.617-40.355 94.022-89.972 94.022zM513.955 960c281.228 0 510.045-232.774 510.045-514.001s-228.817-509.999-509.999-509.999-514.001 228.771-514.001 509.999c0 281.228 232.82 514.001 514.001 514.001zM513.955 55.622c215.040 0 390.423 175.337 390.423 390.377s-175.337 394.38-390.377 394.38c-215.040 0-394.426-179.759-394.426-394.799s179.386-389.958 394.426-389.958z" />
<glyph unicode="&#xe943;" glyph-name="arrow-rotate-left" d="M80 928c26.5 0 48-21.5 48-48v-204.2c79.4 133.060 224.6 219.98 384.2 219.98 247 0 447.8-200.78 447.8-447.78s-200.8-447.8-447.8-447.8c-104.62 0-206.6 36.66-287 103.54-20.38 17-23.12 47.24-6.124 67.62 17 20.44 47.32 23.12 67.62 6.124 63.104-52.484 143.104-81.484 225.304-81.484 194.060 0 352 157.94 352 352s-158 352-352 352c-133.080 0-253.6-76.56-313-192h201c26.6 0 48-21.6 48-48s-21.4-48-48-48h-320c-26.5 0-48 21.4-48 48v320c0 26.5 21.5 48 48 48z" />
<glyph unicode="&#xe944;" glyph-name="arrow-right-to-line" horiz-adv-x="896" d="M798.2 784v-672c0-26.5 21.52-48 48.040-48 28.16 0 49.76 21.4 49.76 48v672c0 26.5-21.6 48-49.8 48-24.8 0-48-21.5-48-48zM351.4 669l183.96-173.060h-487.2c-26.64 0.060-48.16-21.54-48.16-47.94s21.52-48 48.040-48h487.2l-183.96-173.060c-10.080-9.54-15.080-22.14-15.080-34.94 0-11.812 4.316-23.62 13.072-32.88 18.138-19.312 48.54-20.24 67.86-2.062l272.2 256c19.388 18.124 19.388 51.74 0 69.88l-272.2 256c-19.332 18.262-49.732 17.262-67.932-2.138-18.2-19.2-19-49.6 2.2-67.8z" />
<glyph unicode="&#xe945;" glyph-name="forward-step" horiz-adv-x="640" d="M528 832c-26.5 0-48-21.5-48-48v-211.6l-346.82 247.66c-11.040 7.94-24.080 11.94-37.18 11.94-10.024 0-20.080-2.344-29.32-7.058-21.32-11-34.68-32.96-34.68-56.96v-638.2c0-24 13.374-45.96 34.68-56.96 9.26-6.422 19.32-8.822 29.32-8.822 13.124 0 26.12 4 37.18 11.938l346.82 247.662v-211.6c0-26.5 21.5-48 48-48s48 21.4 48 48v672c0 26.5-21.4 48-48 48zM480 441.6l-352-251.4v515.6l352-251.4v-12.8z" />
<glyph unicode="&#xe946;" glyph-name="forward" d="M512 767.94v-639.8c0-38.54 31.4-64.14 64.4-64.14 14 0 28.3 4.614 40.58 14.812l384 318.2c30.5 25.74 30.5 72.74 0 98.48l-384 318.2c-12.18 13.708-26.58 18.308-40.58 18.308-33 0-64.4-25.62-64.4-64.060zM608 699.8l302.2-251.8-302.2-251.8v503.6zM0 767.94v-639.8c0-23.38 12.75-44.9 33.24-56.14 9.562-5.25 20.4-7.89 30.98-7.89 11.938 0 23.72 3.36 34.16 10.046l327.4 208.4c22.38 14.218 29 43.9 14.75 66.28-14.13 22.164-43.93 28.764-66.33 14.564l-278.2-177v523.2l278.2-177.040c22.38-14.25 52.060-7.656 66.26 14.718 14.25 22.38 7.624 52.060-14.75 66.28l-327.39 208.402c-19.7 12.48-44.56 13.38-65.060 2.14s-33.26-32.78-33.26-56.16z" />
<glyph unicode="&#xe947;" glyph-name="forward-fast" d="M0 767.94v-639.8c0-38.54 31.42-64.14 64.42-64.14 14.004 0 28.28 4.614 40.58 14.812l343 310.788v-261.4c0-38.6 31.4-64.2 64.4-64.2 14.004 0 28.28 4.614 40.58 14.812l343.020 310.788v-277.4c0-26.52 21.48-48 48-48 26.5 0 48 21.48 48 48v671.74c0 26.5-21.48 46.2-46.2 46.2-26.52 0-48-21.5-48-48v-279.6l-343 313c-14 11.84-28.4 16.46-42.4 16.46-33 0-64.4-25.62-64.4-64.060v-263.8l-343 313.040c-12.28 10.2-26.58 14.82-40.58 14.82-33 0-64.42-25.62-64.42-64.060zM544 695.4l272.4-248.6-272.4-246.6v495.2zM96 695.4l272.4-248.6-272.4-246.6v495.2z" />
<glyph unicode="&#xe948;" glyph-name="code" d="M652.497 734.17c16.661 16.662 43.678 16.662 60.339 0l256-256c16.661-16.661 16.661-43.678 0-60.339l-256-256c-16.661-16.661-43.678-16.661-60.339 0s-16.661 43.678 0 60.339l225.83 225.83-225.83 225.83c-16.661 16.663-16.661 43.677 0 60.34zM371.503 734.17c16.662-16.663 16.662-43.677 0-60.34l-225.83-225.83 225.83-225.83c16.662-16.661 16.662-43.678 0-60.339s-43.677-16.661-60.34 0l-256 256c-16.662 16.661-16.662 43.678 0 60.339l256 256c16.663 16.662 43.677 16.662 60.34 0z" />
<glyph unicode="&#xe949;" glyph-name="backward-step" horiz-adv-x="640" d="M64 784v-672c0-26.6 21.5-48 48-48s48 21.5 48 48v211.6l346.8-247.8c11-7.8 24-11.8 37.2-11.8 10 0 20.060 2.312 29.32 7.062 21.32 11 34.68 32.96 34.68 56.96v639.958c0 24-13.374 45.96-34.68 56.96-9.238 4.714-19.296 7.058-29.32 7.058-13.098-0.004-26.14-4.004-37.18-11.934l-346.82-247.664v211.6c0 26.5-21.5 48-48 48s-48-21.5-48-48zM160 454.4l352 251.4v-515.6l-352 251.4v12.8z" />
<glyph unicode="&#xe94a;" glyph-name="solid-underline" horiz-adv-x="896" d="M832 64h-768c-35.38 0-64-28.62-64-64s28.62-64 64-64h768c35.38 0 64 28.62 64 64s-28.6 64-64 64zM96 831.98h32v-320c0-176.44 143.56-318.2 320-318.2s320 143.56 320 318.2v320h32c35.38 0 64 28.64 64 64s-28.62 62.2-64 62.2l-192 0.010c-35.38 0-64-28.64-64-64s28.62-64 64-64h32v-320c0-105.88-86.12-190.2-192-190.2s-192 87.81-192 192.010v320h32c35.38 0 64 28.62 64 64s-28.62 64-64 64l-192-0.010c-35.38 0-64-28.62-64-62.2s28.62-65.81 64-65.81z" />
<glyph unicode="&#xe94b;" glyph-name="right-square-filled-left" d="M144 848h736c17.7 0 32-14.3 32-32v-736c0-17.7-14.3-32-32-32h-736c-17.7 0-32 14.3-32 32v736c0 17.7 14.3 32 32 32zM365.3 441.5l246-178c5.3-3.8 12.7 0 12.7 6.5v46.9c0 10.2-4.9 19.9-13.2 25.9l-145.4 105.2 145.4 105.2c8.3 6 13.2 15.6 13.2 25.9v46.9c0 6.5-7.4 10.3-12.7 6.5l-246-178c-4.4-3.2-4.4-9.8 0-13z" />
<glyph unicode="&#xe94c;" glyph-name="copy" d="M409.6 552c-0.426 0-0.832-0.17-1.133-0.467-0.298-0.301-0.467-0.707-0.467-1.133v-418.134c0-0.422 0.17-0.829 0.467-1.13 0.301-0.301 0.707-0.47 1.133-0.47h418.134c0.422 0 0.829 0.17 1.13 0.47s0.47 0.707 0.47 1.13v418.134c0 0.426-0.17 0.832-0.47 1.133-0.301 0.298-0.707 0.467-1.13 0.467h-418.134zM374.528 585.472c9.302 9.302 21.917 14.528 35.072 14.528h418.134c13.155 0 25.77-5.226 35.072-14.528s14.528-21.917 14.528-35.072v-418.134c0-13.155-5.226-25.77-14.528-35.072s-21.917-14.528-35.072-14.528h-418.134c-13.155 0-25.77 5.226-35.072 14.528s-14.528 21.917-14.528 35.072v418.134c0 13.155 5.226 25.77 14.528 35.072zM161.199 798.804c9.302 9.302 21.918 14.528 35.073 14.528h418.134c13.152 0 25.77-5.226 35.072-14.528s14.528-21.918 14.528-35.072v-187.732c0-13.258-10.746-24-24-24-13.258 0-24 10.742-24 24v187.732c0 0.424-0.17 0.831-0.47 1.131s-0.707 0.469-1.13 0.469h-418.134c-0.424 0-0.831-0.169-1.132-0.469s-0.468-0.707-0.468-1.131v-418.132c0-0.426 0.168-0.832 0.468-1.133s0.707-0.467 1.132-0.467h187.734c13.254 0 24-10.746 24-24 0-13.258-10.746-24-24-24h-187.734c-13.155 0-25.771 5.226-35.073 14.525-9.302 9.302-14.527 21.92-14.527 35.075v418.132c0 13.155 5.226 25.771 14.527 35.072z" />
<glyph unicode="&#xe94d;" glyph-name="right-square-filled-right" d="M911.36 816.64v-735.573c0-17.067-13.653-32.427-32.427-32.427h-735.573c-17.067 0-32.427 13.653-32.427 32.427v735.573c0 17.067 13.653 32.427 32.427 32.427h737.28c17.067-1.707 30.72-15.36 30.72-32.427zM658.773 454.827l-245.76 177.493c-5.12 3.413-11.947 0-11.947-6.827v-46.080c0-10.24 5.12-20.48 13.653-25.6l143.36-105.813-145.067-105.813c-8.533-6.827-13.653-15.36-13.653-25.6v-46.080c0-6.827 6.827-10.24 11.947-6.827l247.467 177.493c5.12 3.413 5.12 10.24 0 13.653z" />
<glyph unicode="&#xe94e;" glyph-name="backward" d="M447.6 832c-14.004 0-28.3-4.61-40.58-14.812l-384.14-319.988c-30.5-25.74-30.5-72.74 0-98.48l384-318.2c12.32-11.92 26.72-16.52 40.72-16.52 33 0 64.44 25.62 64.44 64.060v639.8c-1.84 38.52-31.44 64.14-64.44 64.14zM414.2 196.2l-300.44 251.8 302.2 251.8v-503.6zM990.8 824.1c-20.5 11.25-45.38 10.344-65.060-2.124l-327.4-208.4c-22.38-14.218-29-43.9-14.75-66.28 14.188-22.38 43.88-28.96 66.26-14.718l278.15 177.022v-523.4l-278.2 177.040c-22.38 14.25-52.060 7.656-66.26-14.718-14.25-22.38-7.624-52.060 14.75-66.28l327.4-208.4c10.438-6.688 22.22-10.046 34.16-10.046 10.562 0 21.4 2.64 30.96 7.89 20.39 11.514 33.19 32.914 33.19 58.114v638.14c0 23.38-12.8 44.9-33.2 56.16z" />
<glyph unicode="&#xe94f;" glyph-name="backward-fast" d="M959.6 832c-14 0-28.28-4.614-40.58-14.812l-343.020-312.988v263.74c0 38.44-31.4 64.060-64.4 64.060-14 0-28.28-4.614-40.58-14.812l-343.020-312.988v279.74c0 26.5-21.48 48-48 48-26.5 0-48-21.48-48-46.2v-671.8c0-26.52 21.5-48 48-48 26.52 0 48 21.48 48 48v275.66l343-310.6c12.2-10.4 26.6-15 40.6-15 33 0 64.4 25.6 64.4 65.8v259.8l343-310.6c12.2-10.4 26.6-15 40.6-15 33 0 64.4 25.6 64.4 65.8v638.14c0 38.44-31.4 64.060-64.4 64.060zM480 200.2l-272.4 246.8 272.4 248.4v-495.2zM928 200.2l-272.4 246.8 272.4 248.4v-495.2z" />
<glyph unicode="&#xe950;" glyph-name="arrow-left-to-line" horiz-adv-x="896" d="M96.060 112v672c0 26.5-21.52 48-48.040 48s-48.020-21.5-48.020-48v-672c0-26.6 21.52-48 48.040-48s48.020 21.4 48.020 48zM544.6 227l-184 173h487.2c26.6 0 48.2 21.4 48.2 48s-21.52 46.2-48.040 46.2h-487.36l183.96 173.060c10.070 9.438 15.136 22.18 15.136 34.94 0 11.812-4.316 23.62-13.072 32.88-18.138 19.312-48.54 20.24-67.86 2.062l-272.2-256c-19.388-18.124-19.388-51.74 0-69.88l272.2-256c19.326-18.188 49.72-17.25 67.86 2.062 18.376 21.076 17.376 51.476-2.024 69.676z" />
<glyph unicode="&#xe951;" glyph-name="arrow-rotate-right" d="M992 880v-320c0-26.6-21.4-48-48-48h-320c-26.4 0-48 21.4-48 48s21.5 48 48 48h201c-59.4 115.4-180 192-313 192-195.8 0-352-156.2-352-352s157.94-352 352-352c82.18 0 162.18 28.94 225.2 81.5 20.32 17 50.62 14.312 67.62-6.124 17-20.38 14.25-50.62-6.124-67.62-80.32-66.88-182.34-103.54-287-103.54-246.896-0.016-447.696 200.784-447.696 447.784s200.8 447.8 447.8 447.8c159.7 0 304.8-86.92 384.2-218.2v202.4c0 26.5 21.5 48 48 48s48-21.5 48-48z" />
<glyph unicode="&#xe952;" glyph-name="circle-stop" d="M656 640h-288c-26.4 0-48-21.6-48-48v-288c0-26.4 21.6-48 48-48h288c26.4 0 48 21.6 48 48v288c0 26.4-21.6 48-48 48zM512 960c-282.8 0-512-229.2-512-512s229.2-512 512-512 512 229.2 512 512-229.2 512-512 512zM512 32c-229.4 0-416 186.62-416 416s186.6 416 416 416 416-186.62 416-416-186.6-416-416-416z" />
<glyph unicode="&#xe953;" glyph-name="circle-play" d="M376.6 665.8c15 8.6 33.6 10 48.4-0.8l288-176c14.2-8.8 23-24.2 23-41s-8.8-32.2-23-41l-288-176c-14.8-9-33.4-9.4-48.4-0.8-15.2 8.4-24.6 24.4-24.6 41.8v353.8c0 15.6 9.4 31.6 24.6 40v0zM1024 448c0-282.8-229.2-512-512-512s-512 229.2-512 512c0 282.8 229.2 512 512 512s512-229.2 512-512zM512 864c-229.8 0-416-186.2-416-416s186.2-416 416-416c229.8 0 416 186.2 416 416s-186.2 416-416 416z" />
<glyph unicode="&#xe954;" glyph-name="calendar2" horiz-adv-x="1067" d="M912.009 803.589h-26.022v81.483c0 19.393-15.718 35.116-35.115 35.116s-35.115-15.722-35.115-35.116v-81.478h-68.898v81.478c0 19.393-15.718 35.116-35.115 35.116-19.401 0-35.119-15.722-35.119-35.116v-81.478h-286.59v81.478c0 19.393-15.718 35.116-35.116 35.116s-35.116-15.722-35.116-35.116v-81.478h-68.897v81.478c0 19.393-15.718 35.116-35.116 35.116s-35.116-15.722-35.116-35.116v-81.478h-26.023c-73.514-0.005-133.318-59.809-133.318-133.323v-561.125c0-73.515 59.805-133.325 133.323-133.325h757.352c73.515 0 133.325 59.806 133.325 133.325v561.125c0 73.514-59.806 133.318-133.325 133.318zM154.656 733.357h757.352c34.79 0 63.091-28.303 63.091-63.091v-8.727h-883.535v8.727c0 34.788 28.303 63.091 63.092 63.091zM912.009 46.054h-757.352c-34.788 0-63.092 28.301-63.092 63.091v505.572h883.535v-505.572c0-34.79-28.301-63.091-63.091-63.091zM728.674 187.063h-65.698v224.998h-76.727v43.652c20.25 0.9 34.428 2.249 42.526 4.049 12.902 2.85 23.403 8.55 31.501 17.101 5.551 5.85 9.749 13.649 12.599 23.398 1.651 5.85 2.475 10.202 2.475 13.052h53.325v-326.251zM409.359 513.301c-74.282 0-109.421-51.597-109.421-162.351s35.139-161.911 109.421-161.911c74.281 0 109.421 51.157 109.421 161.911s-35.14 162.351-109.421 162.351zM409.359 238.861c-35.589 0-45.37 30.69-45.37 112.090s9.786 112.533 45.37 112.533c35.582 0 45.37-31.134 45.37-112.533 0.004-81.399-9.788-112.090-45.37-112.090z" />
<glyph unicode="&#xe955;" glyph-name="graduate" horiz-adv-x="981" d="M910.669 474.837c0 337.666 0.943 316.154-2.206 323.921 6.737 16.646-2.539 35.224-19.554 40.086l-420.002 120c-5.385 1.54-11.093 1.54-16.478 0l-420.002-120c-12.882-3.678-21.76-15.45-21.76-28.846s8.878-25.166 21.758-28.846l158.242-45.21c0-1.358 0-2.612 0-3.782 0-10.166 0-13.51 0-13.454 0-16.54 0-51.158 0-118.706 0-116.558 60.136-217.793 147.74-267.436l-16.55-33.101c-80.966-4.634-156.616-39.13-214.728-98.313-62.204-63.351-96.462-146.863-96.462-235.153 0-16.567 13.432-29.999 30-29.999h839.999c16.567 0 30.003 13.431 30.003 29.999 0 88.29-34.261 171.802-96.465 235.149-58.108 59.183-133.756 93.653-214.716 98.291l-16.563 33.122c87.607 49.647 147.742 150.882 147.742 267.438 0 7.398 0 133.934 0 135.942l120 34.286v-295.39c-34.918-12.382-60.002-45.73-60.002-84.838v-59.998c0-16.572 13.436-30.003 30.003-30.003h120c16.567 0 29.999 13.431 29.999 30.003v59.998c0 39.108-25.084 72.457-59.998 84.838zM430.669-4.002h-358.394c14.206 131.814 120.92 235.797 252.656 243.524l105.738-158.609v-84.915zM375.284 272.154l18.572 37.146c21.374-6.067 43.758-9.301 66.811-9.301s45.431 3.234 66.807 9.301l18.573-37.146-85.38-128.073-85.383 128.073zM596.403 239.518c131.738-7.718 238.451-111.706 252.655-243.52h-358.391v84.915l105.737 158.605zM460.668 360c-101.777 0-186.863 83.179-205.977 193.173 63.356-28.266 134.172-43.174 205.977-43.174 71.799 0 142.613 14.908 205.973 43.168-19.115-109.993-104.201-193.167-205.973-193.167zM670.012 633.863c-1.745-8.668-6.882-15.972-14.076-19.504-59.063-29.020-126.588-44.358-195.268-44.358-68.689 0-136.213 15.342-195.275 44.366-9.784 4.806-14.726 15.934-14.726 26.062v78.372c217.724-62.206 203.998-58.8 210.001-58.8 5.999 0-7.765-3.42 210.001 58.8 0-86.114 0.235-80.536-0.657-84.938zM460.668 721.199l-310.799 88.8 310.799 88.802 310.797-88.8-310.797-88.802zM910.669 360h-60.002v29.999c0 16.542 13.457 29.999 29.999 29.999s30.003-13.457 30.003-29.999v-29.999z" />
<glyph unicode="&#xe956;" glyph-name="clock2" horiz-adv-x="1067" d="M533.333 960c-281.918 0-512-230.098-512-512 0-281.92 230.098-512 512-512 281.92 0 512 230.101 512 512 0 281.918-230.097 512-512 512zM533.333-4.002c-249.234 0-452 202.769-452 452.002s202.766 452 452 452c249.233 0 452.002-202.766 452.002-452s-202.769-452.002-452.002-452.002zM278.75 163.418c16.569 0 30 13.431 30 29.999s-13.431 29.999-30 29.999c-16.568 0-30-13.431-30-29.999s13.431-29.999 30-29.999zM787.917 672.583c16.567 0 29.999 13.431 29.999 30s-13.431 30-29.999 30c-16.567 0-29.999-13.431-29.999-30s13.431-30 29.999-30zM257.537 723.796c-11.716-11.716-11.716-30.71 0-42.426s30.71-11.716 42.426 0c11.716 11.716 11.716 30.71 0 42.426-11.714 11.716-30.71 11.716-42.426 0zM766.703 214.63c-11.716-11.716-11.716-30.711 0-42.428s30.711-11.716 42.428 0c11.716 11.716 11.716 30.711 0 42.428s-30.711 11.716-42.428 0zM533.333 718c16.567 0 29.999 13.432 29.999 30v60c0 16.568-13.431 30-29.999 30s-29.999-13.432-29.999-30v-60c0-16.568 13.431-30 29.999-30zM533.333 178.001c-16.567 0-29.999-13.431-29.999-29.999v-60.002c0-16.567 13.431-29.999 29.999-29.999s29.999 13.431 29.999 29.999v60.002c0 16.567-13.431 29.999-29.999 29.999zM263.334 448c0 16.567-13.432 29.999-30 29.999h-60c-16.568 0-30-13.431-30-29.999s13.432-29.999 30-29.999h60c16.568 0 30 13.431 30 29.999zM803.332 448c0-16.567 13.431-29.999 29.999-29.999h60.002c16.567 0 29.999 13.431 29.999 29.999s-13.431 29.999-29.999 29.999h-60.002c-16.567 0-29.999-13.431-29.999-29.999zM563.332 460.425v167.575c0 16.568-13.431 30-29.999 30s-29.999-13.432-29.999-30v-180c0-7.957 3.162-15.586 8.785-21.214l180.002-180.002c11.712-11.712 30.711-11.712 42.428 0 11.712 11.716 11.712 30.711 0 42.428l-171.217 171.213z" />
<glyph unicode="&#xe957;" glyph-name="online-lesson" horiz-adv-x="1067" d="M1015.334 930h-964.001c-16.568 0-30-13.432-30-30v-740c0-16.567 13.432-29.999 30-29.999h302v-104h-74c-16.568 0-30-13.431-30-30.003 0-16.567 13.432-29.999 30-29.999h507.999c16.567 0 29.999 13.431 29.999 29.999 0 16.572-13.431 30.003-29.999 30.003h-73.997v104h301.999c16.567 0 29.999 13.431 29.999 29.999v740c0 16.568-13.431 30-29.999 30zM413.333 26.001v97.997h240v-97.997h-240zM985.335 189.999h-904.002v680.001h904.002v-680.001zM170.333 459.998c16.568 0 30 13.436 30 30.003v8.371c0 42.674 29.204 78.896 69.386 91.166v-12.538c0-16.568 13.432-30 30-30s30 13.432 30 30v12.538c40.184-12.27 69.386-48.492 69.386-91.166v-8.371c0-16.567 13.432-30.003 30.002-30.003 16.567 0 29.999 13.436 29.999 30.003v8.371c0 63.58-39.267 118.34-95.349 142.468 16.038 16.26 25.96 38.57 25.96 63.16 0 49.626-40.374 90-90 90s-90-40.374-90-90c0-24.59 9.922-46.898 25.96-63.158-56.078-24.13-95.344-78.892-95.344-142.47v-8.371c0-16.572 13.432-30.003 30-30.003zM299.719 734c16.542 0 30-13.458 30-30s-13.458-30-30-30c-16.542 0-30 13.458-30 30s13.458 30 30 30zM895.305 363.998h-260.002v24.004c0 16.567-13.431 29.999-29.999 29.999s-29.999-13.431-29.999-29.999v-24.004h-404.138c-16.568 0-30-13.431-30-29.999s13.432-29.999 30-29.999h404.138v-24c0-16.567 13.431-29.999 29.999-29.999s29.999 13.431 29.999 29.999v24h260.002c16.567 0 29.999 13.431 29.999 29.999s-13.431 29.999-29.999 29.999zM549.333 720h344.004c16.567 0 29.999 13.432 29.999 30s-13.431 30-29.999 30h-344.004c-16.567 0-29.999-13.432-29.999-30s13.431-30 29.999-30zM549.333 600h206.016c16.572 0 30.003 13.432 30.003 30s-13.431 30-30.003 30h-206.016c-16.567 0-29.999-13.432-29.999-30s13.431-30 29.999-30zM549.333 480h206.016c16.572 0 30.003 13.431 30.003 29.999s-13.431 30.001-30.003 30.001h-206.016c-16.567 0-29.999-13.434-29.999-30.001s13.431-29.999 29.999-29.999z" />
<glyph unicode="&#xe958;" glyph-name="file-certificate" d="M704 704v256h-352c-53 0-96-42.98-96-96l0.001-169.88c3.464 0.773 7.608 2.024 13.358 3.586l7.59 2.062c10.372 2.812 21.080 4.242 31.8 4.242 32.46 0 64.2-13.352 87.1-36.64l5.484-5.586c4.34-4.438 7.376-7.734 10.054-10.204 3.382-1.109 7.618-2.132 13.406-3.71l7.7-2.11c42.4-11.524 75.5-45.060 86.28-87.14l2.248-8.504c1.582-6.016 2.586-10.36 3.708-13.82 2.48-2.82 5.84-6.008 10.418-10.648l4.824-4.89c30.96-30.96 43.1-76.98 31.76-119.76l-1.704-6.35c-1.785-6.656-3.192-11.29-3.968-15.118 0.741-3.53 1.941-7.73 3.541-13.73l2.168-8.25c11.422-42.58-0.766-88.3-31.44-118.96l-5.75-5.828c-4.308-4.36-7.508-7.406-9.898-10.094-1.121-3.492-2.132-7.882-3.722-13.954l-1.965-7.454c-9.496-37.54-36.040-68.12-71.040-82.94l-1.753-182.32h481.8c53.020 0 96 42.98 96 96v608h-254.2c-37.2 0-65.8 28.6-65.8 64zM768 960v-256h256l-256 256zM457 217c2.75 10.376 4.606 17.828 6.338 23.64 5.188 17.454 9.098 20.18 31.4 42.86 15 15 20.76 37 15.25 57.5-10.75 41.24-11 35.5 0 76.76 5.5 20.76-0.25 42.76-15.25 57.76-22.338 22.68-26.138 25.48-31.338 42.88-1.8 5.8-3.6 13.2-6.4 23.6-1.4 5.2-3.2 10-5.8 14.4-7.6 13.4-20.2 23.4-35.4 27.6-25.6 7-33.2 8.4-42.6 16-3.6 3-7.6 7-15 12.6-1 2.8-6 6.2-8 9.8-5 5.2-10.8 8.8-17 13.4-1.6-1-3-0.4-4.6 0.2-6.2 2.4-13 4-19.8 4-0.035 0 0.035 0 0 0-0.004 0 0.004 0 0 0s0.004 0 0 0c-5 0-10-0.6-15-2 0.488 0.133 0.962 0.078 1.45 0.188-0.45 1.612-1.050 0.012-1.45-0.188-20.4-5.6-29.2-8.2-39.6-8.2-8.718 0-17.394 2.75-37.64 8.25-3.16 1.35-8.36 1.95-13.36 1.95-0.035 0 0.035 0 0 0-6.84 0-13.48-1.6-19.84-4-1.58-0.6-3.040-1.2-4.56-0.2-6.18-4.6-12.060-8.2-17.020-13.4-30-30.2-25-27.2-65.5-38.4-20.24-5.6-36.080-21.6-41.32-42-4.12-15.6-6.2-24.6-8.86-31.2-4.42-11.4-10.3-16.4-28.888-35.4-3.75-3.6-6.836-7.8-9.4-12.4-7.687-13.4-9.888-29.6-5.764-45.2 11-41.24 10.75-35.5 0-76.76-4.124-15.376-1.923-31.6 5.764-45.080 2.562-4.492 5.65-8.68 9.4-12.43 22.12-22.68 26.18-25.54 31.44-42.96 1.75-5.804 3.56-13.226 6.31-23.54 5.25-20.76 21.080-36.76 41.34-42.24 14.376-3.876 20.12-5.376 23.36-6.406s4.006-1.594 8.376-3.594v-228.79l127.98 64 127.98-64v228.8c8.5 4 3.002 2.25 31.74 10 15.184 4.124 27.82 14.156 35.42 27.68 2.642 4.52 4.442 9.32 5.842 14.52zM256 256c-8.844 0-17.482 0.891-25.82 2.594-16.672 3.406-32.16 10.054-45.78 19.25-13.614 9.204-25.36 20.94-34.56 34.56-13.76 20.396-21.8 44.996-21.8 71.596s8.042 51.16 21.84 71.6c9.192 13.618 20.94 25.36 34.56 34.56 13.618 9.196 29.1 15.844 45.78 19.25 8.38 1.79 16.98 2.59 25.78 2.59 70.74 0 127.98-57.24 127.98-128s-57.18-128-127.98-128z" />
<glyph unicode="&#xe959;" glyph-name="currency-usd" d="M305.172 277.999c-7.101 22.468 12.597 42.001 36.161 42.001s42.775-20.727 57.478-39.142c21.669-27.14 64.736-46.191 113.189-46.191 69.547 0 128 39.253 128 85.333 0 46.933-44.373 64-138.24 86.613-90.453 22.613-203.093 50.773-203.093 169.387 0 76.373 62.72 141.227 149.333 162.987v50.347c0 23.564 19.102 42.667 42.667 42.667h42.667c23.565 0 42.667-19.103 42.667-42.667v-50.347c70.182-17.632 124.681-63.56 142.827-120.983 7.104-22.469-12.595-42.003-36.16-42.003s-42.778 20.726-57.476 39.141c-21.67 27.14-64.738 46.192-113.19 46.192-69.547 0-128-39.253-128-85.333 0-46.933 44.373-64 138.24-86.613 90.453-22.613 203.093-50.773 203.093-169.387 0-76.373-62.72-141.227-149.333-162.987v-50.347c0-23.565-19.102-42.667-42.667-42.667h-42.667c-23.565 0-42.667 19.102-42.667 42.667v50.347c-70.184 17.634-124.679 63.561-142.828 120.986z" />
<glyph unicode="&#xe95a;" glyph-name="database" d="M170.667 746.667c0-0.038-0.001-0.222 0.13-0.652 0.145-0.476 0.503-1.415 1.366-2.822 1.811-2.95 5.504-7.386 12.423-12.838 14.088-11.102 37.117-22.967 69.377-33.72 64.075-21.358 155.308-35.301 258.036-35.301s193.963 13.943 258.035 35.301c32.26 10.754 55.292 22.618 69.38 33.72 6.916 5.452 10.611 9.888 12.42 12.838 0.866 1.407 1.22 2.346 1.365 2.822 0.132 0.43 0.132 0.612 0.132 0.65 0 0.031 0.004 0.213-0.132 0.655-0.145 0.476-0.499 1.415-1.365 2.822-1.809 2.95-5.504 7.386-12.42 12.838-14.089 11.102-37.12 22.967-69.38 33.72-64.073 21.358-155.307 35.301-258.035 35.301s-193.962-13.943-258.036-35.301c-32.261-10.754-55.29-22.618-69.377-33.72-6.919-5.452-10.612-9.888-12.423-12.838-0.864-1.407-1.221-2.346-1.366-2.822-0.131-0.43-0.13-0.614-0.13-0.652zM226.979 877.653c74.906 24.969 175.673 39.68 285.021 39.68 109.35 0 210.116-14.711 285.022-39.68 37.231-12.41 70.434-28.127 95.211-47.652 24.294-19.146 46.434-46.985 46.434-83.334s-22.14-64.188-46.434-83.334c-24.777-19.525-57.98-35.243-95.211-47.652-74.906-24.969-175.671-39.68-285.022-39.68-109.348 0-210.116 14.711-285.021 39.68-37.23 12.41-70.436 28.127-95.212 47.652-24.294 19.146-46.434 46.985-46.434 83.334s22.139 64.188 46.434 83.334c24.775 19.525 57.982 35.243 95.212 47.652zM128 490.667c23.564 0 42.667-19.102 42.667-42.667 0-0.081 0.003-0.299 0.145-0.768 0.151-0.503 0.514-1.455 1.373-2.863 1.798-2.953 5.457-7.377 12.314-12.809 13.969-11.068 36.851-22.912 69.012-33.651 63.882-21.325 155.097-35.243 258.489-35.243 103.39 0 194.607 13.918 258.487 35.243 32.162 10.739 55.044 22.583 69.013 33.651 6.857 5.431 10.517 9.856 12.314 12.809 0.862 1.408 1.22 2.359 1.374 2.863 0.141 0.469 0.145 0.687 0.145 0.768 0 23.565 19.102 42.667 42.667 42.667s42.667-19.102 42.667-42.667c0-36.241-21.897-64.085-46.17-83.319-24.695-19.571-57.813-35.302-94.985-47.71-74.786-24.969-175.569-39.637-285.513-39.637-109.942 0-210.727 14.669-285.511 39.637-37.172 12.407-70.29 28.139-94.988 47.71-24.272 19.234-46.168 47.078-46.168 83.319 0 23.565 19.103 42.667 42.667 42.667zM128 789.333c23.564 0 42.667-19.103 42.667-42.667v-597.333c0-0.081 0.003-0.299 0.145-0.768 0.151-0.503 0.514-1.455 1.373-2.863 1.798-2.953 5.457-7.377 12.314-12.809 13.969-11.068 36.851-22.912 69.012-33.651 63.882-21.325 155.097-35.243 258.489-35.243 103.39 0 194.607 13.918 258.487 35.243 32.162 10.739 55.044 22.583 69.013 33.651 6.857 5.431 10.517 9.856 12.314 12.809 0.862 1.408 1.22 2.359 1.374 2.863 0.141 0.469 0.145 0.687 0.145 0.768v597.331c0 23.564 19.102 42.669 42.667 42.669s42.667-19.103 42.667-42.667v-597.333c0-36.241-21.897-64.085-46.17-83.319-24.695-19.571-57.813-35.302-94.985-47.71-74.786-24.969-175.569-39.637-285.513-39.637-109.942 0-210.727 14.669-285.511 39.637-37.172 12.407-70.29 28.139-94.988 47.71-24.272 19.234-46.168 47.078-46.168 83.319v597.333c0 23.564 19.103 42.667 42.667 42.667z" />
<glyph unicode="&#xe95b;" glyph-name="delete" d="M309.223 817.429c8.102 9.26 19.807 14.571 32.11 14.571h554.667c33.95 0 66.505-13.486 90.509-37.49s37.491-56.562 37.491-90.51v-512c0-33.95-13.487-66.505-37.491-90.509s-56.559-37.491-90.509-37.491h-554.667c-12.303 0-24.008 5.312-32.11 14.571l-298.667 341.333c-14.076 16.085-14.076 40.107 0 56.192l298.667 341.333zM360.694 746.667l-261.333-298.667 261.333-298.667h535.306c11.315 0 22.17 4.497 30.17 12.497s12.497 18.854 12.497 30.17v512c0 11.316-4.497 22.168-12.497 30.17s-18.854 12.497-30.17 12.497h-535.306zM798.17 606.17c16.661-16.663 16.661-43.677 0-60.34l-256-256c-16.661-16.661-43.678-16.661-60.339 0s-16.661 43.678 0 60.339l256 256c16.661 16.662 43.678 16.662 60.339 0zM481.83 606.17c16.661 16.662 43.678 16.662 60.339 0l256-256c16.661-16.661 16.661-43.678 0-60.339s-43.678-16.661-60.339 0l-256 256c-16.661 16.663-16.661 43.677 0 60.34z" />
<glyph unicode="&#xe95c;" glyph-name="file-certificate-2" d="M494.8 283.4c15 15 20.74 37 15.25 57.5-10.75 41.24-11 35.5 0 76.76 5.496 20.76-0.25 42.76-15.25 57.76-29.8 30.38-28.6 25.38-37.8 66.58-5.2 20.4-22.8 36.4-41.2 42-40.8 11.2-35.8 8.2-65.6 38.4-14.6 15-38 21-56.4 15.6-40.74-11-34.98-11-75.48 0-20.3 5.4-41.8-0.6-56.54-15.6-30-30.2-25-27.2-65.5-38.4-20.24-5.6-35.82-21.6-41.32-42-10.75-41.5-8-36.24-37.74-66.5-14.75-15-20.66-37-15.164-57.76 10.75-41.24 10.75-35.5 0-76.76-5.5-20.5 0.414-42.5 15.164-57.5 29.74-30.24 27-25.24 37.74-66.5 5.5-20.76 21.080-36.76 41.34-42.24 28.74-7.75 23-6 31.74-10v-228.74l127.98 64 127.98-64v228.8c8.5 4 2.998 2.25 31.74 10 19.996 5.5 34.2 21.5 41.24 42.24 9.22 41.36 8.020 36.16 37.82 66.36zM256 256c-70.74 0-127.98 57.24-127.98 128s57.26 128 127.98 128 127.98-57.24 127.98-128-57.18-128-127.98-128zM986.6 773.24l-149.26 149.28c-24.14 23.996-56.74 37.48-90.54 37.48h-364.6c-70.7 0-128-57.3-128-128l0.021-137.88c0 0 44.040 21.4 96 1.508l1.779 136.112c0 17.672 14.328 32 32 32h320v-159.74c0-35.34 28.66-64 64-64h158.2v-576c0-17.672-14.328-32-32-32h-446.2l-1.8-96h448c70.4 0 128 57.6 128 128v618.8c1.8 33.8-11.6 66.4-35.6 90.44z" />
<glyph unicode="&#xe95d;" glyph-name="document" d="M691.379 514.001c0 20.25-16.649 36.666-37.188 36.666h-383.082c-20.541 0-37.193-16.416-37.193-36.666 0-20.254 16.651-36.668 37.193-36.668h383.082c20.54 0 37.188 16.414 37.188 36.668zM271.109 404.002c-20.541 0-37.193-16.418-37.193-36.668 0-20.254 16.651-36.668 37.193-36.668h232.656c20.544 0 37.193 16.414 37.193 36.668 0 20.25-16.649 36.668-37.193 36.668h-232.656zM358.49 52.002h-124.388c-41.015 0-74.384 32.896-74.384 73.331v645.333c0 40.436 33.369 73.333 74.384 73.333h457.26c41.015 0 74.381-32.897 74.381-73.333v-225.5c0-20.251 16.653-36.665 37.193-36.665 20.544 0 37.193 16.414 37.193 36.665v225.5c0 80.872-66.735 146.667-148.766 146.667h-457.26c-82.031 0-148.769-65.795-148.769-146.667v-645.333c0-80.87 66.738-146.667 148.769-146.667h124.388c20.541 0 37.192 16.414 37.192 36.668 0 20.25-16.651 36.668-37.192 36.668zM906.057 386.453c-43.503 42.889-114.291 42.893-157.764 0.030l-204.19-200.862c-4.339-4.262-7.535-9.519-9.318-15.296l-44.467-144.329c-3.942-12.8-0.508-26.692 8.964-36.267 7.095-7.168 16.734-11.059 26.624-11.059 3.307 0 6.647 0.435 9.924 1.331l150.118 40.994c6.178 1.69 11.81 4.919 16.346 9.387l203.763 200.503c43.503 42.893 43.503 112.674 0 155.567zM656.666 89.097l-75.52-20.625 22.101 71.735 137.775 135.526 52.608-51.861-136.964-134.775zM853.487 282.765l-7.206-7.091-52.599 51.857 7.181 7.066c14.502 14.298 38.097 14.298 52.599 0 14.498-14.298 14.498-37.559 0.026-51.831zM654.191 697.333h-383.082c-20.541 0-37.193-16.416-37.193-36.666s16.651-36.667 37.193-36.667h383.082c20.54 0 37.188 16.416 37.188 36.667s-16.649 36.666-37.188 36.666z" />
<glyph unicode="&#xe95e;" glyph-name="dollar-sign" d="M512 960c23.565 0 42.667-19.103 42.667-42.667v-938.667c0-23.565-19.102-42.667-42.667-42.667s-42.667 19.102-42.667 42.667v938.667c0 23.564 19.102 42.667 42.667 42.667zM269.569 733.098c36.007 36.007 84.843 56.236 135.764 56.236h320c23.565 0 42.667-19.103 42.667-42.667s-19.102-42.667-42.667-42.667h-320c-28.29 0-55.421-11.238-75.425-31.242s-31.242-47.135-31.242-75.425c0-28.29 11.238-55.421 31.242-75.426 20.004-20.002 47.135-31.241 75.425-31.241h213.333c50.923 0 99.759-20.228 135.765-56.235s56.235-84.843 56.235-135.765c0-50.923-20.228-99.759-56.235-135.765s-84.843-56.235-135.765-56.235h-362.667c-23.564 0-42.667 19.102-42.667 42.667s19.103 42.667 42.667 42.667h362.667c28.288 0 55.42 11.238 75.426 31.241 20.002 20.006 31.241 47.138 31.241 75.426s-11.238 55.42-31.241 75.426c-20.006 20.002-47.138 31.241-75.426 31.241h-213.333c-50.921 0-99.758 20.228-135.764 56.235s-56.236 84.844-56.236 135.765c0 50.921 20.229 99.758 56.236 135.764z" />
<glyph unicode="&#xe95f;" glyph-name="download" d="M554.667 832c0 23.564-19.102 42.667-42.667 42.667s-42.667-19.103-42.667-42.667v-408.994l-140.497 140.497c-16.663 16.662-43.677 16.662-60.34 0s-16.662-43.678 0-60.34l213.304-213.303c0.102-0.102 0.205-0.205 0.311-0.307 4.023-3.955 8.64-6.946 13.555-8.981 4.996-2.074 10.466-3.221 16.205-3.238 0.043 0 0.085 0 0.128 0s0.085 0 0.128 0c11.686 0.034 22.263 4.766 29.952 12.407zM542.191 289.852l213.312 213.312c16.661 16.661 16.661 43.677 0 60.34s-43.678 16.662-60.339 0l-140.497-140.497v408.994zM128 362.667c23.564 0 42.667-19.102 42.667-42.667v-170.667c0-11.315 4.495-22.17 12.497-30.17s18.854-12.497 30.17-12.497h597.333c11.315 0 22.17 4.497 30.17 12.497s12.497 18.854 12.497 30.17v170.667c0 23.565 19.102 42.667 42.667 42.667s42.667-19.102 42.667-42.667v-170.667c0-33.95-13.487-66.505-37.491-90.509s-56.559-37.491-90.509-37.491h-597.333c-33.948 0-66.505 13.487-90.51 37.491s-37.49 56.559-37.49 90.509v170.667c0 23.565 19.103 42.667 42.667 42.667z" />
<glyph unicode="&#xe960;" glyph-name="download-cloud" d="M267.425 791.004c37.52 62.533 110.735 107.652 244.581 107.652 133.843 0 207.059-45.119 244.579-107.652 30.029-50.048 34.605-107.675 35.296-149.642 37.066-3.877 83.306-16.965 123.485-45.896 50.624-36.448 89.971-96.989 89.971-190.144 0-62.131-17.504-110.237-44.973-146.451-27.28-35.958-63.283-58.758-98.275-72.461-12.342-4.832-26.266 1.254-31.098 13.597-4.835 12.342 1.254 26.266 13.597 31.098 28.752 11.261 56.749 29.379 77.533 56.778 20.592 27.146 35.216 64.842 35.216 117.44 0 77.514-31.754 123.642-70.016 151.19-39.488 28.432-87.594 38.144-119.315 38.144-13.258 0-24 10.746-24 24 0 43.551-0.499 100.847-28.582 147.652-26.48 44.133-81.264 84.348-203.418 84.348-122.157 0-176.941-40.215-203.421-84.348-28.083-46.805-28.58-104.101-28.58-147.652 0-13.254-10.745-24-24-24-31.723 0-79.829-9.712-119.315-38.144-38.262-27.549-70.018-73.677-70.018-151.19 0-52.598 14.624-90.294 35.217-117.44 20.785-27.398 48.782-45.517 77.534-56.778 12.342-4.832 18.43-18.755 13.597-31.098s-18.756-18.429-31.099-13.597c-34.992 13.702-70.995 36.502-98.274 72.461-27.472 36.214-44.975 84.32-44.975 146.451 0 93.155 39.348 153.696 89.971 190.144 40.18 28.931 86.422 42.019 123.485 45.896 0.693 41.967 5.269 99.594 35.298 149.642zM512.006 429.322c13.254 0 24-10.742 24-24v-326.058l108.362 108.362c9.373 9.373 24.57 9.373 33.942 0s9.373-24.566 0-33.939l-149.334-149.334c-9.373-9.373-24.57-9.373-33.942 0l-149.331 149.334c-9.373 9.373-9.373 24.566 0 33.939s24.566 9.373 33.939 0l108.365-108.362v326.058c0 13.258 10.742 24 24 24z" />
<glyph unicode="&#xe961;" glyph-name="droplet" d="M511.77 874.667c11.319 0.005 22.182-4.213 30.187-11.724l241.485-226.546c0-0.003-0.004 0.003 0 0 53.722-50.371 90.325-114.566 105.161-184.45 14.839-69.888 7.249-142.332-21.807-208.171-29.056-65.843-78.276-122.121-141.431-161.715-63.151-39.595-137.404-60.727-213.363-60.727s-150.211 21.133-213.365 60.727c-63.154 39.595-112.372 95.872-141.429 161.715-29.056 65.839-36.646 138.283-21.809 208.171 14.835 69.879 51.423 134.058 105.137 184.426 0.009 0.008-0.009-0.008 0 0l241.057 226.545c7.996 7.517 18.854 11.744 30.178 11.749zM511.812 778.007l-210.932-198.236c-41.789-39.178-70.254-89.104-81.794-143.462s-5.637-110.703 16.963-161.911c22.6-51.209 60.88-94.98 110-125.777s106.87-47.232 165.951-47.232c59.081 0 116.83 16.435 165.952 47.232 49.118 30.797 87.398 74.569 109.999 125.777s28.501 107.554 16.964 161.911c-11.541 54.357-40.009 104.283-81.796 143.462l-211.307 198.236z" />
<glyph unicode="&#xe962;" glyph-name="edit" d="M627.382 856.833c9.555 9.556 25.050 9.556 34.605 0l215.341-215.341c9.558-9.556 9.558-25.050 0-34.605l-366.947-366.95c0 0 0.003 0.003 0 0-12.742-12.746-30.032-19.91-48.058-19.914h-197.335c-13.515 0-24.471 10.954-24.471 24.47v197.331c0.004 18.026 7.168 35.315 19.916 48.061l366.948 366.948zM556.266 716.502l180.733-180.736 88.422 88.422-180.736 180.734-88.419-88.421zM702.394 501.162l-180.736 180.734-226.62-226.619c-3.568-3.568-5.577-8.41-5.579-13.453 0 0 0-0.003 0 0v-172.861h172.854c0 0 0.003 0 0 0 5.046 0 9.888 2.006 13.456 5.574l226.624 226.624zM96 56.47c0 13.514 10.956 24.47 24.471 24.47h783.059c13.514 0 24.47-10.957 24.47-24.47s-10.957-24.47-24.47-24.47h-783.059c-13.515 0-24.471 10.957-24.471 24.47z" />
<glyph unicode="&#xe963;" glyph-name="edit-2" d="M652.497 862.17c16.661 16.662 43.678 16.662 60.339 0l213.333-213.333c16.661-16.663 16.661-43.677 0-60.34l-554.666-554.666c-8.002-8-18.854-12.497-30.17-12.497h-213.333c-23.564 0-42.667 19.102-42.667 42.667v213.333c0 11.315 4.495 22.17 12.497 30.17l554.667 554.667zM170.667 259.661v-152.994h152.994l512 512-152.994 152.994-512-512z" />
<glyph unicode="&#xe964;" glyph-name="edit-3" d="M680.943 863.64c-15.68 14.703-41.105 14.703-56.789 0l-441.725-414.117c-7.531-7.061-11.761-16.636-11.761-26.62v-150.588c0-20.796 17.979-37.649 40.157-37.649h160.627c10.65 0 20.864 3.968 28.395 11.025l441.724 414.119c15.684 14.702 15.684 38.539 0 53.241l-160.627 150.588zM250.98 309.961v97.348l401.568 376.47 103.838-97.347-401.569-376.471h-103.837zM128 106.667c-23.564 0-42.667-19.102-42.667-42.667s19.103-42.667 42.667-42.667h768c23.565 0 42.667 19.102 42.667 42.667s-19.102 42.667-42.667 42.667h-768z" />
</font>
</defs>
</svg>
