<svg width="16" height="20" viewBox="0 0 16 20" fill="none" xmlns="http://www.w3.org/2000/svg">
<path fill-rule="evenodd" clip-rule="evenodd" d="M9.17395 0.465111C9.40565 0.540455 9.5625 0.756398 9.5625 1.00004V7.43754H15C15.2116 7.43754 15.4052 7.55626 15.5013 7.74479C15.5973 7.93332 15.5794 8.15978 15.4549 8.33088L7.45492 19.3309C7.31161 19.5279 7.05775 19.6103 6.82605 19.535C6.59436 19.4596 6.4375 19.2437 6.4375 19V12.5625H1C0.788432 12.5625 0.594756 12.4438 0.49875 12.2553C0.402744 12.0668 0.420649 11.8403 0.545088 11.6692L8.54509 0.669192C8.68839 0.472151 8.94226 0.389766 9.17395 0.465111ZM2.10462 11.4375H7C7.31066 11.4375 7.5625 11.6894 7.5625 12V17.2702L13.8954 8.56254H9C8.68934 8.56254 8.4375 8.3107 8.4375 8.00004V2.72983L2.10462 11.4375Z" fill="url(#paint0_linear_703_5264)"/>
<defs>
<linearGradient id="paint0_linear_703_5264" x1="8" y1="0.4375" x2="8" y2="19.5626" gradientUnits="userSpaceOnUse">
<stop stop-color="#FAA859"/>
<stop offset="1" stop-color="#BB7F44"/>
</linearGradient>
</defs>
</svg>
