<svg width="20" height="20" viewBox="0 0 20 20" fill="none" xmlns="http://www.w3.org/2000/svg">
<path fill-rule="evenodd" clip-rule="evenodd" d="M8.75 2.96875C5.5571 2.96875 2.96875 5.5571 2.96875 8.75C2.96875 11.9429 5.5571 14.5312 8.75 14.5312C11.9429 14.5312 14.5312 11.9429 14.5312 8.75C14.5312 5.5571 11.9429 2.96875 8.75 2.96875ZM2.03125 8.75C2.03125 5.03934 5.03934 2.03125 8.75 2.03125C12.4607 2.03125 15.4688 5.03934 15.4688 8.75C15.4688 12.4607 12.4607 15.4688 8.75 15.4688C5.03934 15.4688 2.03125 12.4607 2.03125 8.75Z" fill="#294563"/>
<path opacity="0.6" fill-rule="evenodd" clip-rule="evenodd" d="M12.838 12.8385C13.021 12.6554 13.3178 12.6554 13.5009 12.8385L17.8314 17.1689C18.0144 17.352 18.0144 17.6488 17.8314 17.8318C17.6483 18.0149 17.3515 18.0149 17.1684 17.8318L12.838 13.5014C12.6549 13.3183 12.6549 13.0215 12.838 12.8385Z" fill="#294563"/>
</svg>
