<?xml version="1.0" encoding="UTF-8"?>
<svg width="21px" height="21px" viewBox="0 0 21 21" version="1.1" xmlns="http://www.w3.org/2000/svg" xmlns:xlink="http://www.w3.org/1999/xlink">
    <!-- Generator: Sketch 53 (72520) - https://sketchapp.com -->
    <title>refresh</title>
    <desc>Created with Sketch.</desc>
    <g id="refresh" stroke="none" stroke-width="1" fill="none" fill-rule="evenodd">
        <path d="M10.0625,0 C11.3125063,0 12.4876247,0.237627832 13.5878906,0.712890625 C14.6881565,1.18815342 15.6516886,1.8359334 16.4785156,2.65625 C17.3053427,3.4765666 17.9563778,4.43684346 18.4316406,5.53710938 C18.9069034,6.63737529 19.1445312,7.81249375 19.1445312,9.0625 C19.1445312,9.77864941 19.0631519,10.4785122 18.9003906,11.1621094 C18.7376294,11.8457065 18.5032567,12.4967417 18.1972656,13.1152344 C17.8912745,13.7337271 17.5136741,14.3131483 17.0644531,14.8535156 C16.6152321,15.3938829 16.1041695,15.8789041 15.53125,16.3085938 C15.3880201,16.4127609 15.2317717,16.451823 15.0625,16.4257812 C14.8932283,16.3997395 14.7565109,16.3216152 14.6523438,16.1914062 C14.5481766,16.0481764 14.5091145,15.8919279 14.5351562,15.7226562 C14.561198,15.5533846 14.6393223,15.4166672 14.7695312,15.3125 C15.2643254,14.9348939 15.7070293,14.5149763 16.0976562,14.0527344 C16.4882832,13.5904925 16.817056,13.0924506 17.0839844,12.5585938 C17.3509128,12.0247369 17.5527337,11.4648467 17.6894531,10.8789062 C17.8261726,10.2929658 17.8945312,9.68750312 17.8945312,9.0625 C17.8945312,7.98176543 17.6894552,6.96940576 17.2792969,6.02539062 C16.8691386,5.08137549 16.3092483,4.25456084 15.5996094,3.54492188 C14.8899704,2.83528291 14.0599006,2.27539268 13.109375,1.86523438 C12.1588494,1.45507607 11.1432346,1.25 10.0625,1.25 C8.99478633,1.25 7.98568184,1.45507607 7.03515625,1.86523438 C6.08463066,2.27539268 5.25456084,2.83528291 4.54492188,3.54492188 C3.83528291,4.25456084 3.27539268,5.08137549 2.86523438,6.02539062 C2.45507607,6.96940576 2.25,7.98176543 2.25,9.0625 C2.25,10.091151 2.4388002,11.0611934 2.81640625,11.9726562 C3.1940123,12.8841191 3.71158525,13.6914027 4.36914062,14.3945312 C5.026696,15.0976598 5.79817266,15.6673155 6.68359375,16.1035156 C7.56901484,16.5397157 8.52603652,16.7903643 9.5546875,16.8554688 L8.48046875,15.15625 C8.41536426,15.0520828 8.38606768,14.9348965 8.39257812,14.8046875 C8.39908857,14.6744785 8.46093691,14.5768232 8.578125,14.5117188 L8.71484375,14.4140625 C8.83203184,14.348958 8.95247334,14.3359373 9.07617188,14.375 C9.19987041,14.4140627 9.29427051,14.4856766 9.359375,14.5898438 L11.2148438,17.4804688 L11.3320313,17.6757812 C11.3710939,17.7278648 11.3938802,17.786458 11.4003906,17.8515625 C11.4069011,17.916667 11.4036459,17.9752602 11.390625,18.0273438 C11.3776041,18.0794273 11.3515627,18.128255 11.3125,18.1738281 C11.2734373,18.2194013 11.2278648,18.2617186 11.1757812,18.3007812 L10.9804687,18.3984375 C10.9674479,18.3984375 10.9609375,18.3984375 10.9609375,18.3984375 C10.9609375,18.3984375 10.9609375,18.4049479 10.9609375,18.4179688 L7.97265625,19.9414062 C7.85546816,20.0065107 7.73502666,20.0227866 7.61132812,19.9902344 C7.48762959,19.9576821 7.39322949,19.8828131 7.328125,19.765625 L7.26953125,19.609375 C7.20442676,19.5052078 7.19791641,19.3912767 7.25,19.2675781 C7.30208359,19.1438796 7.38020781,19.0559898 7.484375,19.0039062 L9.28125,18.0859375 C8.12239004,17.9817703 7.0384165,17.6757838 6.02929688,17.1679688 C5.02017725,16.6601537 4.14453496,15.999353 3.40234375,15.1855469 C2.66015254,14.3717407 2.0742209,13.4407604 1.64453125,12.3925781 C1.2148416,11.3443958 1,10.2343809 1,9.0625 C1,7.81249375 1.23762783,6.63737529 1.71289062,5.53710938 C2.18815342,4.43684346 2.8359334,3.4765666 3.65625,2.65625 C4.4765666,1.8359334 5.43684346,1.18815342 6.53710937,0.712890625 C7.63737529,0.237627832 8.81249375,0 10.0625,0 Z" id="" fill="#282828" fill-rule="nonzero"></path>
    </g>
</svg>