<?xml version="1.0" encoding="UTF-8"?>
<svg width="18px" height="18px" viewBox="0 0 18 18" version="1.1" xmlns="http://www.w3.org/2000/svg" xmlns:xlink="http://www.w3.org/1999/xlink">
    <!-- Generator: Sketch 64 (93537) - https://sketch.com -->
    <title>画板</title>
    <desc>Created with Sketch.</desc>
    <g id="画板" stroke="none" stroke-width="1" fill="none" fill-rule="evenodd">
        <g id="Icn/Notepad/White" fill="#284664">
            <g id="NotePadIcn">
                <path d="M7.73696644,14.628502 C7.56610224,14.7993466 7.28909256,14.7993306 7.11824801,14.6284664 C6.94740345,14.4576022 6.94741937,14.1805926 7.11828356,14.009748 L14.7316586,6.39724801 C14.9025228,6.22640345 15.1795324,6.22641937 15.350377,6.39728356 C15.5212216,6.56814776 15.5212056,6.84515744 15.3503414,7.01600199 L7.73696644,14.628502 Z" id="Shape" fill-rule="nonzero"></path>
                <path d="M16.2156497,7.88256939 C16.386509,7.71171993 16.6635186,7.71172789 16.8343681,7.88258717 C17.0052176,8.05344646 17.0052096,8.33045614 16.8343503,8.50130561 L9.22185033,16.1133681 C9.05099104,16.2842176 8.77398136,16.2842096 8.60313189,16.1133503 C8.43228243,15.942491 8.43229039,15.6654814 8.60314967,15.4946319 L16.2156497,7.88256939 Z" id="Shape" fill-rule="nonzero"></path>
                <path d="M7.18441864,16.0469373 L8.74492368,15.3998658 C8.96812081,15.307316 9.22408432,15.4132265 9.31663417,15.6364237 C9.40918402,15.8596208 9.30327346,16.1155843 9.08007632,16.2081342 L6.54257632,17.2603217 C6.18234377,17.409694 5.82145345,17.0487285 5.97090072,16.6885271 L7.02352572,14.1514646 C7.11612202,13.9282867 7.37210757,13.8224294 7.59528544,13.9150257 C7.81846331,14.007622 7.92432058,14.2636076 7.83172428,14.4867854 L7.18441864,16.0469373 Z" id="Shape" fill-rule="nonzero"></path>
                <path d="M15.3903359,6.97338231 C15.2193307,7.14408573 14.9423211,7.14384108 14.7716177,6.97283588 C14.6009143,6.80183068 14.6011589,6.52482111 14.7721641,6.35411769 C15.3539311,5.77337739 16.2963295,5.77420966 16.8770698,6.35597663 C17.4578101,6.9377436 17.4569779,7.88014195 16.8752109,8.46088229 C16.7042057,8.63158572 16.4271961,8.63134109 16.2564927,8.4603359 C16.0857893,8.28933071 16.0860339,8.01232114 16.2570391,7.84161771 C16.4967957,7.60228422 16.4971387,7.21390499 16.2578052,6.97414841 C16.0184717,6.73439183 15.6300925,6.73404884 15.3903359,6.97338231 Z" id="Shape" fill-rule="nonzero"></path>
                <path d="M1.5883125,15.14775 L6.7131875,15.14775 C6.95481208,15.14775 7.1506875,15.3436254 7.1506875,15.58525 C7.1506875,15.8268746 6.95481208,16.02275 6.7131875,16.02275 L1.1508125,16.02275 C0.909187922,16.02275 0.7133125,15.8268746 0.7133125,15.58525 L0.7133125,2.46025 C0.7133125,2.21862542 0.909187922,2.02275 1.1508125,2.02275 L14.2758125,2.02275 C14.5174371,2.02275 14.7133125,2.21862542 14.7133125,2.46025 L14.7133125,7.471375 C14.7133125,7.71299958 14.5174371,7.908875 14.2758125,7.908875 C14.0341879,7.908875 13.8383125,7.71299958 13.8383125,7.471375 L13.8383125,2.89775 L1.5883125,2.89775 L1.5883125,15.14775 Z" id="Shape" fill-rule="nonzero"></path>
                <path d="M2.483,1.1285 C2.483,0.886875422 2.67887542,0.691 2.9205,0.691 C3.16212458,0.691 3.358,0.886875422 3.358,1.1285 L3.358,3.7535 C3.358,3.99512458 3.16212458,4.191 2.9205,4.191 C2.67887542,4.191 2.483,3.99512458 2.483,3.7535 L2.483,1.1285 Z" id="Shape" fill-rule="nonzero"></path>
                <path d="M4.8888125,1.1285 C4.8888125,0.886875422 5.08468792,0.691 5.3263125,0.691 C5.56793708,0.691 5.7638125,0.886875422 5.7638125,1.1285 L5.7638125,3.7535 C5.7638125,3.99512458 5.56793708,4.191 5.3263125,4.191 C5.08468792,4.191 4.8888125,3.99512458 4.8888125,3.7535 L4.8888125,1.1285 Z" id="Shape" fill-rule="nonzero"></path>
                <path d="M7.294625,1.1285 C7.294625,0.886875422 7.49050042,0.691 7.732125,0.691 C7.97374958,0.691 8.169625,0.886875422 8.169625,1.1285 L8.169625,3.7535 C8.169625,3.99512458 7.97374958,4.191 7.732125,4.191 C7.49050042,4.191 7.294625,3.99512458 7.294625,3.7535 L7.294625,1.1285 Z" id="Shape" fill-rule="nonzero"></path>
                <path d="M9.7004375,1.1285 C9.7004375,0.886875422 9.89631292,0.691 10.1379375,0.691 C10.3795621,0.691 10.5754375,0.886875422 10.5754375,1.1285 L10.5754375,3.7535 C10.5754375,3.99512458 10.3795621,4.191 10.1379375,4.191 C9.89631292,4.191 9.7004375,3.99512458 9.7004375,3.7535 L9.7004375,1.1285 Z" id="Shape" fill-rule="nonzero"></path>
                <path d="M12.10625,1.1285 C12.10625,0.886875422 12.3021254,0.691 12.54375,0.691 C12.7853746,0.691 12.98125,0.886875422 12.98125,1.1285 L12.98125,3.7535 C12.98125,3.99512458 12.7853746,4.191 12.54375,4.191 C12.3021254,4.191 12.10625,3.99512458 12.10625,3.7535 L12.10625,1.1285 Z" id="Shape" fill-rule="nonzero"></path>
                <path d="M13.8383125,12.7156875 C13.8383125,12.4740629 14.0341879,12.2781875 14.2758125,12.2781875 C14.5174371,12.2781875 14.7133125,12.4740629 14.7133125,12.7156875 L14.7133125,15.58525 C14.7133125,15.8268746 14.5174371,16.02275 14.2758125,16.02275 L11.491125,16.02275 C11.2495004,16.02275 11.053625,15.8268746 11.053625,15.58525 C11.053625,15.3436254 11.2495004,15.14775 11.491125,15.14775 L13.8383125,15.14775 L13.8383125,12.7156875 Z" id="Shape" fill-rule="nonzero"></path>
            </g>
        </g>
    </g>
</svg>