<svg width="15" height="15" viewBox="0 0 15 15" fill="none" xmlns="http://www.w3.org/2000/svg">
<path opacity="0.6" fill-rule="evenodd" clip-rule="evenodd" d="M1.99219 2.34375C1.99219 2.14959 2.14959 1.99219 2.34375 1.99219H7.77481C7.99208 1.99229 8.20059 2.07858 8.35431 2.23213L14.174 8.0518C14.3277 8.20562 14.4141 8.41427 14.4141 8.63174C14.4141 8.84921 14.3278 9.05777 14.1741 9.2116L9.21348 14.1739C9.05966 14.3277 8.85096 14.4141 8.6335 14.4141C8.41603 14.4141 8.20746 14.3278 8.05364 14.1741L2.2323 8.35449C2.07876 8.20077 1.99229 7.99224 1.99219 7.77497L1.99219 2.34375ZM2.69531 2.69531V7.77464C2.69533 7.80568 2.70765 7.83544 2.72959 7.85741L8.55066 13.6767C8.55064 13.6767 8.55067 13.6767 8.55066 13.6767C8.57263 13.6987 8.60245 13.711 8.6335 13.711C8.66456 13.711 8.69436 13.6987 8.71633 13.6767L13.6767 8.71458C13.6767 8.71459 13.6767 8.71456 13.6767 8.71458C13.6987 8.6926 13.711 8.66279 13.711 8.63174C13.711 8.60067 13.6987 8.57088 13.6767 8.5489L7.85741 2.72959C7.83546 2.70766 7.80571 2.69534 7.77469 2.69531C7.77467 2.69531 7.7747 2.69531 7.77469 2.69531H2.69531Z" fill="#284664"/>
<path d="M4.92188 5.50781C5.24548 5.50781 5.50781 5.24548 5.50781 4.92188C5.50781 4.59827 5.24548 4.33594 4.92188 4.33594C4.59827 4.33594 4.33594 4.59827 4.33594 4.92188C4.33594 5.24548 4.59827 5.50781 4.92188 5.50781Z" fill="#284664"/>
</svg>
