<svg width="80" height="80" viewBox="0 0 80 80" fill="none" xmlns="http://www.w3.org/2000/svg">
<g id="Clip path group">
<mask id="mask0_1130_53073" style="mask-type:luminance" maskUnits="userSpaceOnUse" x="0" y="0" width="80" height="80">
<g id="clipPath2033">
<path id="path2031" d="M0 7.62939e-06H80V80H0V7.62939e-06Z" fill="white"/>
</g>
</mask>
<g mask="url(#mask0_1130_53073)">
<g id="g2029">
<g id="g2047">
<g id="Group 51">
<path id="path2037" opacity="0.3" d="M70.593 40.0004C70.593 56.8955 56.8967 70.5918 40.0016 70.5918C23.1062 70.5918 9.41016 56.8955 9.41016 40.0004C9.41016 23.1052 23.1062 9.40899 40.0016 9.40899C56.8967 9.40899 70.593 23.1052 70.593 40.0004Z" fill="#33B2C7"/>
<g id="00:00">
<path d="M28.8539 44.5C27.9217 44.5 27.2111 44.157 26.7221 43.471C26.2407 42.7775 26 41.7854 26 40.4945C26 39.6166 26.107 38.8827 26.3209 38.2925C26.5425 37.7024 26.8634 37.2561 27.2837 36.9537C27.7116 36.6512 28.235 36.5 28.8539 36.5C29.7937 36.5 30.5043 36.8393 30.9857 37.518C31.4671 38.1893 31.7078 39.1777 31.7078 40.4834C31.7078 41.3465 31.597 42.0768 31.3754 42.6743C31.1615 43.2718 30.8444 43.7254 30.4241 44.0353C30.0039 44.3451 29.4805 44.5 28.8539 44.5ZM28.8539 43.6259C29.4652 43.6259 29.9198 43.3714 30.2178 42.8624C30.5158 42.3534 30.6648 41.5604 30.6648 40.4834C30.6648 39.4064 30.5158 38.6208 30.2178 38.1266C29.9274 37.6249 29.4728 37.3741 28.8539 37.3741C28.2426 37.3741 27.788 37.6249 27.49 38.1266C27.192 38.6208 27.043 39.4064 27.043 40.4834C27.043 41.5604 27.192 42.3534 27.49 42.8624C27.788 43.3714 28.2426 43.6259 28.8539 43.6259Z" fill="#294563"/>
<path d="M35.7263 44.5C34.7941 44.5 34.0835 44.157 33.5944 43.471C33.1131 42.7775 32.8724 41.7854 32.8724 40.4945C32.8724 39.6166 32.9794 38.8827 33.1933 38.2925C33.4149 37.7024 33.7358 37.2561 34.1561 36.9537C34.584 36.6512 35.1074 36.5 35.7263 36.5C36.6661 36.5 37.3767 36.8393 37.8581 37.518C38.3395 38.1893 38.5802 39.1777 38.5802 40.4834C38.5802 41.3465 38.4694 42.0768 38.2478 42.6743C38.0338 43.2718 37.7167 43.7254 37.2965 44.0353C36.8762 44.3451 36.3528 44.5 35.7263 44.5ZM35.7263 43.6259C36.3375 43.6259 36.7922 43.3714 37.0902 42.8624C37.3882 42.3534 37.5372 41.5604 37.5372 40.4834C37.5372 39.4064 37.3882 38.6208 37.0902 38.1266C36.7998 37.6249 36.3452 37.3741 35.7263 37.3741C35.115 37.3741 34.6604 37.6249 34.3624 38.1266C34.0644 38.6208 33.9154 39.4064 33.9154 40.4834C33.9154 41.5604 34.0644 42.3534 34.3624 42.8624C34.6604 43.3714 35.115 43.6259 35.7263 43.6259Z" fill="#294563"/>
<path d="M40.5012 44.4447C40.3025 44.4447 40.1383 44.382 40.0084 44.2566C39.8785 44.1312 39.8135 43.9726 39.8135 43.7808C39.8135 43.589 39.8785 43.4341 40.0084 43.316C40.1383 43.198 40.3025 43.139 40.5012 43.139C40.7152 43.139 40.8794 43.198 40.9941 43.316C41.1163 43.4341 41.1774 43.589 41.1774 43.7808C41.1774 43.9726 41.1163 44.1312 40.9941 44.2566C40.8794 44.382 40.7152 44.4447 40.5012 44.4447ZM40.5012 40.2732C40.3025 40.2732 40.1383 40.2142 40.0084 40.0961C39.8785 39.9707 39.8135 39.8121 39.8135 39.6203C39.8135 39.4285 39.8785 39.2736 40.0084 39.1556C40.1383 39.0302 40.3025 38.9675 40.5012 38.9675C40.7152 38.9675 40.8794 39.0302 40.9941 39.1556C41.1163 39.2736 41.1774 39.4285 41.1774 39.6203C41.1774 39.8121 41.1163 39.9707 40.9941 40.0961C40.8794 40.2142 40.7152 40.2732 40.5012 40.2732Z" fill="#294563"/>
<path d="M45.2737 44.5C44.3415 44.5 43.6309 44.157 43.1419 43.471C42.6605 42.7775 42.4198 41.7854 42.4198 40.4945C42.4198 39.6166 42.5268 38.8827 42.7408 38.2925C42.9623 37.7024 43.2833 37.2561 43.7035 36.9537C44.1314 36.6512 44.6548 36.5 45.2737 36.5C46.2136 36.5 46.9242 36.8393 47.4056 37.518C47.8869 38.1893 48.1276 39.1777 48.1276 40.4834C48.1276 41.3465 48.0168 42.0768 47.7952 42.6743C47.5813 43.2718 47.2642 43.7254 46.8439 44.0353C46.4237 44.3451 45.9003 44.5 45.2737 44.5ZM45.2737 43.6259C45.885 43.6259 46.3396 43.3714 46.6376 42.8624C46.9356 42.3534 47.0846 41.5604 47.0846 40.4834C47.0846 39.4064 46.9356 38.6208 46.6376 38.1266C46.3473 37.6249 45.8926 37.3741 45.2737 37.3741C44.6625 37.3741 44.2078 37.6249 43.9098 38.1266C43.6118 38.6208 43.4628 39.4064 43.4628 40.4834C43.4628 41.5604 43.6118 42.3534 43.9098 42.8624C44.2078 43.3714 44.6625 43.6259 45.2737 43.6259Z" fill="#294563"/>
<path d="M52.1461 44.5C51.2139 44.5 50.5033 44.157 50.0143 43.471C49.5329 42.7775 49.2922 41.7854 49.2922 40.4945C49.2922 39.6166 49.3992 38.8827 49.6131 38.2925C49.8347 37.7024 50.1556 37.2561 50.5759 36.9537C51.0038 36.6512 51.5272 36.5 52.1461 36.5C53.0859 36.5 53.7966 36.8393 54.2779 37.518C54.7593 38.1893 55 39.1777 55 40.4834C55 41.3465 54.8892 42.0768 54.6676 42.6743C54.4537 43.2718 54.1366 43.7254 53.7163 44.0353C53.2961 44.3451 52.7727 44.5 52.1461 44.5ZM52.1461 43.6259C52.7574 43.6259 53.212 43.3714 53.51 42.8624C53.808 42.3534 53.957 41.5604 53.957 40.4834C53.957 39.4064 53.808 38.6208 53.51 38.1266C53.2197 37.6249 52.765 37.3741 52.1461 37.3741C51.5348 37.3741 51.0802 37.6249 50.7822 38.1266C50.4842 38.6208 50.3352 39.4064 50.3352 40.4834C50.3352 41.5604 50.4842 42.3534 50.7822 42.8624C51.0802 43.3714 51.5348 43.6259 52.1461 43.6259Z" fill="#294563"/>
</g>
</g>
</g>
<g id="g2051">
<path id="path2053" d="M78.4375 40C78.4375 61.2284 61.2284 78.4375 40 78.4375C18.7716 78.4375 1.5625 61.2284 1.5625 40C1.5625 18.7716 18.7716 1.5625 40 1.5625C61.2284 1.5625 78.4375 18.7716 78.4375 40Z" stroke="#294563" stroke-width="2" stroke-miterlimit="10" stroke-linecap="round" stroke-linejoin="round"/>
</g>
<g id="g2055">
<path id="path2057" d="M39.9922 17.2385V20.377" stroke="#294563" stroke-width="2" stroke-miterlimit="10" stroke-linecap="round" stroke-linejoin="round"/>
</g>
<g id="g2059">
<path id="path2061" d="M28.6133 20.2921L30.1825 23.0103" stroke="#294563" stroke-width="2" stroke-miterlimit="10" stroke-linecap="round" stroke-linejoin="round"/>
</g>
<g id="g2063">
<path id="path2065" d="M20.2852 28.6261L23.0031 30.1953" stroke="#294563" stroke-width="2" stroke-miterlimit="10" stroke-linecap="round" stroke-linejoin="round"/>
</g>
<g id="g2067">
<path id="path2069" d="M17.2383 40.0083H20.3767" stroke="#294563" stroke-width="2" stroke-miterlimit="10" stroke-linecap="round" stroke-linejoin="round"/>
</g>
<g id="g2071">
<path id="path2073" d="M20.293 51.3877L23.0109 49.8185" stroke="#294563" stroke-width="2" stroke-miterlimit="10" stroke-linecap="round" stroke-linejoin="round"/>
</g>
<g id="g2075">
<path id="path2077" d="M28.625 59.7163L30.1942 56.9982" stroke="#294563" stroke-width="2" stroke-miterlimit="10" stroke-linecap="round" stroke-linejoin="round"/>
</g>
<g id="g2079">
<path id="path2081" d="M40.0078 62.7617V59.6233" stroke="#294563" stroke-width="2" stroke-miterlimit="10" stroke-linecap="round" stroke-linejoin="round"/>
</g>
<g id="g2083">
<path id="path2085" d="M51.3895 59.708L49.8203 56.9899" stroke="#294563" stroke-width="2" stroke-miterlimit="10" stroke-linecap="round" stroke-linejoin="round"/>
</g>
<g id="g2087">
<path id="path2089" d="M59.718 51.3735L57 49.8043" stroke="#294563" stroke-width="2" stroke-miterlimit="10" stroke-linecap="round" stroke-linejoin="round"/>
</g>
<g id="g2091">
<path id="path2093" d="M62.7634 39.9917H59.625" stroke="#294563" stroke-width="2" stroke-miterlimit="10" stroke-linecap="round" stroke-linejoin="round"/>
</g>
<g id="g2095">
<path id="path2097" d="M59.7063 28.6124L56.9883 30.1816" stroke="#294563" stroke-width="2" stroke-miterlimit="10" stroke-linecap="round" stroke-linejoin="round"/>
</g>
<g id="g2099">
<path id="path2101" d="M51.3739 20.2838L49.8047 23.002" stroke="#294563" stroke-width="2" stroke-miterlimit="10" stroke-linecap="round" stroke-linejoin="round"/>
</g>
</g>
</g>
</g>
</svg>
