<svg xmlns="http://www.w3.org/2000/svg" width="32" height="32" viewBox="0 0 32 32">
    <g fill="#30305E" fill-rule="evenodd">
        <path fill-rule="nonzero" d="M28.69 16.098v-3.93a2.536 2.536 0 0 0-2.34-2.522L22.7 3.272a2.511 2.511 0 0 0-3.45-.93L6.74 9.626H4.541A2.544 2.544 0 0 0 2 12.168v15.25a2.544 2.544 0 0 0 2.542 2.543h21.606a2.544 2.544 0 0 0 2.542-2.542v-3.93a1.903 1.903 0 0 0 1.27-1.79v-3.812c0-.827-.532-1.526-1.27-1.79zm-3.817-6.472h-5.538l4.154-2.419 1.384 2.419zm-2.016-3.521l-6.048 3.52h-2.51l7.93-4.616.628 1.096zM19.89 3.44a1.246 1.246 0 0 1 1.707.463l.001.002-9.824 5.72H9.265L19.89 3.44zm7.529 23.978c0 .7-.57 1.27-1.271 1.27H4.542c-.7 0-1.27-.57-1.27-1.27V12.168c0-.7.57-1.271 1.27-1.271h21.606c.7 0 1.27.57 1.27 1.27v3.814h-3.812a3.817 3.817 0 0 0-3.813 3.812 3.817 3.817 0 0 0 3.813 3.813h3.813v3.813zm1.27-5.72c0 .351-.284.636-.635.636h-4.448a2.544 2.544 0 0 1-2.542-2.542 2.544 2.544 0 0 1 2.542-2.542h4.448c.35 0 .636.285.636.636V21.7z"/>
        <path d="M23.606 18.522c-.7 0-1.271.57-1.271 1.271 0 .7.57 1.271 1.27 1.271.701 0 1.272-.57 1.272-1.27 0-.701-.57-1.272-1.271-1.272z"/>
    </g>
</svg>
